<?xml version="1.0" encoding="UTF-8" standalone="no"?>
<!-- Created with Inkscape (http://www.inkscape.org/) -->

<svg
   width="4.5724587mm"
   height="5.8377628mm"
   viewBox="0 0 4.5724587 5.8377628"
   version="1.1"
   id="svg1422"
   inkscape:version="1.2.2 (b0a8486541, 2022-12-01)"
   sodipodi:docname="active-player.svg"
   xmlns:inkscape="http://www.inkscape.org/namespaces/inkscape"
   xmlns:sodipodi="http://sodipodi.sourceforge.net/DTD/sodipodi-0.dtd"
   xmlns="http://www.w3.org/2000/svg"
   xmlns:svg="http://www.w3.org/2000/svg">
  <sodipodi:namedview
     id="namedview1424"
     pagecolor="#ffffff"
     bordercolor="#666666"
     borderopacity="1.0"
     inkscape:showpageshadow="2"
     inkscape:pageopacity="0.0"
     inkscape:pagecheckerboard="0"
     inkscape:deskcolor="#d1d1d1"
     inkscape:document-units="mm"
     showgrid="false"
     inkscape:zoom="10.808347"
     inkscape:cx="-6.4302155"
     inkscape:cy="9.2983691"
     inkscape:window-width="1920"
     inkscape:window-height="1020"
     inkscape:window-x="0"
     inkscape:window-y="32"
     inkscape:window-maximized="1"
     inkscape:current-layer="layer1" />
  <defs
     id="defs1419">
    <clipPath
       clipPathUnits="userSpaceOnUse"
       id="clipPath1585">
      <g
         id="g1589"
         transform="translate(-334.9748,-688.4194)">
        <path
           d="M 0,0 H 609.449 V 793.701 H 0 Z"
           id="path1587" />
      </g>
    </clipPath>
    <clipPath
       clipPathUnits="userSpaceOnUse"
       id="clipPath664">
      <path
         d="M 0,0 H 609.449 V 793.701 H 0 Z"
         id="path662" />
    </clipPath>
    <clipPath
       clipPathUnits="userSpaceOnUse"
       id="clipPath8157">
      <g
         id="g8161"
         transform="translate(-35.6922,-487.1561)">
        <path
           d="M 0,0 H 609.449 V 793.701 H 0 Z"
           id="path8159" />
      </g>
    </clipPath>
    <clipPath
       clipPathUnits="userSpaceOnUse"
       id="clipPath8151">
      <g
         id="g8155"
         transform="translate(-49.3377,-487.6971)">
        <path
           d="M 0,0 H 609.449 V 793.701 H 0 Z"
           id="path8153" />
      </g>
    </clipPath>
    <clipPath
       clipPathUnits="userSpaceOnUse"
       id="clipPath8145">
      <g
         id="g8149"
         transform="translate(-48.1717,-487.4276)">
        <path
           d="M 0,0 H 609.449 V 793.701 H 0 Z"
           id="path8147" />
      </g>
    </clipPath>
    <clipPath
       clipPathUnits="userSpaceOnUse"
       id="clipPath8139">
      <g
         id="g8143"
         transform="translate(-44.366,-492.3475)">
        <path
           d="M 0,0 H 609.449 V 793.701 H 0 Z"
           id="path8141" />
      </g>
    </clipPath>
    <clipPath
       clipPathUnits="userSpaceOnUse"
       id="clipPath8133">
      <g
         id="g8137"
         transform="translate(-46.6092,-491.7586)">
        <path
           d="M 0,0 H 609.449 V 793.701 H 0 Z"
           id="path8135" />
      </g>
    </clipPath>
    <clipPath
       clipPathUnits="userSpaceOnUse"
       id="clipPath8205">
      <g
         id="g8209"
         transform="translate(-45.1531,-464.5486)">
        <path
           d="M 0,0 H 609.449 V 793.701 H 0 Z"
           id="path8207" />
      </g>
    </clipPath>
    <clipPath
       clipPathUnits="userSpaceOnUse"
       id="clipPath8199">
      <g
         id="g8203"
         transform="translate(-42.3514,-462.9236)">
        <path
           d="M 0,0 H 609.449 V 793.701 H 0 Z"
           id="path8201" />
      </g>
    </clipPath>
    <clipPath
       clipPathUnits="userSpaceOnUse"
       id="clipPath8193">
      <g
         id="g8197"
         transform="translate(-49.6453,-468.3768)">
        <path
           d="M 0,0 H 609.449 V 793.701 H 0 Z"
           id="path8195" />
      </g>
    </clipPath>
    <clipPath
       clipPathUnits="userSpaceOnUse"
       id="clipPath8187">
      <g
         id="g8191"
         transform="translate(-45.8172,-467.1014)">
        <path
           d="M 0,0 H 609.449 V 793.701 H 0 Z"
           id="path8189" />
      </g>
    </clipPath>
    <clipPath
       clipPathUnits="userSpaceOnUse"
       id="clipPath8181">
      <g
         id="g8185"
         transform="translate(-45.9627,-464.6209)">
        <path
           d="M 0,0 H 609.449 V 793.701 H 0 Z"
           id="path8183" />
      </g>
    </clipPath>
    <clipPath
       clipPathUnits="userSpaceOnUse"
       id="clipPath8175">
      <g
         id="g8179"
         transform="translate(-44.1717,-464.3133)">
        <path
           d="M 0,0 H 609.449 V 793.701 H 0 Z"
           id="path8177" />
      </g>
    </clipPath>
    <clipPath
       clipPathUnits="userSpaceOnUse"
       id="clipPath8169">
      <g
         id="g8173"
         transform="translate(-41.0057,-463.2869)">
        <path
           d="M 0,0 H 609.449 V 793.701 H 0 Z"
           id="path8171" />
      </g>
    </clipPath>
    <clipPath
       clipPathUnits="userSpaceOnUse"
       id="clipPath8163">
      <g
         id="g8167"
         transform="translate(-40.7899,-456.6121)">
        <path
           d="M 0,0 H 609.449 V 793.701 H 0 Z"
           id="path8165" />
      </g>
    </clipPath>
    <clipPath
       clipPathUnits="userSpaceOnUse"
       id="clipPath8157-3">
      <g
         id="g8161-6"
         transform="translate(-35.6922,-487.1561)">
        <path
           d="M 0,0 H 609.449 V 793.701 H 0 Z"
           id="path8159-7" />
      </g>
    </clipPath>
    <clipPath
       clipPathUnits="userSpaceOnUse"
       id="clipPath8151-5">
      <g
         id="g8155-3"
         transform="translate(-49.3377,-487.6971)">
        <path
           d="M 0,0 H 609.449 V 793.701 H 0 Z"
           id="path8153-5" />
      </g>
    </clipPath>
    <clipPath
       clipPathUnits="userSpaceOnUse"
       id="clipPath8145-6">
      <g
         id="g8149-2"
         transform="translate(-48.1717,-487.4276)">
        <path
           d="M 0,0 H 609.449 V 793.701 H 0 Z"
           id="path8147-9" />
      </g>
    </clipPath>
    <clipPath
       clipPathUnits="userSpaceOnUse"
       id="clipPath8139-1">
      <g
         id="g8143-2"
         transform="translate(-44.366,-492.3475)">
        <path
           d="M 0,0 H 609.449 V 793.701 H 0 Z"
           id="path8141-7" />
      </g>
    </clipPath>
    <clipPath
       clipPathUnits="userSpaceOnUse"
       id="clipPath8133-0">
      <g
         id="g8137-9"
         transform="translate(-46.6092,-491.7586)">
        <path
           d="M 0,0 H 609.449 V 793.701 H 0 Z"
           id="path8135-3" />
      </g>
    </clipPath>
    <clipPath
       clipPathUnits="userSpaceOnUse"
       id="clipPath13791">
      <g
         id="g13797">
        <g
           id="g13795">
          <path
             d="M 0,0 H 609.449 V 793.701 H 0 Z"
             id="path13793" />
        </g>
      </g>
    </clipPath>
    <clipPath
       clipPathUnits="userSpaceOnUse"
       id="clipPath13896">
      <g
         id="g13902">
        <g
           id="g13900">
          <path
             d="M 0,0 H 609.449 V 793.701 H 0 Z"
             id="path13898" />
        </g>
      </g>
    </clipPath>
    <clipPath
       clipPathUnits="userSpaceOnUse"
       id="clipPath13881">
      <g
         id="g13887">
        <g
           id="g13885">
          <path
             d="M 0,0 H 609.449 V 793.701 H 0 Z"
             id="path13883" />
        </g>
      </g>
    </clipPath>
    <clipPath
       clipPathUnits="userSpaceOnUse"
       id="clipPath13806">
      <g
         id="g13812">
        <g
           id="g13810">
          <path
             d="M 0,0 H 609.449 V 793.701 H 0 Z"
             id="path13808" />
        </g>
      </g>
    </clipPath>
    <clipPath
       clipPathUnits="userSpaceOnUse"
       id="clipPath13821">
      <g
         id="g13827">
        <g
           id="g13825">
          <path
             d="M 0,0 H 609.449 V 793.701 H 0 Z"
             id="path13823" />
        </g>
      </g>
    </clipPath>
    <clipPath
       clipPathUnits="userSpaceOnUse"
       id="clipPath13911">
      <g
         id="g13917">
        <g
           id="g13915">
          <path
             d="M 0,0 H 609.449 V 793.701 H 0 Z"
             id="path13913" />
        </g>
      </g>
    </clipPath>
    <clipPath
       clipPathUnits="userSpaceOnUse"
       id="clipPath13866">
      <g
         id="g13872">
        <g
           id="g13870">
          <path
             d="M 0,0 H 609.449 V 793.701 H 0 Z"
             id="path13868" />
        </g>
      </g>
    </clipPath>
    <clipPath
       clipPathUnits="userSpaceOnUse"
       id="clipPath13836">
      <g
         id="g13842">
        <g
           id="g13840">
          <path
             d="M 0,0 H 609.449 V 793.701 H 0 Z"
             id="path13838" />
        </g>
      </g>
    </clipPath>
    <clipPath
       clipPathUnits="userSpaceOnUse"
       id="clipPath13851">
      <g
         id="g13857">
        <g
           id="g13855">
          <path
             d="M 0,0 H 609.449 V 793.701 H 0 Z"
             id="path13853" />
        </g>
      </g>
    </clipPath>
    <clipPath
       clipPathUnits="userSpaceOnUse"
       id="clipPath14939">
      <g
         id="g14943"
         transform="translate(-47.6111,-413.5244)">
        <path
           d="M 0,0 H 609.449 V 793.701 H 0 Z"
           id="path14941" />
      </g>
    </clipPath>
    <clipPath
       clipPathUnits="userSpaceOnUse"
       id="clipPath14933">
      <g
         id="g14937"
         transform="translate(-44.3924,-420.7109)">
        <path
           d="M 0,0 H 609.449 V 793.701 H 0 Z"
           id="path14935" />
      </g>
    </clipPath>
    <clipPath
       clipPathUnits="userSpaceOnUse"
       id="clipPath14927">
      <g
         id="g14931"
         transform="translate(-35.4949,-416.7852)">
        <path
           d="M 0,0 H 609.449 V 793.701 H 0 Z"
           id="path14929" />
      </g>
    </clipPath>
    <clipPath
       clipPathUnits="userSpaceOnUse"
       id="clipPath14921">
      <g
         id="g14925"
         transform="translate(-46.6404,-393.3848)">
        <path
           d="M 0,0 H 609.449 V 793.701 H 0 Z"
           id="path14923" />
      </g>
    </clipPath>
    <clipPath
       clipPathUnits="userSpaceOnUse"
       id="clipPath14915">
      <g
         id="g14919"
         transform="translate(-46.9734,-397.8965)">
        <path
           d="M 0,0 H 609.449 V 793.701 H 0 Z"
           id="path14917" />
      </g>
    </clipPath>
    <clipPath
       clipPathUnits="userSpaceOnUse"
       id="clipPath14909">
      <g
         id="g14913"
         transform="translate(-35.5633,-393.3027)">
        <path
           d="M 0,0 H 609.449 V 793.701 H 0 Z"
           id="path14911" />
      </g>
    </clipPath>
    <clipPath
       clipPathUnits="userSpaceOnUse"
       id="clipPath18083">
      <g
         id="g18087"
         transform="translate(-331.1849,-337.1262)">
        <path
           d="M 0,0 H 609.449 V 793.701 H 0 Z"
           id="path18085" />
      </g>
    </clipPath>
    <clipPath
       clipPathUnits="userSpaceOnUse"
       id="clipPath18077">
      <g
         id="g18081"
         transform="translate(-336.5472,-331.2395)">
        <path
           d="M 0,0 H 609.449 V 793.701 H 0 Z"
           id="path18079" />
      </g>
    </clipPath>
    <clipPath
       clipPathUnits="userSpaceOnUse"
       id="clipPath18071">
      <g
         id="g18075"
         transform="translate(-323.4349,-325.679)">
        <path
           d="M 0,0 H 609.449 V 793.701 H 0 Z"
           id="path18073" />
      </g>
    </clipPath>
    <clipPath
       clipPathUnits="userSpaceOnUse"
       id="clipPath19921">
      <g
         id="g19925"
         transform="translate(-331.0823,-311.4268)">
        <path
           d="M 0,0 H 609.449 V 793.701 H 0 Z"
           id="path19923" />
      </g>
    </clipPath>
    <clipPath
       clipPathUnits="userSpaceOnUse"
       id="clipPath19915">
      <g
         id="g19919"
         transform="translate(-342.5949,-277.9559)">
        <path
           d="M 0,0 H 609.449 V 793.701 H 0 Z"
           id="path19917" />
      </g>
    </clipPath>
    <clipPath
       clipPathUnits="userSpaceOnUse"
       id="clipPath22117">
      <g
         id="g22123">
        <g
           id="g22121">
          <path
             d="M 0,0 H 609.449 V 793.701 H 0 Z"
             id="path22119" />
        </g>
      </g>
    </clipPath>
    <clipPath
       clipPathUnits="userSpaceOnUse"
       id="clipPath22072">
      <g
         id="g22078">
        <g
           id="g22076">
          <path
             d="M 0,0 H 609.449 V 793.701 H 0 Z"
             id="path22074" />
        </g>
      </g>
    </clipPath>
    <clipPath
       clipPathUnits="userSpaceOnUse"
       id="clipPath21997">
      <g
         id="g22003">
        <g
           id="g22001">
          <path
             d="M 0,0 H 609.449 V 793.701 H 0 Z"
             id="path21999" />
        </g>
      </g>
    </clipPath>
    <clipPath
       clipPathUnits="userSpaceOnUse"
       id="clipPath22057">
      <g
         id="g22063">
        <g
           id="g22061">
          <path
             d="M 0,0 H 609.449 V 793.701 H 0 Z"
             id="path22059" />
        </g>
      </g>
    </clipPath>
    <clipPath
       clipPathUnits="userSpaceOnUse"
       id="clipPath22042">
      <g
         id="g22048">
        <g
           id="g22046">
          <path
             d="M 0,0 H 609.449 V 793.701 H 0 Z"
             id="path22044" />
        </g>
      </g>
    </clipPath>
    <clipPath
       clipPathUnits="userSpaceOnUse"
       id="clipPath22027">
      <g
         id="g22033">
        <g
           id="g22031">
          <path
             d="M 0,0 H 609.449 V 793.701 H 0 Z"
             id="path22029" />
        </g>
      </g>
    </clipPath>
    <clipPath
       clipPathUnits="userSpaceOnUse"
       id="clipPath22012">
      <g
         id="g22018">
        <g
           id="g22016">
          <path
             d="M 0,0 H 609.449 V 793.701 H 0 Z"
             id="path22014" />
        </g>
      </g>
    </clipPath>
    <clipPath
       clipPathUnits="userSpaceOnUse"
       id="clipPath21982">
      <g
         id="g21988">
        <g
           id="g21986">
          <path
             d="M 0,0 H 609.449 V 793.701 H 0 Z"
             id="path21984" />
        </g>
      </g>
    </clipPath>
    <clipPath
       clipPathUnits="userSpaceOnUse"
       id="clipPath22102">
      <g
         id="g22108">
        <g
           id="g22106">
          <path
             d="M 0,0 H 609.449 V 793.701 H 0 Z"
             id="path22104" />
        </g>
      </g>
    </clipPath>
    <clipPath
       clipPathUnits="userSpaceOnUse"
       id="clipPath25467">
      <g
         id="g25473">
        <g
           id="g25471">
          <path
             d="M 0,0 H 609.449 V 793.701 H 0 Z"
             id="path25469" />
        </g>
      </g>
    </clipPath>
    <clipPath
       clipPathUnits="userSpaceOnUse"
       id="clipPath25482">
      <g
         id="g25488">
        <g
           id="g25486">
          <path
             d="M 0,0 H 609.449 V 793.701 H 0 Z"
             id="path25484" />
        </g>
      </g>
    </clipPath>
    <clipPath
       clipPathUnits="userSpaceOnUse"
       id="clipPath25497">
      <g
         id="g25503">
        <g
           id="g25501">
          <path
             d="M 0,0 H 609.449 V 793.701 H 0 Z"
             id="path25499" />
        </g>
      </g>
    </clipPath>
    <clipPath
       clipPathUnits="userSpaceOnUse"
       id="clipPath25437">
      <g
         id="g25443">
        <g
           id="g25441">
          <path
             d="M 0,0 H 609.449 V 793.701 H 0 Z"
             id="path25439" />
        </g>
      </g>
    </clipPath>
    <clipPath
       clipPathUnits="userSpaceOnUse"
       id="clipPath25227">
      <g
         id="g25233">
        <g
           id="g25231">
          <path
             d="M 0,0 H 609.449 V 793.701 H 0 Z"
             id="path25229" />
        </g>
      </g>
    </clipPath>
    <clipPath
       clipPathUnits="userSpaceOnUse"
       id="clipPath25272">
      <g
         id="g25278">
        <g
           id="g25276">
          <path
             d="M 0,0 H 609.449 V 793.701 H 0 Z"
             id="path25274" />
        </g>
      </g>
    </clipPath>
    <clipPath
       clipPathUnits="userSpaceOnUse"
       id="clipPath25212">
      <g
         id="g25218">
        <g
           id="g25216">
          <path
             d="M 0,0 H 609.449 V 793.701 H 0 Z"
             id="path25214" />
        </g>
      </g>
    </clipPath>
    <clipPath
       clipPathUnits="userSpaceOnUse"
       id="clipPath25512">
      <g
         id="g25518">
        <g
           id="g25516">
          <path
             d="M 0,0 H 609.449 V 793.701 H 0 Z"
             id="path25514" />
        </g>
      </g>
    </clipPath>
    <clipPath
       clipPathUnits="userSpaceOnUse"
       id="clipPath25242">
      <g
         id="g25248">
        <g
           id="g25246">
          <path
             d="M 0,0 H 609.449 V 793.701 H 0 Z"
             id="path25244" />
        </g>
      </g>
    </clipPath>
  </defs>
  <g
     inkscape:label="Layer 1"
     inkscape:groupmode="layer"
     id="layer1"
     transform="translate(-104.35265,-152.78648)">
    <path
       d="m 333.9138,383.1335 c -0.521,0.45 -1.344,0.388 -1.557,0.364 -0.011,10e-4 -0.023,0 -0.027,-0.002 -0.697,-0.091 -1.348,-0.402 -1.979,-0.706 -0.265,-0.128 -0.531,-0.256 -0.794,-0.366 l -0.002,0.002 c -0.791,-0.327 -1.59,-0.496 -2.506,-0.097 v 10e-4 c -0.035,0.014 -0.045,0.023 -0.082,0.038 -0.057,0.03 -0.115,0.058 -0.172,0.09 -0.006,0.005 -0.016,0.008 -0.022,0.013 l -0.095,0.966 c -0.356,-0.131 -2.455,-1.304 -0.633,-2.196 0.367,-0.179 0.91,-0.185 1.76,0.081 0.588,0.203 1.265,0.54 1.929,0.873 0.987,0.497 1.92,0.961 2.61,1.037 0.103,0.012 0.201,0.019 0.295,0.02 0.679,0.014 1.019,-0.219 1.187,-0.413 0.164,-0.192 0.233,-0.437 0.188,-0.69 -0.01,-0.056 -0.024,-0.103 -0.047,-0.145 0.029,-0.013 0.056,-0.017 0.088,-0.018 0.142,0.003 0.254,0.118 0.254,0.263 -0.008,0.361 -0.143,0.667 -0.395,0.885"
       style="fill:#000000;fill-opacity:1;fill-rule:nonzero;stroke:none"
       id="path736"
       clip-path="url(#clipPath25482)"
       transform="matrix(0.35277777,0,0,-0.35277777,-9.6964874,289.96309)" />
    <path
       d="m 332.6423,383.0466 c -0.09,-0.003 -0.18,-0.007 -0.277,-0.019 -0.651,-0.072 -1.612,-0.551 -2.541,-1.02 -0.526,-0.261 -1.061,-0.529 -1.559,-0.733 0.404,0.08 0.818,0.192 1.225,0.3 0.658,0.176 1.342,0.358 1.99,0.418 0.414,0.042 0.842,-0.009 1.207,-0.051 0.238,-0.028 0.463,-0.056 0.645,-0.053 0.359,0.008 0.449,0.123 0.476,0.295 0.035,0.191 -0.016,0.376 -0.141,0.52 -0.193,0.23 -0.558,0.35 -1.025,0.343"
       style="fill:#000000;fill-opacity:1;fill-rule:nonzero;stroke:none"
       id="path740"
       clip-path="url(#clipPath25497)"
       transform="matrix(0.35277777,0,0,-0.35277777,-9.6964874,289.96309)" />
    <path
       d="m 329.4646,388.8445 c -1.553,-0.027 -3.252,-0.271 -3.248,-0.539 0.004,-0.268 1.713,-0.454 3.265,-0.427 1.553,0.027 3.252,0.27 3.249,0.539 -0.004,0.267 -1.713,0.454 -3.266,0.427"
       style="fill:#000000;fill-opacity:1;fill-rule:nonzero;stroke:none"
       id="path744"
       clip-path="url(#clipPath25437)"
       transform="matrix(0.35277777,0,0,-0.35277777,-9.6964874,289.96309)" />
    <path
       d="m 331.7224,387.8523 c -0.645,-0.102 -1.463,-0.168 -2.238,-0.181 -0.778,-0.014 -1.594,0.024 -2.242,0.106 -0.512,0.064 -0.821,0.137 -0.997,0.222 l 0.336,-3.517 c 0.071,-0.255 1.444,-0.44 2.961,-0.413 1.438,0.027 2.793,0.235 2.957,0.478 l 0.219,3.548 c -0.01,-0.003 -0.033,-0.008 -0.064,-0.012 -0.184,-0.081 -0.477,-0.157 -0.932,-0.231"
       style="fill:#000000;fill-opacity:1;fill-rule:nonzero;stroke:none"
       id="path748"
       clip-path="url(#clipPath25227)"
       transform="matrix(0.35277777,0,0,-0.35277777,-9.6964874,289.96309)" />
    <path
       d="m 327.4919,376.2282 c -1.51,-0.573 -2.699,-0.896 -2.699,-0.896 -1.129,-0.438 -1.471,-0.96 -1.504,-1.533 v -0.974 l 0.019,-0.141 c 0.02,-0.074 0.057,-0.139 0.102,-0.197 0.064,-0.084 0.152,-0.139 0.252,-0.166 0.039,-0.01 0.076,-0.022 0.119,-0.022 h 5.27 l -0.475,4.592 h -0.506 c -0.361,0 -0.559,-0.391 -0.578,-0.663"
       style="fill:#000000;fill-opacity:1;fill-rule:nonzero;stroke:none"
       id="path752"
       clip-path="url(#clipPath25272)"
       transform="matrix(0.35277777,0,0,-0.35277777,-9.6964874,289.96309)" />
    <path
       d="m 336.2302,373.8601 c -0.123,0.399 -0.459,1.012 -1.652,1.549 0,0 -0.963,0.297 -2.524,0.846 -0.014,0.271 -0.218,0.636 -0.576,0.636 h -0.506 l 0.072,1.084 c 0.778,0.364 1.124,0.936 1.27,1.697 0.076,0.397 0.16,1.216 0.205,1.946 -0.144,0.012 -0.273,0.03 -0.428,0.031 h -0.082 c -0.847,0 -1.191,-0.095 -1.759,-0.252 -0.286,-0.079 -0.641,-0.178 -1.131,-0.281 -0.866,-0.186 -1.528,-0.296 -2.014,-0.337 0.041,-0.458 0.086,-0.884 0.127,-1.107 0.125,-0.671 0.443,-1.408 1.269,-1.697 l 0.075,-1.084 1.193,-0.681 1.193,0.681 -0.474,-4.592 h 5.254 c 0.138,0 0.259,0.061 0.347,0.161 0.129,0.121 0.161,0.365 0.161,0.365 v 0.531 0.402 c 0,0.016 -0.008,0.069 -0.02,0.102"
       style="fill:#000000;fill-opacity:1;fill-rule:nonzero;stroke:none"
       id="path756"
       clip-path="url(#clipPath25212)"
       transform="matrix(0.35277777,0,0,-0.35277777,-9.6964874,289.96309)" />
    <path
       d="m 330.1638,375.4548 c 0,-0.196 -0.158,-0.354 -0.353,-0.354 -0.198,0 -0.354,0.158 -0.354,0.354 0,0.196 0.156,0.354 0.354,0.354 0.195,0 0.353,-0.158 0.353,-0.354"
       style="fill:#000000;fill-opacity:1;fill-rule:nonzero;stroke:none"
       id="path760"
       clip-path="url(#clipPath25512)"
       transform="matrix(0.35277777,0,0,-0.35277777,-9.6964874,289.96309)" />
    <path
       d="m 330.1638,373.6374 c 0,-0.197 -0.158,-0.354 -0.353,-0.354 -0.198,0 -0.354,0.157 -0.354,0.354 0,0.195 0.156,0.353 0.354,0.353 0.195,0 0.353,-0.158 0.353,-0.353"
       style="fill:#000000;fill-opacity:1;fill-rule:nonzero;stroke:none"
       id="path764"
       clip-path="url(#clipPath25242)"
       transform="matrix(0.35277777,0,0,-0.35277777,-9.6964874,289.96309)" />
  </g>
</svg>
