<?xml version="1.0" encoding="UTF-8" standalone="no"?>
<!-- Created with Inkscape (http://www.inkscape.org/) -->

<svg
   width="11.507968mm"
   height="6.99509mm"
   viewBox="0 0 11.507968 6.99509"
   version="1.1"
   id="svg797"
   inkscape:version="1.2.2 (b0a8486541, 2022-12-01)"
   sodipodi:docname="assistant.svg"
   xmlns:inkscape="http://www.inkscape.org/namespaces/inkscape"
   xmlns:sodipodi="http://sodipodi.sourceforge.net/DTD/sodipodi-0.dtd"
   xmlns="http://www.w3.org/2000/svg"
   xmlns:svg="http://www.w3.org/2000/svg">
  <sodipodi:namedview
     id="namedview799"
     pagecolor="#ffffff"
     bordercolor="#666666"
     borderopacity="1.0"
     inkscape:showpageshadow="2"
     inkscape:pageopacity="0.0"
     inkscape:pagecheckerboard="0"
     inkscape:deskcolor="#d1d1d1"
     inkscape:document-units="mm"
     showgrid="false"
     inkscape:zoom="3.247836"
     inkscape:cx="20.783069"
     inkscape:cy="62.965002"
     inkscape:window-width="1920"
     inkscape:window-height="1020"
     inkscape:window-x="0"
     inkscape:window-y="32"
     inkscape:window-maximized="1"
     inkscape:current-layer="layer1" />
  <defs
     id="defs794">
    <clipPath
       clipPathUnits="userSpaceOnUse"
       id="clipPath688">
      <g
         id="g692"
         transform="translate(-60.695048,-119.69875)">
        <path
           d="m 63.110948,138.27115 c -14.089,-0.11 -25.421,-11.621 -25.312,-25.711 v 0 c 0.111,-14.089002 11.622,-25.421002 25.712,-25.311002 v 0 c 14.089,0.11 25.421,11.622 25.311,25.711002 v 0 c -0.11,14.021 -11.51,25.313 -25.506,25.312 v 0 c -0.068,0 -0.137,0 -0.205,-0.001"
           id="path690" />
      </g>
    </clipPath>
    <clipPath
       clipPathUnits="userSpaceOnUse"
       id="clipPath682">
      <g
         id="g686"
         transform="translate(-60.765048,-117.64805)">
        <path
           d="m 63.110948,138.27115 c -14.089,-0.11 -25.421,-11.621 -25.312,-25.711 v 0 c 0.111,-14.089002 11.622,-25.421002 25.712,-25.311002 v 0 c 14.089,0.11 25.421,11.622 25.311,25.711002 v 0 c -0.11,14.021 -11.51,25.313 -25.506,25.312 v 0 c -0.068,0 -0.137,0 -0.205,-0.001"
           id="path684" />
      </g>
    </clipPath>
    <clipPath
       clipPathUnits="userSpaceOnUse"
       id="clipPath676">
      <g
         id="g680"
         transform="translate(-68.711948,-119.20855)">
        <path
           d="m 63.110948,138.27115 c -14.089,-0.11 -25.421,-11.621 -25.312,-25.711 v 0 c 0.111,-14.089002 11.622,-25.421002 25.712,-25.311002 v 0 c 14.089,0.11 25.421,11.622 25.311,25.711002 v 0 c -0.11,14.021 -11.51,25.313 -25.506,25.312 v 0 c -0.068,0 -0.137,0 -0.205,-0.001"
           id="path678" />
      </g>
    </clipPath>
    <clipPath
       clipPathUnits="userSpaceOnUse"
       id="clipPath670">
      <g
         id="g674"
         transform="translate(-68.641948,-117.15795)">
        <path
           d="m 63.110948,138.27115 c -14.089,-0.11 -25.421,-11.621 -25.312,-25.711 v 0 c 0.111,-14.089002 11.622,-25.421002 25.712,-25.311002 v 0 c 14.089,0.11 25.421,11.622 25.311,25.711002 v 0 c -0.11,14.021 -11.51,25.313 -25.506,25.312 v 0 c -0.068,0 -0.137,0 -0.205,-0.001"
           id="path672" />
      </g>
    </clipPath>
    <clipPath
       clipPathUnits="userSpaceOnUse"
       id="clipPath664">
      <g
         id="g668"
         transform="translate(-61.859048,-124.07585)">
        <path
           d="m 63.110948,138.27115 c -14.089,-0.11 -25.421,-11.621 -25.312,-25.711 v 0 c 0.111,-14.089002 11.622,-25.421002 25.712,-25.311002 v 0 c 14.089,0.11 25.421,11.622 25.311,25.711002 v 0 c -0.11,14.021 -11.51,25.313 -25.506,25.312 v 0 c -0.068,0 -0.137,0 -0.205,-0.001"
           id="path666" />
      </g>
    </clipPath>
    <clipPath
       clipPathUnits="userSpaceOnUse"
       id="clipPath658">
      <g
         id="g662"
         transform="translate(-61.859048,-116.61105)">
        <path
           d="m 63.110948,138.27115 c -14.089,-0.11 -25.421,-11.621 -25.312,-25.711 v 0 c 0.111,-14.089002 11.622,-25.421002 25.712,-25.311002 v 0 c 14.089,0.11 25.421,11.622 25.311,25.711002 v 0 c -0.11,14.021 -11.51,25.313 -25.506,25.312 v 0 c -0.068,0 -0.137,0 -0.205,-0.001"
           id="path660" />
      </g>
    </clipPath>
    <clipPath
       clipPathUnits="userSpaceOnUse"
       id="clipPath652">
      <g
         id="g656"
         transform="translate(-67.185648,-116.61105)">
        <path
           d="m 63.110948,138.27115 c -14.089,-0.11 -25.421,-11.621 -25.312,-25.711 v 0 c 0.111,-14.089002 11.622,-25.421002 25.712,-25.311002 v 0 c 14.089,0.11 25.421,11.622 25.311,25.711002 v 0 c -0.11,14.021 -11.51,25.313 -25.506,25.312 v 0 c -0.068,0 -0.137,0 -0.205,-0.001"
           id="path654" />
      </g>
    </clipPath>
  </defs>
  <g
     inkscape:label="Layer 1"
     inkscape:groupmode="layer"
     id="layer1"
     transform="translate(-44.866994,-96.328437)">
    <g
       id="g708"
       transform="matrix(0.35277777,0,0,-0.35277777,27.795022,141.36096)">
      <g
         id="g230"
         transform="translate(60.695048,119.69875)"
         clip-path="url(#clipPath688)">
        <path
           d="m 0,0 c -0.047,0.017 -0.131,0.038 -0.248,0.013 -0.738,-0.217 -3.267,-0.908 -4.728,-0.184 -0.089,0.045 -0.403,0.2 -0.379,0.313 0.051,0.234 1.496,-0.079 3.139,0.191 0.946,0.155 1.676,0.457 2.105,0.661 0.173,0.108 0.273,0.294 0.257,0.483 -0.016,0.19 -0.144,0.308 -0.176,0.336 -1.013,0.88 -1.848,1.108 -2.441,1.143 -0.847,0.051 -1.95,0.062 -1.95,0.062 -0.603,0 -0.904,0.03 -0.918,0.106 -0.026,0.141 0.739,0.434 1.427,0.559 0.721,0.13 1.271,0.06 1.405,0.041 C -2.263,3.69 -1.695,3.609 -1.086,3.256 -0.369,2.842 -0.17,2.382 0.088,2.453 0.263,2.502 0.452,2.794 0.464,3.931 0.425,4.221 0.374,4.435 0.311,4.518 -0.85,6.502 -5.277,8.4 -8.254,7.859 c -2.617,-0.464 -2.282,-11.317 -0.47,-11.576 1.217,-0.34 7.082,0.647 8.794,2.341 0.113,0.094 0.205,0.359 0.278,0.723 C 0.355,-0.338 0.213,-0.078 0,0"
           style="fill:#000000;fill-opacity:1;fill-rule:nonzero;stroke:none"
           id="path232" />
      </g>
      <g
         id="g234"
         transform="translate(60.765048,117.64805)"
         clip-path="url(#clipPath682)">
        <path
           d="m 0,0 c -1.093,-1.213 -7.056,-2.778 -8.295,-2.53 -2.546,0.797 -3.085,8.415 -1.697,10.76 0.296,0.311 -0.622,0.978 -1.196,0.335 -2.897,-3.241 0.14,-12.522 2.518,-13.246 1.553,-0.123 7.17,2.126 9.158,4.051 C 0.764,-0.33 0.388,0.133 0,0"
           style="fill:#000000;fill-opacity:1;fill-rule:nonzero;stroke:none"
           id="path236" />
      </g>
      <g
         id="g238"
         transform="translate(68.711948,119.20855)"
         clip-path="url(#clipPath676)">
        <path
           d="m 0,0 c 0.047,0.017 0.131,0.038 0.248,0.013 0.738,-0.217 3.267,-0.908 4.728,-0.184 0.089,0.045 0.403,0.2 0.379,0.313 C 5.304,0.376 3.859,0.063 2.216,0.333 1.27,0.488 0.54,0.79 0.111,0.994 c -0.173,0.108 -0.273,0.294 -0.257,0.483 0.016,0.19 0.144,0.308 0.176,0.336 1.013,0.88 1.848,1.108 2.441,1.143 0.847,0.051 1.95,0.062 1.95,0.062 0.603,0 0.904,0.03 0.918,0.106 C 5.365,3.265 4.6,3.558 3.912,3.683 3.191,3.813 2.641,3.743 2.507,3.724 2.263,3.69 1.695,3.609 1.086,3.256 0.369,2.842 0.17,2.382 -0.088,2.453 c -0.175,0.049 -0.364,0.341 -0.376,1.478 0.039,0.29 0.09,0.504 0.153,0.587 1.161,1.984 5.588,3.883 8.565,3.341 2.617,-0.464 2.282,-11.317 0.47,-11.576 -1.217,-0.34 -7.082,0.647 -8.794,2.341 -0.113,0.094 -0.205,0.359 -0.278,0.723 C -0.355,-0.338 -0.213,-0.078 0,0"
           style="fill:#000000;fill-opacity:1;fill-rule:nonzero;stroke:none"
           id="path240" />
      </g>
      <g
         id="g242"
         transform="translate(68.641948,117.15795)"
         clip-path="url(#clipPath670)">
        <path
           d="M 0,0 C 1.093,-1.213 7.056,-2.778 8.295,-2.53 10.841,-1.733 11.38,5.885 9.992,8.23 9.696,8.541 10.614,9.208 11.188,8.565 14.085,5.324 11.048,-3.957 8.67,-4.681 7.117,-4.804 1.5,-2.555 -0.488,-0.63 -0.764,-0.33 -0.388,0.133 0,0"
           style="fill:#000000;fill-opacity:1;fill-rule:nonzero;stroke:none"
           id="path244" />
      </g>
      <g
         id="g246"
         transform="translate(61.859048,124.07585)"
         clip-path="url(#clipPath664)">
        <path
           d="m 0,0 v -5.929 c 0.217,-0.218 1.162,-1.118 2.676,-1.201 1.791,-0.097 2.955,1.026 3.13,1.201 V 0 C 5.385,0.256 4.39,0.785 3.012,0.812 1.506,0.841 0.418,0.254 0,0"
           style="fill:#000000;fill-opacity:1;fill-rule:nonzero;stroke:none"
           id="path248" />
      </g>
      <g
         id="g250"
         transform="translate(61.859048,116.61105)"
         clip-path="url(#clipPath658)">
        <path
           d="M 0,0 C 0.33,0.03 1.097,-0.016 1.218,-0.053 1.33,-0.068 1.484,-0.094 1.665,-0.137 1.925,-0.198 2.058,-0.223 2.1,-0.265 2.287,-0.45 2.031,-0.969 1.774,-1.562 1.531,-2.12 1.336,-2.698 1.112,-3.265 0.635,-4.472 0.535,-4.822 0.476,-5.047 0.338,-5.582 0.356,-5.699 0.256,-6.159 0.106,-6.846 -0.301,-8.682 -1.06,-8.784 c -0.501,-0.067 -0.975,0.649 -1.14,0.899 -0.512,1.189 0.244,2.475 -0.394,2.75 -0.538,-0.362 -2.187,-2.406 -3.706,-1.306 -0.218,0.157 0.107,0.877 0.542,1.662 0.237,0.426 0.854,1.762 2.292,2.706 0.563,0.371 0.506,0.195 1.095,0.585 C -1.05,-0.791 -0.55,-0.05 0,0"
           style="fill:#000000;fill-opacity:1;fill-rule:nonzero;stroke:none"
           id="path252" />
      </g>
      <g
         id="g254"
         transform="translate(67.185648,116.61105)"
         clip-path="url(#clipPath652)">
        <path
           d="m 0,0 c -0.33,0.03 -1.097,-0.016 -1.218,-0.053 -0.112,-0.015 -0.266,-0.041 -0.447,-0.084 -0.26,-0.061 -0.393,-0.086 -0.435,-0.128 -0.187,-0.185 0.069,-0.704 0.326,-1.297 0.243,-0.558 0.438,-1.136 0.662,-1.703 0.477,-1.207 0.577,-1.557 0.636,-1.782 0.138,-0.535 0.12,-0.652 0.22,-1.112 0.15,-0.687 0.557,-2.523 1.316,-2.625 0.501,-0.067 0.975,0.649 1.14,0.899 0.512,1.189 -0.244,2.475 0.394,2.75 C 3.132,-5.497 4.781,-7.541 6.3,-6.441 6.518,-6.284 6.193,-5.564 5.758,-4.779 5.521,-4.353 4.904,-3.017 3.466,-2.073 2.903,-1.702 2.96,-1.878 2.371,-1.488 1.05,-0.791 0.55,-0.05 0,0"
           style="fill:#000000;fill-opacity:1;fill-rule:nonzero;stroke:none"
           id="path256" />
      </g>
    </g>
  </g>
</svg>
