<?xml version="1.0" encoding="UTF-8" standalone="no"?>
<!-- Created with Inkscape (http://www.inkscape.org/) -->

<svg
   width="5.2331057mm"
   height="5.2133498mm"
   viewBox="0 0 5.2331057 5.2133498"
   version="1.1"
   id="svg1422"
   inkscape:version="1.2.2 (b0a8486541, 2022-12-01)"
   sodipodi:docname="coin.svg"
   xmlns:inkscape="http://www.inkscape.org/namespaces/inkscape"
   xmlns:sodipodi="http://sodipodi.sourceforge.net/DTD/sodipodi-0.dtd"
   xmlns="http://www.w3.org/2000/svg"
   xmlns:svg="http://www.w3.org/2000/svg">
  <sodipodi:namedview
     id="namedview1424"
     pagecolor="#ffffff"
     bordercolor="#666666"
     borderopacity="1.0"
     inkscape:showpageshadow="2"
     inkscape:pageopacity="0.0"
     inkscape:pagecheckerboard="0"
     inkscape:deskcolor="#d1d1d1"
     inkscape:document-units="mm"
     showgrid="false"
     inkscape:zoom="23.94738"
     inkscape:cx="-0.85604354"
     inkscape:cy="12.089005"
     inkscape:window-width="1920"
     inkscape:window-height="1020"
     inkscape:window-x="0"
     inkscape:window-y="32"
     inkscape:window-maximized="1"
     inkscape:current-layer="layer1" />
  <defs
     id="defs1419">
    <clipPath
       clipPathUnits="userSpaceOnUse"
       id="clipPath1585">
      <g
         id="g1589"
         transform="translate(-334.9748,-688.4194)">
        <path
           d="M 0,0 H 609.449 V 793.701 H 0 Z"
           id="path1587" />
      </g>
    </clipPath>
    <clipPath
       clipPathUnits="userSpaceOnUse"
       id="clipPath664">
      <path
         d="M 0,0 H 609.449 V 793.701 H 0 Z"
         id="path662" />
    </clipPath>
  </defs>
  <g
     inkscape:label="Layer 1"
     inkscape:groupmode="layer"
     id="layer1"
     transform="translate(-77.896969,-126.37093)">
    <g
       id="g658"
       transform="matrix(0.35277777,0,0,-0.35277777,-35.048291,363.58678)"
       style="fill:#000000;fill-opacity:1">
      <g
         id="g660"
         clip-path="url(#clipPath664)"
         style="fill:#000000;fill-opacity:1">
        <g
           id="g666"
           transform="translate(328.2508,672.4229)"
           style="fill:#000000;fill-opacity:1">
          <path
             d="M 0,0 C -0.229,0 -0.456,-0.015 -0.678,-0.039 -0.898,-0.015 -1.121,0 -1.348,0 c -0.772,0 -1.51,-0.151 -2.204,-0.414 0.475,0 0.927,0 1.346,-0.002 -0.301,-0.115 -0.597,-0.25 -0.876,-0.41 H -4.43 c -0.319,-0.182 -0.625,-0.391 -0.913,-0.626 h 1.347 c -0.162,-0.13 -0.319,-0.269 -0.471,-0.416 h -1.345 c -0.203,-0.195 -0.392,-0.403 -0.573,-0.626 h 1.349 C -5.146,-2.628 -5.25,-2.768 -5.35,-2.908 H -6.697 C -6.839,-3.11 -6.969,-3.319 -7.09,-3.535 h 1.347 C -5.82,-3.672 -5.896,-3.81 -5.965,-3.951 h -1.347 c -0.097,-0.203 -0.189,-0.412 -0.269,-0.627 h 1.348 C -6.285,-4.713 -6.329,-4.854 -6.372,-4.994 H -7.721 C -7.784,-5.198 -7.84,-5.406 -7.887,-5.619 h 1.349 C -6.57,-5.758 -6.601,-5.896 -6.625,-6.035 H -7.973 C -8.007,-6.242 -8.038,-6.449 -8.059,-6.66 h 1.349 c -0.013,-0.138 -0.015,-0.277 -0.019,-0.416 h -1.347 c -0.005,-0.106 -0.015,-0.208 -0.015,-0.313 0,-0.106 0.01,-0.211 0.015,-0.314 h 1.347 c 0.004,-0.139 0.006,-0.279 0.019,-0.418 h -1.349 c 0.021,-0.209 0.052,-0.419 0.087,-0.625 h 1.347 c 0.024,-0.141 0.055,-0.277 0.087,-0.416 h -1.349 c 0.049,-0.213 0.103,-0.42 0.166,-0.626 h 1.349 c 0.043,-0.14 0.087,-0.278 0.139,-0.416 h -1.346 c 0.081,-0.214 0.17,-0.423 0.269,-0.625 h 1.346 c 0.068,-0.143 0.146,-0.278 0.222,-0.417 h -1.347 c 0.12,-0.216 0.251,-0.424 0.392,-0.625 h 1.348 c 0.1,-0.143 0.204,-0.282 0.314,-0.417 h -1.346 c 0.178,-0.22 0.369,-0.429 0.57,-0.626 h 1.348 c 0.151,-0.146 0.309,-0.285 0.47,-0.416 h -1.348 c 0.289,-0.233 0.594,-0.443 0.915,-0.624 h 1.347 c 0.28,-0.158 0.573,-0.294 0.873,-0.41 h -1.343 c 0.692,-0.263 1.429,-0.414 2.201,-0.414 0.227,0 0.45,0.014 0.67,0.038 0.222,-0.024 0.449,-0.038 0.678,-0.038 3.718,0 6.743,3.314 6.743,7.389 C 6.743,-3.316 3.718,0 0,0 m 0,-13.946 c -3.261,0 -5.912,2.942 -5.912,6.557 0,3.615 2.651,6.557 5.912,6.557 3.262,0 5.91,-2.942 5.91,-6.557 0,-3.615 -2.648,-6.557 -5.91,-6.557"
             style="fill:#000000;fill-opacity:1;fill-rule:nonzero;stroke:none"
             id="path668" />
        </g>
        <g
           id="g670"
           transform="translate(328.2566,671.1729)"
           style="fill:#000000;fill-opacity:1">
          <path
             d="m 0,0 c -3.027,0 -5.496,-2.754 -5.496,-6.141 0,-3.385 2.469,-6.14 5.496,-6.14 3.031,0 5.496,2.755 5.496,6.14 C 5.496,-2.754 3.031,0 0,0 M 4.751,-5.221 C 4.779,-5.367 4.702,-5.478 4.588,-5.498 4.576,-5.5 4.563,-5.501 4.553,-5.501 c -0.1,0 -0.188,0.071 -0.205,0.172 -10e-4,0.002 -0.007,0.046 -0.007,0.046 -0.018,0.115 0.059,0.221 0.174,0.237 0.115,0.016 0.218,-0.061 0.236,-0.175 m -0.214,0.883 c 0,0 0.015,-0.043 0.016,-0.045 0.034,-0.109 -0.029,-0.226 -0.137,-0.26 -0.021,-0.005 -0.042,-0.009 -0.062,-0.009 -0.089,0 -0.171,0.056 -0.2,0.146 -0.034,0.108 0.021,0.243 0.129,0.279 0.107,0.035 0.217,-0.004 0.254,-0.111 m -0.621,0.9 c 0.099,0.053 0.217,0.034 0.27,-0.067 0,-0.003 0.02,-0.04 0.02,-0.042 0.053,-0.102 0.011,-0.227 -0.092,-0.279 -0.03,-0.014 -0.062,-0.022 -0.093,-0.022 -0.075,0 -0.15,0.041 -0.186,0.116 -0.052,0.101 -0.02,0.244 0.081,0.294 M 2.096,-1.6 c 0.06,0.098 0.172,0.139 0.269,0.079 L 2.401,-1.544 C 2.497,-1.604 2.527,-1.731 2.467,-1.83 2.428,-1.893 2.36,-1.928 2.291,-1.928 c -0.039,0 -0.076,0.01 -0.109,0.032 -0.098,0.06 -0.147,0.199 -0.086,0.296 m -0.817,0.358 c 0.042,0.109 0.161,0.163 0.268,0.122 l 0.038,-0.015 c 0.109,-0.041 0.164,-0.16 0.122,-0.267 -0.03,-0.084 -0.111,-0.135 -0.193,-0.135 -0.026,0 -0.05,0.004 -0.074,0.013 L 1.399,-1.51 c -0.106,0.04 -0.16,0.16 -0.12,0.268 m -0.618,0.353 c 0.001,-0.002 0.044,-0.007 0.045,-0.007 0.114,-0.02 0.19,-0.127 0.172,-0.241 -0.019,-0.101 -0.107,-0.174 -0.206,-0.174 -0.011,0 -0.023,0 -0.034,0.003 -0.113,0.02 -0.209,0.127 -0.192,0.241 0.018,0.112 0.105,0.194 0.215,0.178 m -0.91,0.042 c 0.001,0 0.043,0.002 0.043,0.002 0.13,0.011 0.21,-0.083 0.218,-0.198 0.006,-0.115 -0.086,-0.213 -0.199,-0.217 h -0.008 c -0.114,0 -0.225,0.084 -0.23,0.196 -0.006,0.113 0.06,0.21 0.176,0.217 M -1.153,-0.99 c 0,0 0.035,0.008 0.035,0.009 0.113,0.03 0.228,-0.037 0.257,-0.148 0.03,-0.111 -0.032,-0.223 -0.143,-0.253 -0.019,-0.005 -0.04,-0.007 -0.058,-0.007 -0.094,0 -0.191,0.057 -0.216,0.151 -0.029,0.109 0.014,0.217 0.125,0.248 m -0.849,-0.322 0.037,0.017 c 0.104,0.051 0.228,0.008 0.278,-0.094 0.051,-0.103 0.007,-0.228 -0.095,-0.279 -0.03,-0.016 -0.067,-0.023 -0.103,-0.023 -0.079,0 -0.158,0.039 -0.194,0.109 -0.051,0.103 -0.025,0.219 0.077,0.27 m -0.773,-0.487 0.035,0.029 c 0.094,0.069 0.223,0.05 0.292,-0.043 0.068,-0.091 0.051,-0.222 -0.043,-0.291 -0.04,-0.032 -0.093,-0.048 -0.145,-0.048 -0.062,0 -0.122,0.024 -0.162,0.074 -0.069,0.09 -0.068,0.209 0.023,0.279 m -1.628,-2.146 0.018,0.041 c 0.044,0.106 0.168,0.155 0.273,0.11 0.105,-0.046 0.155,-0.169 0.11,-0.273 -0.035,-0.084 -0.123,-0.145 -0.213,-0.145 -0.022,0 -0.044,0.004 -0.066,0.014 -0.108,0.044 -0.165,0.147 -0.122,0.253 m -0.278,-0.859 0.009,0.04 c 0.028,0.113 0.141,0.18 0.252,0.155 0.111,-0.028 0.181,-0.139 0.154,-0.252 l -0.009,-0.041 c -0.024,-0.094 -0.11,-0.159 -0.204,-0.159 -0.015,0 -0.032,0.002 -0.049,0.006 -0.111,0.026 -0.179,0.14 -0.153,0.251 m -0.133,-0.849 c 0.008,0.113 0.108,0.199 0.223,0.188 0.115,-0.01 0.201,-0.111 0.189,-0.225 -0.007,-0.109 -0.103,-0.21 -0.209,-0.21 h -0.016 c -0.113,0.009 -0.2,0.088 -0.19,0.202 0,0.001 0.003,0.044 0.003,0.045 M -4.817,-6.6 -4.82,-6.559 c -0.008,0.115 0.078,0.215 0.192,0.223 0.113,0.011 0.214,-0.076 0.223,-0.191 0.009,-0.116 -0.075,-0.237 -0.192,-0.245 h -0.017 c -0.108,0 -0.196,0.065 -0.203,0.172 m 0.328,-1.033 c -0.088,0 -0.164,0.047 -0.186,0.139 0,0.002 -0.01,0.042 -0.012,0.044 -0.024,0.111 0.044,0.223 0.158,0.249 0.111,0.027 0.223,-0.045 0.248,-0.158 0.027,-0.112 -0.039,-0.243 -0.15,-0.269 -0.019,-0.005 -0.038,-0.005 -0.058,-0.005 m 0.357,-0.813 c -0.031,-0.013 -0.062,-0.021 -0.092,-0.021 -0.075,0 -0.139,0.039 -0.169,0.113 -0.001,10e-4 -0.017,0.041 -0.017,0.041 -0.046,0.106 0.006,0.227 0.111,0.272 0.108,0.043 0.23,-0.009 0.274,-0.115 0.044,-0.106 0,-0.246 -0.107,-0.29 m 0.442,-0.776 c -0.035,-0.02 -0.074,-0.032 -0.111,-0.032 -0.07,0 -0.136,0.035 -0.176,0.099 l -0.02,0.032 c -0.063,0.098 -0.035,0.225 0.062,0.287 0.098,0.062 0.225,0.035 0.288,-0.062 0,0 0.023,-0.038 0.024,-0.039 0.06,-0.098 0.029,-0.225 -0.067,-0.285 m 0.072,5.89 c -0.041,-0.064 -0.119,-0.104 -0.195,-0.104 -0.035,0 -0.069,0.01 -0.101,0.03 -0.094,0.06 -0.135,0.17 -0.073,0.266 10e-4,0.001 0.025,0.039 0.026,0.042 0.064,0.095 0.193,0.119 0.288,0.055 0.095,-0.064 0.12,-0.194 0.055,-0.289 m 0.47,-6.544 c -0.042,-0.04 -0.097,-0.062 -0.147,-0.062 -0.049,0 -0.096,0.018 -0.133,0.059 l -0.027,0.031 c -0.078,0.086 -0.072,0.217 0.015,0.294 0.085,0.077 0.215,0.07 0.294,-0.015 0.077,-0.085 0.083,-0.232 -0.002,-0.307 m 0.043,7.212 c -0.045,-0.05 -0.114,-0.076 -0.177,-0.076 -0.047,0 -0.095,0.013 -0.131,0.047 -0.085,0.076 -0.105,0.193 -0.027,0.279 l 0.027,0.031 c 0.079,0.084 0.21,0.09 0.294,0.013 0.086,-0.078 0.092,-0.21 0.014,-0.294 m 0.636,-7.792 c -0.043,-0.053 -0.104,-0.08 -0.164,-0.08 -0.045,0 -0.092,0.015 -0.128,0.043 l -0.031,0.024 c -0.09,0.07 -0.11,0.199 -0.041,0.291 0.069,0.092 0.2,0.11 0.291,0.041 0,0 0.035,-0.026 0.036,-0.027 0.09,-0.069 0.109,-0.201 0.037,-0.292 m 0.742,-0.415 c -0.037,-0.075 -0.105,-0.123 -0.177,-0.123 -0.028,0 -0.055,0.006 -0.081,0.02 l -0.037,0.019 c -0.104,0.051 -0.146,0.175 -0.096,0.277 0.051,0.104 0.176,0.146 0.279,0.096 0.102,-0.051 0.163,-0.185 0.112,-0.289 m 0.849,-0.276 c -0.026,-0.093 -0.11,-0.154 -0.202,-0.154 -0.019,0 -0.035,0.002 -0.054,0.007 l -0.035,0.01 c -0.111,0.027 -0.18,0.138 -0.152,0.251 0.026,0.111 0.139,0.177 0.251,0.153 0.002,-10e-4 0.044,-0.012 0.046,-0.013 0.11,-0.029 0.176,-0.144 0.146,-0.254 m 0.658,-0.287 h -0.012 l -0.035,0.002 c -0.115,0.004 -0.206,0.1 -0.203,0.215 0.004,0.115 0.108,0.197 0.214,0.201 0.003,0 0.049,-0.003 0.05,-0.003 0.113,-0.006 0.202,-0.104 0.194,-0.219 -0.006,-0.11 -0.098,-0.196 -0.208,-0.196 m 0.9,0.047 c 0,0 -0.058,-0.008 -0.072,-0.008 -0.099,0 -0.186,0.071 -0.204,0.172 -0.02,0.112 0.054,0.221 0.168,0.242 0.003,0 0.045,0.007 0.048,0.007 0.112,0.013 0.219,-0.062 0.234,-0.176 0.019,-0.114 -0.06,-0.219 -0.174,-0.237 m 0.883,0.235 c -0.025,-0.01 -0.085,-0.028 -0.112,-0.028 -0.082,0 -0.161,0.05 -0.193,0.133 -0.041,0.108 0.013,0.228 0.119,0.27 l 0.04,0.013 c 0.107,0.043 0.229,-0.013 0.269,-0.121 0.04,-0.107 -0.014,-0.226 -0.123,-0.267 m 0.818,0.405 -0.036,-0.023 c -0.035,-0.021 -0.072,-0.031 -0.11,-0.031 -0.069,0 -0.137,0.034 -0.177,0.098 -0.062,0.097 -0.031,0.226 0.067,0.287 0.097,0.06 0.242,0.042 0.304,-0.057 0.061,-0.096 0.05,-0.215 -0.048,-0.274 m -0.34,2.343 c -0.062,0 -0.117,0.053 -0.131,0.101 L 1.507,-5.736 H 1.486 l -1.2,-2.661 C 0.275,-8.438 0.233,-8.473 0.171,-8.473 H 0.049 c -0.062,0 -0.097,0.035 -0.117,0.076 L -1.28,-5.736 H -1.3 l -0.396,-2.567 c -0.007,-0.048 -0.063,-0.101 -0.125,-0.101 h -0.614 c -0.09,0 -0.145,0.06 -0.132,0.155 l 0.816,4.552 c 0.006,0.054 0.048,0.101 0.122,0.101 h 0.111 c 0.053,0 0.096,-0.027 0.117,-0.068 l 1.505,-3.197 h 0.02 l 1.506,3.197 c 0.021,0.041 0.056,0.068 0.116,0.068 h 0.108 c 0.078,0 0.119,-0.047 0.125,-0.101 L 2.785,-8.249 C 2.806,-8.344 2.753,-8.404 2.664,-8.404 Z m 1.062,-1.791 -0.027,-0.026 c -0.042,-0.038 -0.094,-0.056 -0.145,-0.056 -0.054,0 -0.108,0.02 -0.15,0.063 -0.08,0.083 -0.076,0.216 0.004,0.294 l 0.034,0.031 c 0.087,0.078 0.219,0.073 0.294,-0.012 0.08,-0.084 0.074,-0.216 -0.01,-0.294 m 0.028,7.799 C 3.089,-2.438 3.033,-2.461 2.979,-2.461 c -0.051,0 -0.102,0.02 -0.143,0.057 -0.083,0.078 -0.102,0.224 -0.025,0.308 0.078,0.083 0.193,0.102 0.278,0.026 0.002,0 0.032,-0.03 0.032,-0.032 0.084,-0.078 0.089,-0.21 0.01,-0.294 M 3.711,-9.523 3.69,-9.551 C 3.65,-9.606 3.586,-9.638 3.523,-9.638 c -0.042,0 -0.086,0.013 -0.123,0.04 -0.093,0.067 -0.115,0.197 -0.048,0.289 l 0.031,0.04 c 0.071,0.092 0.2,0.109 0.291,0.037 0.091,-0.07 0.107,-0.201 0.037,-0.291 m -0.029,6.455 c -0.036,-0.028 -0.08,-0.04 -0.121,-0.04 -0.064,0 -0.129,0.028 -0.168,0.085 -0.072,0.09 -0.067,0.236 0.023,0.306 0.092,0.071 0.213,0.069 0.283,-0.022 l 0.029,-0.04 C 3.796,-2.871 3.774,-3 3.682,-3.068 M 4.193,-8.756 4.18,-8.786 C 4.144,-8.86 4.068,-8.903 3.992,-8.903 c -0.03,0 -0.062,0.007 -0.09,0.02 -0.106,0.051 -0.147,0.175 -0.097,0.277 l 0.021,0.045 c 0.056,0.102 0.181,0.139 0.282,0.086 0.101,-0.054 0.14,-0.179 0.085,-0.281 m 0.339,0.802 c -0.028,-0.091 -0.108,-0.149 -0.2,-0.149 -0.02,0 -0.04,0.003 -0.059,0.009 -0.111,0.033 -0.173,0.151 -0.139,0.26 0,0.002 0.014,0.044 0.015,0.046 0.038,0.108 0.154,0.167 0.263,0.13 0.109,-0.037 0.192,-0.166 0.12,-0.296 m 0.214,0.868 C 4.729,-7.187 4.641,-7.258 4.542,-7.258 c -0.013,0 -0.025,0.002 -0.038,0.004 -0.111,0.022 -0.188,0.129 -0.167,0.242 0.02,0.112 0.13,0.208 0.241,0.19 0.112,-0.02 0.193,-0.104 0.176,-0.216 0,-0.002 -0.006,-0.046 -0.008,-0.048 m -0.132,0.718 c -0.114,0 -0.208,0.073 -0.208,0.188 v 0.061 c 0,0.113 0.094,0.207 0.208,0.207 0.115,0 0.209,-0.094 0.209,-0.207 v -0.02 c 0,-0.116 -0.094,-0.229 -0.209,-0.229"
             style="fill:#000000;fill-opacity:1;fill-rule:nonzero;stroke:none"
             id="path672" />
        </g>
      </g>
    </g>
  </g>
</svg>
