<?xml version="1.0" encoding="UTF-8" standalone="no"?>
<!-- Created with Inkscape (http://www.inkscape.org/) -->

<svg
   width="6.9366722mm"
   height="6.8625789mm"
   viewBox="0 0 6.9366723 6.8625788"
   version="1.1"
   id="svg1422"
   inkscape:version="1.2.2 (b0a8486541, 2022-12-01)"
   sodipodi:docname="disk-assistant.svg"
   xmlns:inkscape="http://www.inkscape.org/namespaces/inkscape"
   xmlns:sodipodi="http://sodipodi.sourceforge.net/DTD/sodipodi-0.dtd"
   xmlns="http://www.w3.org/2000/svg"
   xmlns:svg="http://www.w3.org/2000/svg">
  <sodipodi:namedview
     id="namedview1424"
     pagecolor="#ffffff"
     bordercolor="#666666"
     borderopacity="1.0"
     inkscape:showpageshadow="2"
     inkscape:pageopacity="0.0"
     inkscape:pagecheckerboard="0"
     inkscape:deskcolor="#d1d1d1"
     inkscape:document-units="mm"
     showgrid="false"
     inkscape:zoom="23.94738"
     inkscape:cx="11.379115"
     inkscape:cy="13.091202"
     inkscape:window-width="1920"
     inkscape:window-height="1020"
     inkscape:window-x="0"
     inkscape:window-y="32"
     inkscape:window-maximized="1"
     inkscape:current-layer="layer1" />
  <defs
     id="defs1419">
    <clipPath
       clipPathUnits="userSpaceOnUse"
       id="clipPath1585">
      <g
         id="g1589"
         transform="translate(-334.9748,-688.4194)">
        <path
           d="M 0,0 H 609.449 V 793.701 H 0 Z"
           id="path1587" />
      </g>
    </clipPath>
    <clipPath
       clipPathUnits="userSpaceOnUse"
       id="clipPath664">
      <path
         d="M 0,0 H 609.449 V 793.701 H 0 Z"
         id="path662" />
    </clipPath>
    <clipPath
       clipPathUnits="userSpaceOnUse"
       id="clipPath8157">
      <g
         id="g8161"
         transform="translate(-35.6922,-487.1561)">
        <path
           d="M 0,0 H 609.449 V 793.701 H 0 Z"
           id="path8159" />
      </g>
    </clipPath>
    <clipPath
       clipPathUnits="userSpaceOnUse"
       id="clipPath8151">
      <g
         id="g8155"
         transform="translate(-49.3377,-487.6971)">
        <path
           d="M 0,0 H 609.449 V 793.701 H 0 Z"
           id="path8153" />
      </g>
    </clipPath>
    <clipPath
       clipPathUnits="userSpaceOnUse"
       id="clipPath8145">
      <g
         id="g8149"
         transform="translate(-48.1717,-487.4276)">
        <path
           d="M 0,0 H 609.449 V 793.701 H 0 Z"
           id="path8147" />
      </g>
    </clipPath>
    <clipPath
       clipPathUnits="userSpaceOnUse"
       id="clipPath8139">
      <g
         id="g8143"
         transform="translate(-44.366,-492.3475)">
        <path
           d="M 0,0 H 609.449 V 793.701 H 0 Z"
           id="path8141" />
      </g>
    </clipPath>
    <clipPath
       clipPathUnits="userSpaceOnUse"
       id="clipPath8133">
      <g
         id="g8137"
         transform="translate(-46.6092,-491.7586)">
        <path
           d="M 0,0 H 609.449 V 793.701 H 0 Z"
           id="path8135" />
      </g>
    </clipPath>
    <clipPath
       clipPathUnits="userSpaceOnUse"
       id="clipPath8205">
      <g
         id="g8209"
         transform="translate(-45.1531,-464.5486)">
        <path
           d="M 0,0 H 609.449 V 793.701 H 0 Z"
           id="path8207" />
      </g>
    </clipPath>
    <clipPath
       clipPathUnits="userSpaceOnUse"
       id="clipPath8199">
      <g
         id="g8203"
         transform="translate(-42.3514,-462.9236)">
        <path
           d="M 0,0 H 609.449 V 793.701 H 0 Z"
           id="path8201" />
      </g>
    </clipPath>
    <clipPath
       clipPathUnits="userSpaceOnUse"
       id="clipPath8193">
      <g
         id="g8197"
         transform="translate(-49.6453,-468.3768)">
        <path
           d="M 0,0 H 609.449 V 793.701 H 0 Z"
           id="path8195" />
      </g>
    </clipPath>
    <clipPath
       clipPathUnits="userSpaceOnUse"
       id="clipPath8187">
      <g
         id="g8191"
         transform="translate(-45.8172,-467.1014)">
        <path
           d="M 0,0 H 609.449 V 793.701 H 0 Z"
           id="path8189" />
      </g>
    </clipPath>
    <clipPath
       clipPathUnits="userSpaceOnUse"
       id="clipPath8181">
      <g
         id="g8185"
         transform="translate(-45.9627,-464.6209)">
        <path
           d="M 0,0 H 609.449 V 793.701 H 0 Z"
           id="path8183" />
      </g>
    </clipPath>
    <clipPath
       clipPathUnits="userSpaceOnUse"
       id="clipPath8175">
      <g
         id="g8179"
         transform="translate(-44.1717,-464.3133)">
        <path
           d="M 0,0 H 609.449 V 793.701 H 0 Z"
           id="path8177" />
      </g>
    </clipPath>
    <clipPath
       clipPathUnits="userSpaceOnUse"
       id="clipPath8169">
      <g
         id="g8173"
         transform="translate(-41.0057,-463.2869)">
        <path
           d="M 0,0 H 609.449 V 793.701 H 0 Z"
           id="path8171" />
      </g>
    </clipPath>
    <clipPath
       clipPathUnits="userSpaceOnUse"
       id="clipPath8163">
      <g
         id="g8167"
         transform="translate(-40.7899,-456.6121)">
        <path
           d="M 0,0 H 609.449 V 793.701 H 0 Z"
           id="path8165" />
      </g>
    </clipPath>
  </defs>
  <g
     inkscape:label="Layer 1"
     inkscape:groupmode="layer"
     id="layer1"
     transform="translate(-79.318416,-134.20858)">
    <path
       style="color:#000000;fill:#000000;stroke-linecap:round;stroke-linejoin:round;stroke-miterlimit:10;-inkscape-stroke:none;stroke:none;fill-opacity:1"
       d="m 82.787109,134.20898 c -1.90312,0 -3.46875,1.27909 -3.46875,2.8711 0,1.59268 1.565641,2.87109 3.46875,2.87109 1.902765,0 3.46875,-1.27841 3.46875,-2.87109 0,-1.59201 -1.565974,-2.8711 -3.46875,-2.8711 z m 0,0.17579 c 1.823965,0 3.291016,1.21956 3.291016,2.69531 0,1.47647 -1.46704,2.69336 -3.291016,2.69336 -1.824336,0 -3.292968,-1.21689 -3.292968,-2.69336 0,-1.47575 1.468643,-2.69531 3.292968,-2.69531 z"
       id="path8287" />
    <path
       style="color:#000000;fill:#000000;stroke-linecap:round;stroke-linejoin:round;stroke-miterlimit:10;-inkscape-stroke:none;stroke:none;fill-opacity:1"
       d="m 79.40625,136.99609 a 0.0881945,0.0881945 0 0 0 -0.08789,0.0879 v 1.19532 a 0.08820332,0.08820332 0 0 0 0,0.004 c 0.06661,1.55708 1.59844,2.78711 3.464844,2.78711 1.866059,0 3.397148,-1.2301 3.464844,-2.78711 a 0.08820332,0.08820332 0 0 0 0.002,-0.002 l 0.0059,-1.19727 a 0.0881945,0.0881945 0 0 0 -0.08789,-0.0879 0.0881945,0.0881945 0 0 0 -0.08984,0.0879 l -0.0059,1.19141 c -0.06283,1.44513 -1.500347,2.61914 -3.289063,2.61914 -1.789076,0 -3.227248,-1.17408 -3.289062,-2.61914 v -1.19141 a 0.0881945,0.0881945 0 0 0 -0.08789,-0.0879 z"
       id="path8285" />
    <g
       id="g478"
       transform="matrix(0.35277777,0,0,-0.35277777,82.770699,136.74402)"
       clip-path="url(#clipPath8205)"
       style="fill:#000000;fill-opacity:1;stroke:none">
      <path
         d="M 0,0 C 0.059,0.016 0.116,0.033 0.172,0.053 0.184,0.057 0.194,0.061 0.206,0.062 0.233,0.074 0.263,0.086 0.29,0.096 0.308,0.103 0.323,0.109 0.341,0.117 0.364,0.128 0.389,0.139 0.413,0.15 0.447,0.164 0.48,0.183 0.512,0.199 0.528,0.207 0.542,0.216 0.557,0.225 0.58,0.237 0.598,0.25 0.617,0.262 0.63,0.27 0.642,0.277 0.653,0.285 0.681,0.305 0.705,0.322 0.726,0.34 0.776,0.385 0.81,0.426 0.816,0.459 0.791,0.687 0.639,1.464 0.639,1.464 c 0,0 -0.122,0.782 -0.178,1.006 C 0.456,2.48 0.44,2.492 0.427,2.502 0.412,2.514 0.393,2.522 0.372,2.532 0.37,2.533 0.368,2.533 0.367,2.535 0.345,2.544 0.321,2.555 0.293,2.563 H 0.292 C 0.284,2.566 0.274,2.568 0.265,2.571 H 0.264 C 0.241,2.578 0.218,2.583 0.19,2.59 H 0.189 C 0.185,2.59 0.178,2.591 0.172,2.594 0.098,2.607 0.019,2.619 -0.073,2.626 h -0.001 c -0.1,0.007 -0.207,0.008 -0.319,10e-4 H -0.394 C -0.45,2.623 -0.507,2.617 -0.566,2.609 -0.621,2.596 -0.677,2.583 -0.73,2.566 -0.809,2.544 -0.884,2.518 -0.952,2.49 -0.953,2.49 -0.954,2.488 -0.955,2.488 -0.966,2.484 -0.977,2.48 -0.986,2.475 -1.026,2.459 -1.064,2.441 -1.1,2.425 L -1.102,2.424 C -1.122,2.414 -1.14,2.405 -1.159,2.395 h -0.002 c -0.036,-0.02 -0.069,-0.04 -0.1,-0.059 -0.003,0 -0.004,-0.002 -0.007,-0.004 H -1.269 C -1.36,2.273 -1.428,2.217 -1.46,2.17 -1.471,2.154 -1.479,2.139 -1.479,2.127 c 0.022,-0.229 0.175,-1.006 0.175,-1.006 0,0 0.123,-0.782 0.177,-1.005 0.018,-0.029 0.065,-0.057 0.129,-0.082 0.024,-0.009 0.054,-0.017 0.083,-0.024 0.015,-0.005 0.028,-0.008 0.043,-0.012 0.021,-0.004 0.044,-0.01 0.067,-0.013 0.018,-0.003 0.034,-0.006 0.053,-0.009 0.034,-0.005 0.072,-0.009 0.109,-0.013 0.027,-0.002 0.054,-0.004 0.082,-0.005 0.017,-10e-4 0.035,-10e-4 0.051,-0.003 0.031,0 0.061,-0.002 0.093,-0.002 0.011,0.002 0.022,0.002 0.032,0.002 0.061,0.002 0.122,0.004 0.184,0.01 0.013,0.002 0.024,0.002 0.037,0.004 0.021,0.002 0.043,0.004 0.063,0.006 0.023,0.005 0.042,0.011 0.064,0.017 V -0.01 C -0.024,-0.006 -0.014,-0.003 0,0"
         style="fill:#000000;fill-opacity:1;fill-rule:nonzero;stroke:none"
         id="path480" />
    </g>
    <g
       id="g482"
       transform="matrix(0.35277777,0,0,-0.35277777,81.782321,137.31728)"
       clip-path="url(#clipPath8199)"
       style="fill:#000000;fill-opacity:1;stroke:none">
      <path
         d="M 0,0 C 0.077,0.043 0.15,0.086 0.221,0.129 0.244,0.143 0.268,0.157 0.289,0.171 0.343,0.205 0.394,0.24 0.445,0.273 0.457,0.283 0.471,0.293 0.482,0.301 0.536,0.339 0.591,0.375 0.641,0.413 1.318,0.916 1.617,1.378 1.681,1.477 1.596,1.516 1.527,1.566 1.488,1.63 L 1.474,1.658 1.468,1.674 C 1.074,1.251 0.217,0.537 -1.311,0.205 L -1.407,0.184 -1.469,0.26 -1.511,0.308 C -1.758,0.598 -2.218,1.137 -2.393,2.21 -2.52,2.873 -2.471,3.382 -2.385,3.756 -2.417,3.752 -2.448,3.748 -2.48,3.742 -2.626,3.717 -2.777,3.686 -2.931,3.65 -2.997,3.246 -3.18,2.441 -2.647,1.249 c 0.464,-1.126 1.132,-1.569 1.431,-1.792 0.118,0.041 0.23,0.083 0.338,0.125 0.034,0.015 0.068,0.029 0.104,0.043 0.072,0.029 0.14,0.059 0.209,0.09 0.038,0.017 0.077,0.033 0.113,0.053 0.061,0.027 0.119,0.056 0.176,0.085 0.039,0.018 0.076,0.036 0.11,0.055 C -0.108,-0.062 -0.055,-0.031 0,0"
         style="fill:#000000;fill-opacity:1;fill-rule:nonzero;stroke:none"
         id="path484" />
    </g>
    <g
       id="g486"
       transform="matrix(0.35277777,0,0,-0.35277777,84.355447,135.39352)"
       clip-path="url(#clipPath8193)"
       style="fill:#000000;fill-opacity:1;stroke:none">
      <path
         d="M 0,0 C -0.156,-0.019 -0.309,-0.042 -0.457,-0.068 -0.489,-0.073 -0.518,-0.08 -0.55,-0.087 -0.34,-0.409 -0.123,-0.868 -0.017,-1.533 0.187,-2.604 -0.06,-3.27 -0.194,-3.627 l -0.02,-0.06 -0.034,-0.092 -0.099,-0.012 c -1.548,-0.211 -2.596,0.166 -3.112,0.43 l 10e-4,-0.018 -0.005,-0.031 c -0.015,-0.073 -0.06,-0.145 -0.128,-0.211 0.094,-0.07 0.533,-0.401 1.346,-0.645 0.056,-0.017 0.116,-0.031 0.177,-0.048 0.018,-0.005 0.037,-0.01 0.055,-0.014 0.057,-0.016 0.117,-0.028 0.175,-0.043 0.027,-0.004 0.056,-0.012 0.084,-0.017 0.08,-0.016 0.165,-0.032 0.253,-0.047 0.059,-0.009 0.117,-0.018 0.181,-0.026 0.04,-0.007 0.083,-0.012 0.126,-0.016 0.063,-0.007 0.125,-0.015 0.19,-0.021 0.043,-0.002 0.084,-0.006 0.128,-0.01 0.073,-0.005 0.147,-0.009 0.223,-0.013 0.039,0 0.075,-0.002 0.115,-0.004 0.115,-0.002 0.234,-0.004 0.359,-0.002 0.205,0.312 0.681,0.958 0.732,2.173 C 0.647,-1.052 0.199,-0.357 0,0"
         style="fill:#000000;fill-opacity:1;fill-rule:nonzero;stroke:none"
         id="path488" />
    </g>
    <g
       id="g490"
       transform="matrix(0.35277777,0,0,-0.35277777,83.004979,135.84345)"
       clip-path="url(#clipPath8187)"
       style="fill:#000000;fill-opacity:1;stroke:none">
      <path
         d="M 0,0 0.008,-0.033 C 0.039,-0.158 0.09,-0.447 0.129,-0.686 0.445,-0.345 1.239,-0.078 1.754,0.025 1.807,0.029 1.842,0.004 1.85,-0.039 1.857,-0.083 1.83,-0.126 1.787,-0.134 1.092,-0.273 0.273,-0.625 0.168,-0.918 c 0.003,-0.025 0.008,-0.047 0.01,-0.065 0.013,-0.05 0.036,-0.093 0.074,-0.124 0.196,-0.166 0.753,-0.205 1.651,-0.116 0.045,0.005 0.085,-0.028 0.089,-0.072 0.006,-0.043 -0.025,-0.082 -0.067,-0.089 -0.001,0 -0.002,-0.001 -0.005,-0.001 -0.87,-0.088 -1.411,-0.056 -1.686,0.096 0.035,-0.178 0.078,-0.418 0.108,-0.599 0.336,-0.19 1.4,-0.7 3.118,-0.466 0.119,0.321 0.4,0.975 0.192,2.066 C 3.542,0.387 3.314,0.843 3.105,1.154 3.079,1.19 3.055,1.223 3.031,1.256 2.93,1.395 2.834,1.506 2.766,1.586 2.649,1.561 2.537,1.533 2.43,1.504 2.394,1.494 2.361,1.484 2.327,1.474 2.256,1.453 2.184,1.433 2.116,1.41 2.078,1.397 2.043,1.385 2.008,1.372 1.944,1.35 1.883,1.328 1.824,1.307 1.789,1.293 1.756,1.279 1.722,1.264 1.664,1.241 1.608,1.218 1.557,1.194 1.524,1.18 1.493,1.165 1.464,1.15 1.409,1.127 1.357,1.101 1.309,1.076 1.279,1.062 1.253,1.047 1.225,1.033 1.176,1.007 1.127,0.979 1.081,0.952 1.058,0.939 1.035,0.926 1.013,0.913 0.964,0.885 0.917,0.855 0.872,0.826 0.853,0.816 0.836,0.804 0.819,0.792 0.771,0.76 0.725,0.729 0.681,0.697 0.67,0.688 0.657,0.681 0.646,0.673 0.596,0.636 0.545,0.6 0.5,0.561 0.498,0.56 0.495,0.558 0.494,0.557 0.395,0.479 0.311,0.404 0.238,0.336 0.23,0.326 0.223,0.32 0.214,0.312 0.189,0.289 0.166,0.264 0.146,0.242 0.132,0.229 0.118,0.217 0.107,0.203 0.093,0.189 0.079,0.174 0.067,0.162 0.053,0.146 0.039,0.131 0.025,0.117 0.021,0.109 0.016,0.104 0.009,0.097 -0.006,0.08 -0.021,0.062 -0.032,0.048 -0.026,0.041 -0.021,0.035 -0.017,0.027 Z"
         style="fill:#000000;fill-opacity:1;fill-rule:nonzero;stroke:none"
         id="path492" />
    </g>
    <g
       id="g494"
       transform="matrix(0.35277777,0,0,-0.35277777,83.056308,136.71852)"
       clip-path="url(#clipPath8181)"
       style="fill:#000000;fill-opacity:1;stroke:none">
      <path
         d="m 0,0 -0.01,0.006 -0.029,0.022 c -0.194,-0.133 -0.463,-0.24 -0.698,-0.303 0.56,-0.993 1.389,-2.459 1.527,-2.702 0.747,0.132 0.318,1.385 0.318,1.385 0,0 0.899,-0.801 1.473,-0.318 C 2.463,-1.77 2.063,-1.28 1.612,-0.727 0.771,-0.511 0.244,-0.182 0,0"
         style="fill:#000000;fill-opacity:1;fill-rule:nonzero;stroke:none"
         id="path496" />
    </g>
    <g
       id="g498"
       transform="matrix(0.35277777,0,0,-0.35277777,82.424483,136.82703)"
       clip-path="url(#clipPath8175)"
       style="fill:#000000;fill-opacity:1;stroke:none">
      <path
         d="m 0,0 -0.007,-0.009 c -0.168,-0.254 -0.552,-0.744 -1.265,-1.234 -0.236,-0.677 -0.444,-1.271 -0.507,-1.444 0.705,-0.257 1.274,0.801 1.274,0.801 0,0 0.027,-1.322 0.774,-1.189 0.047,0.273 0.325,1.934 0.511,3.058 C 0.536,-0.037 0.249,-0.028 0.022,0.03 Z"
         style="fill:#000000;fill-opacity:1;fill-rule:nonzero;stroke:none"
         id="path500" />
    </g>
    <g
       id="g502"
       transform="matrix(0.35277777,0,0,-0.35277777,81.307588,137.18912)"
       clip-path="url(#clipPath8169)"
       style="fill:#000000;fill-opacity:1;stroke:none">
      <path
         d="M 0,0 C 1.696,0.369 2.518,1.213 2.771,1.508 2.737,1.687 2.696,1.929 2.669,2.105 2.461,1.869 1.964,1.656 1.117,1.44 1.113,1.439 1.112,1.439 1.111,1.439 1.069,1.431 1.027,1.457 1.018,1.498 1.007,1.543 1.033,1.586 1.077,1.598 1.952,1.82 2.461,2.047 2.59,2.269 2.615,2.316 2.622,2.361 2.616,2.414 2.613,2.432 2.608,2.453 2.603,2.479 2.404,2.717 1.515,2.768 0.814,2.66 0.771,2.652 0.728,2.684 0.723,2.729 0.716,2.772 0.744,2.81 0.791,2.821 1.31,2.9 2.147,2.921 2.56,2.708 2.516,2.947 2.465,3.236 2.45,3.365 L 2.447,3.397 2.453,3.43 C 2.456,3.438 2.458,3.445 2.46,3.453 2.445,3.463 2.425,3.474 2.404,3.484 2.397,3.488 2.392,3.493 2.385,3.496 2.366,3.506 2.349,3.516 2.329,3.527 2.313,3.534 2.296,3.543 2.278,3.551 2.263,3.561 2.247,3.567 2.228,3.576 2.2,3.589 2.171,3.604 2.14,3.617 2.129,3.622 2.119,3.626 2.107,3.631 2.018,3.67 1.913,3.711 1.793,3.752 1.791,3.752 1.788,3.754 1.784,3.754 1.729,3.772 1.67,3.791 1.609,3.809 1.597,3.813 1.582,3.816 1.569,3.818 1.517,3.835 1.463,3.848 1.407,3.861 1.386,3.867 1.366,3.871 1.345,3.875 1.292,3.888 1.238,3.899 1.183,3.909 1.158,3.914 1.132,3.918 1.104,3.923 1.054,3.934 0.997,3.941 0.941,3.949 0.911,3.953 0.882,3.957 0.851,3.961 0.795,3.968 0.737,3.974 0.679,3.979 0.645,3.982 0.611,3.986 0.576,3.987 0.52,3.992 0.457,3.994 0.397,3.998 c -0.037,0 -0.074,10e-4 -0.11,0.003 -0.063,10e-4 -0.129,0 -0.195,0 C 0.054,4 0.016,4 -0.023,3.999 -0.096,3.997 -0.169,3.992 -0.243,3.987 -0.279,3.984 -0.314,3.982 -0.35,3.98 -0.462,3.971 -0.576,3.959 -0.695,3.943 -0.73,3.844 -0.783,3.707 -0.831,3.539 -0.843,3.5 -0.854,3.463 -0.864,3.42 -0.956,3.055 -1.015,2.549 -0.887,1.877 -0.708,0.781 -0.221,0.264 0,0"
         style="fill:#000000;fill-opacity:1;fill-rule:nonzero;stroke:none"
         id="path504" />
    </g>
    <g
       id="g506"
       transform="matrix(0.35277777,0,0,-0.35277777,81.231459,139.54384)"
       clip-path="url(#clipPath8163)"
       style="stroke:none;fill:#000000;fill-opacity:1">
      <path
         style="color:#000000;fill:#000000;stroke:none;stroke-linecap:round;stroke-linejoin:round;stroke-miterlimit:10;-inkscape-stroke:none;fill-opacity:1"
         d="M -0.0703125,-0.24023438 A 0.25,0.25 0 0 0 -0.24023438,0.0703125 c 0.52115897,1.7609346 2.41970368,3.0253906 4.64843748,3.0253906 2.227622,0 4.1233479,-1.2615463 4.6445313,-3.02148435 A 0.25,0.25 0 0 0 8.8847656,-0.23632813 0.25,0.25 0 0 0 8.5742188,-0.06835937 C 8.1294031,1.4336993 6.4465769,2.5957031 4.4082031,2.5957031 c -2.0392619,0 -3.72312866,-1.1629535 -4.16796872,-2.6660156 A 0.25,0.25 0 0 0 -0.0703125,-0.24023438 Z"
         id="path508" />
    </g>
  </g>
</svg>
