<?xml version="1.0" encoding="UTF-8" standalone="no"?>
<!-- Created with Inkscape (http://www.inkscape.org/) -->

<svg
   width="5.4268241mm"
   height="5.1777191mm"
   viewBox="0 0 5.426824 5.177719"
   version="1.1"
   id="svg1422"
   inkscape:version="1.2.2 (b0a8486541, 2022-12-01)"
   sodipodi:docname="fame-threshold.svg"
   xmlns:inkscape="http://www.inkscape.org/namespaces/inkscape"
   xmlns:sodipodi="http://sodipodi.sourceforge.net/DTD/sodipodi-0.dtd"
   xmlns="http://www.w3.org/2000/svg"
   xmlns:svg="http://www.w3.org/2000/svg">
  <sodipodi:namedview
     id="namedview1424"
     pagecolor="#ffffff"
     bordercolor="#666666"
     borderopacity="1.0"
     inkscape:showpageshadow="2"
     inkscape:pageopacity="0.0"
     inkscape:pagecheckerboard="0"
     inkscape:deskcolor="#d1d1d1"
     inkscape:document-units="mm"
     showgrid="false"
     inkscape:zoom="17.910385"
     inkscape:cx="7.342109"
     inkscape:cy="6.281272"
     inkscape:window-width="1920"
     inkscape:window-height="1020"
     inkscape:window-x="0"
     inkscape:window-y="32"
     inkscape:window-maximized="1"
     inkscape:current-layer="layer1" />
  <defs
     id="defs1419">
    <clipPath
       clipPathUnits="userSpaceOnUse"
       id="clipPath1585">
      <g
         id="g1589"
         transform="translate(-334.9748,-688.4194)">
        <path
           d="M 0,0 H 609.449 V 793.701 H 0 Z"
           id="path1587" />
      </g>
    </clipPath>
    <clipPath
       clipPathUnits="userSpaceOnUse"
       id="clipPath664">
      <path
         d="M 0,0 H 609.449 V 793.701 H 0 Z"
         id="path662" />
    </clipPath>
    <clipPath
       clipPathUnits="userSpaceOnUse"
       id="clipPath8157">
      <g
         id="g8161"
         transform="translate(-35.6922,-487.1561)">
        <path
           d="M 0,0 H 609.449 V 793.701 H 0 Z"
           id="path8159" />
      </g>
    </clipPath>
    <clipPath
       clipPathUnits="userSpaceOnUse"
       id="clipPath8151">
      <g
         id="g8155"
         transform="translate(-49.3377,-487.6971)">
        <path
           d="M 0,0 H 609.449 V 793.701 H 0 Z"
           id="path8153" />
      </g>
    </clipPath>
    <clipPath
       clipPathUnits="userSpaceOnUse"
       id="clipPath8145">
      <g
         id="g8149"
         transform="translate(-48.1717,-487.4276)">
        <path
           d="M 0,0 H 609.449 V 793.701 H 0 Z"
           id="path8147" />
      </g>
    </clipPath>
    <clipPath
       clipPathUnits="userSpaceOnUse"
       id="clipPath8139">
      <g
         id="g8143"
         transform="translate(-44.366,-492.3475)">
        <path
           d="M 0,0 H 609.449 V 793.701 H 0 Z"
           id="path8141" />
      </g>
    </clipPath>
    <clipPath
       clipPathUnits="userSpaceOnUse"
       id="clipPath8133">
      <g
         id="g8137"
         transform="translate(-46.6092,-491.7586)">
        <path
           d="M 0,0 H 609.449 V 793.701 H 0 Z"
           id="path8135" />
      </g>
    </clipPath>
    <clipPath
       clipPathUnits="userSpaceOnUse"
       id="clipPath8205">
      <g
         id="g8209"
         transform="translate(-45.1531,-464.5486)">
        <path
           d="M 0,0 H 609.449 V 793.701 H 0 Z"
           id="path8207" />
      </g>
    </clipPath>
    <clipPath
       clipPathUnits="userSpaceOnUse"
       id="clipPath8199">
      <g
         id="g8203"
         transform="translate(-42.3514,-462.9236)">
        <path
           d="M 0,0 H 609.449 V 793.701 H 0 Z"
           id="path8201" />
      </g>
    </clipPath>
    <clipPath
       clipPathUnits="userSpaceOnUse"
       id="clipPath8193">
      <g
         id="g8197"
         transform="translate(-49.6453,-468.3768)">
        <path
           d="M 0,0 H 609.449 V 793.701 H 0 Z"
           id="path8195" />
      </g>
    </clipPath>
    <clipPath
       clipPathUnits="userSpaceOnUse"
       id="clipPath8187">
      <g
         id="g8191"
         transform="translate(-45.8172,-467.1014)">
        <path
           d="M 0,0 H 609.449 V 793.701 H 0 Z"
           id="path8189" />
      </g>
    </clipPath>
    <clipPath
       clipPathUnits="userSpaceOnUse"
       id="clipPath8181">
      <g
         id="g8185"
         transform="translate(-45.9627,-464.6209)">
        <path
           d="M 0,0 H 609.449 V 793.701 H 0 Z"
           id="path8183" />
      </g>
    </clipPath>
    <clipPath
       clipPathUnits="userSpaceOnUse"
       id="clipPath8175">
      <g
         id="g8179"
         transform="translate(-44.1717,-464.3133)">
        <path
           d="M 0,0 H 609.449 V 793.701 H 0 Z"
           id="path8177" />
      </g>
    </clipPath>
    <clipPath
       clipPathUnits="userSpaceOnUse"
       id="clipPath8169">
      <g
         id="g8173"
         transform="translate(-41.0057,-463.2869)">
        <path
           d="M 0,0 H 609.449 V 793.701 H 0 Z"
           id="path8171" />
      </g>
    </clipPath>
    <clipPath
       clipPathUnits="userSpaceOnUse"
       id="clipPath8163">
      <g
         id="g8167"
         transform="translate(-40.7899,-456.6121)">
        <path
           d="M 0,0 H 609.449 V 793.701 H 0 Z"
           id="path8165" />
      </g>
    </clipPath>
    <clipPath
       clipPathUnits="userSpaceOnUse"
       id="clipPath8157-3">
      <g
         id="g8161-6"
         transform="translate(-35.6922,-487.1561)">
        <path
           d="M 0,0 H 609.449 V 793.701 H 0 Z"
           id="path8159-7" />
      </g>
    </clipPath>
    <clipPath
       clipPathUnits="userSpaceOnUse"
       id="clipPath8151-5">
      <g
         id="g8155-3"
         transform="translate(-49.3377,-487.6971)">
        <path
           d="M 0,0 H 609.449 V 793.701 H 0 Z"
           id="path8153-5" />
      </g>
    </clipPath>
    <clipPath
       clipPathUnits="userSpaceOnUse"
       id="clipPath8145-6">
      <g
         id="g8149-2"
         transform="translate(-48.1717,-487.4276)">
        <path
           d="M 0,0 H 609.449 V 793.701 H 0 Z"
           id="path8147-9" />
      </g>
    </clipPath>
    <clipPath
       clipPathUnits="userSpaceOnUse"
       id="clipPath8139-1">
      <g
         id="g8143-2"
         transform="translate(-44.366,-492.3475)">
        <path
           d="M 0,0 H 609.449 V 793.701 H 0 Z"
           id="path8141-7" />
      </g>
    </clipPath>
    <clipPath
       clipPathUnits="userSpaceOnUse"
       id="clipPath8133-0">
      <g
         id="g8137-9"
         transform="translate(-46.6092,-491.7586)">
        <path
           d="M 0,0 H 609.449 V 793.701 H 0 Z"
           id="path8135-3" />
      </g>
    </clipPath>
    <clipPath
       clipPathUnits="userSpaceOnUse"
       id="clipPath13791">
      <g
         id="g13797">
        <g
           id="g13795">
          <path
             d="M 0,0 H 609.449 V 793.701 H 0 Z"
             id="path13793" />
        </g>
      </g>
    </clipPath>
    <clipPath
       clipPathUnits="userSpaceOnUse"
       id="clipPath13896">
      <g
         id="g13902">
        <g
           id="g13900">
          <path
             d="M 0,0 H 609.449 V 793.701 H 0 Z"
             id="path13898" />
        </g>
      </g>
    </clipPath>
    <clipPath
       clipPathUnits="userSpaceOnUse"
       id="clipPath13881">
      <g
         id="g13887">
        <g
           id="g13885">
          <path
             d="M 0,0 H 609.449 V 793.701 H 0 Z"
             id="path13883" />
        </g>
      </g>
    </clipPath>
    <clipPath
       clipPathUnits="userSpaceOnUse"
       id="clipPath13806">
      <g
         id="g13812">
        <g
           id="g13810">
          <path
             d="M 0,0 H 609.449 V 793.701 H 0 Z"
             id="path13808" />
        </g>
      </g>
    </clipPath>
    <clipPath
       clipPathUnits="userSpaceOnUse"
       id="clipPath13821">
      <g
         id="g13827">
        <g
           id="g13825">
          <path
             d="M 0,0 H 609.449 V 793.701 H 0 Z"
             id="path13823" />
        </g>
      </g>
    </clipPath>
    <clipPath
       clipPathUnits="userSpaceOnUse"
       id="clipPath13911">
      <g
         id="g13917">
        <g
           id="g13915">
          <path
             d="M 0,0 H 609.449 V 793.701 H 0 Z"
             id="path13913" />
        </g>
      </g>
    </clipPath>
    <clipPath
       clipPathUnits="userSpaceOnUse"
       id="clipPath13866">
      <g
         id="g13872">
        <g
           id="g13870">
          <path
             d="M 0,0 H 609.449 V 793.701 H 0 Z"
             id="path13868" />
        </g>
      </g>
    </clipPath>
    <clipPath
       clipPathUnits="userSpaceOnUse"
       id="clipPath13836">
      <g
         id="g13842">
        <g
           id="g13840">
          <path
             d="M 0,0 H 609.449 V 793.701 H 0 Z"
             id="path13838" />
        </g>
      </g>
    </clipPath>
    <clipPath
       clipPathUnits="userSpaceOnUse"
       id="clipPath13851">
      <g
         id="g13857">
        <g
           id="g13855">
          <path
             d="M 0,0 H 609.449 V 793.701 H 0 Z"
             id="path13853" />
        </g>
      </g>
    </clipPath>
    <clipPath
       clipPathUnits="userSpaceOnUse"
       id="clipPath14939">
      <g
         id="g14943"
         transform="translate(-47.6111,-413.5244)">
        <path
           d="M 0,0 H 609.449 V 793.701 H 0 Z"
           id="path14941" />
      </g>
    </clipPath>
    <clipPath
       clipPathUnits="userSpaceOnUse"
       id="clipPath14933">
      <g
         id="g14937"
         transform="translate(-44.3924,-420.7109)">
        <path
           d="M 0,0 H 609.449 V 793.701 H 0 Z"
           id="path14935" />
      </g>
    </clipPath>
    <clipPath
       clipPathUnits="userSpaceOnUse"
       id="clipPath14927">
      <g
         id="g14931"
         transform="translate(-35.4949,-416.7852)">
        <path
           d="M 0,0 H 609.449 V 793.701 H 0 Z"
           id="path14929" />
      </g>
    </clipPath>
    <clipPath
       clipPathUnits="userSpaceOnUse"
       id="clipPath14921">
      <g
         id="g14925"
         transform="translate(-46.6404,-393.3848)">
        <path
           d="M 0,0 H 609.449 V 793.701 H 0 Z"
           id="path14923" />
      </g>
    </clipPath>
    <clipPath
       clipPathUnits="userSpaceOnUse"
       id="clipPath14915">
      <g
         id="g14919"
         transform="translate(-46.9734,-397.8965)">
        <path
           d="M 0,0 H 609.449 V 793.701 H 0 Z"
           id="path14917" />
      </g>
    </clipPath>
    <clipPath
       clipPathUnits="userSpaceOnUse"
       id="clipPath14909">
      <g
         id="g14913"
         transform="translate(-35.5633,-393.3027)">
        <path
           d="M 0,0 H 609.449 V 793.701 H 0 Z"
           id="path14911" />
      </g>
    </clipPath>
    <clipPath
       clipPathUnits="userSpaceOnUse"
       id="clipPath18083">
      <g
         id="g18087"
         transform="translate(-331.1849,-337.1262)">
        <path
           d="M 0,0 H 609.449 V 793.701 H 0 Z"
           id="path18085" />
      </g>
    </clipPath>
    <clipPath
       clipPathUnits="userSpaceOnUse"
       id="clipPath18077">
      <g
         id="g18081"
         transform="translate(-336.5472,-331.2395)">
        <path
           d="M 0,0 H 609.449 V 793.701 H 0 Z"
           id="path18079" />
      </g>
    </clipPath>
    <clipPath
       clipPathUnits="userSpaceOnUse"
       id="clipPath18071">
      <g
         id="g18075"
         transform="translate(-323.4349,-325.679)">
        <path
           d="M 0,0 H 609.449 V 793.701 H 0 Z"
           id="path18073" />
      </g>
    </clipPath>
    <clipPath
       clipPathUnits="userSpaceOnUse"
       id="clipPath19921">
      <g
         id="g19925"
         transform="translate(-331.0823,-311.4268)">
        <path
           d="M 0,0 H 609.449 V 793.701 H 0 Z"
           id="path19923" />
      </g>
    </clipPath>
    <clipPath
       clipPathUnits="userSpaceOnUse"
       id="clipPath19915">
      <g
         id="g19919"
         transform="translate(-342.5949,-277.9559)">
        <path
           d="M 0,0 H 609.449 V 793.701 H 0 Z"
           id="path19917" />
      </g>
    </clipPath>
    <clipPath
       clipPathUnits="userSpaceOnUse"
       id="clipPath22117">
      <g
         id="g22123">
        <g
           id="g22121">
          <path
             d="M 0,0 H 609.449 V 793.701 H 0 Z"
             id="path22119" />
        </g>
      </g>
    </clipPath>
    <clipPath
       clipPathUnits="userSpaceOnUse"
       id="clipPath22072">
      <g
         id="g22078">
        <g
           id="g22076">
          <path
             d="M 0,0 H 609.449 V 793.701 H 0 Z"
             id="path22074" />
        </g>
      </g>
    </clipPath>
    <clipPath
       clipPathUnits="userSpaceOnUse"
       id="clipPath21997">
      <g
         id="g22003">
        <g
           id="g22001">
          <path
             d="M 0,0 H 609.449 V 793.701 H 0 Z"
             id="path21999" />
        </g>
      </g>
    </clipPath>
    <clipPath
       clipPathUnits="userSpaceOnUse"
       id="clipPath22057">
      <g
         id="g22063">
        <g
           id="g22061">
          <path
             d="M 0,0 H 609.449 V 793.701 H 0 Z"
             id="path22059" />
        </g>
      </g>
    </clipPath>
    <clipPath
       clipPathUnits="userSpaceOnUse"
       id="clipPath22042">
      <g
         id="g22048">
        <g
           id="g22046">
          <path
             d="M 0,0 H 609.449 V 793.701 H 0 Z"
             id="path22044" />
        </g>
      </g>
    </clipPath>
    <clipPath
       clipPathUnits="userSpaceOnUse"
       id="clipPath22027">
      <g
         id="g22033">
        <g
           id="g22031">
          <path
             d="M 0,0 H 609.449 V 793.701 H 0 Z"
             id="path22029" />
        </g>
      </g>
    </clipPath>
    <clipPath
       clipPathUnits="userSpaceOnUse"
       id="clipPath22012">
      <g
         id="g22018">
        <g
           id="g22016">
          <path
             d="M 0,0 H 609.449 V 793.701 H 0 Z"
             id="path22014" />
        </g>
      </g>
    </clipPath>
    <clipPath
       clipPathUnits="userSpaceOnUse"
       id="clipPath21982">
      <g
         id="g21988">
        <g
           id="g21986">
          <path
             d="M 0,0 H 609.449 V 793.701 H 0 Z"
             id="path21984" />
        </g>
      </g>
    </clipPath>
    <clipPath
       clipPathUnits="userSpaceOnUse"
       id="clipPath22102">
      <g
         id="g22108">
        <g
           id="g22106">
          <path
             d="M 0,0 H 609.449 V 793.701 H 0 Z"
             id="path22104" />
        </g>
      </g>
    </clipPath>
    <clipPath
       clipPathUnits="userSpaceOnUse"
       id="clipPath25467">
      <g
         id="g25473">
        <g
           id="g25471">
          <path
             d="M 0,0 H 609.449 V 793.701 H 0 Z"
             id="path25469" />
        </g>
      </g>
    </clipPath>
    <clipPath
       clipPathUnits="userSpaceOnUse"
       id="clipPath25482">
      <g
         id="g25488">
        <g
           id="g25486">
          <path
             d="M 0,0 H 609.449 V 793.701 H 0 Z"
             id="path25484" />
        </g>
      </g>
    </clipPath>
    <clipPath
       clipPathUnits="userSpaceOnUse"
       id="clipPath25497">
      <g
         id="g25503">
        <g
           id="g25501">
          <path
             d="M 0,0 H 609.449 V 793.701 H 0 Z"
             id="path25499" />
        </g>
      </g>
    </clipPath>
    <clipPath
       clipPathUnits="userSpaceOnUse"
       id="clipPath25437">
      <g
         id="g25443">
        <g
           id="g25441">
          <path
             d="M 0,0 H 609.449 V 793.701 H 0 Z"
             id="path25439" />
        </g>
      </g>
    </clipPath>
    <clipPath
       clipPathUnits="userSpaceOnUse"
       id="clipPath25227">
      <g
         id="g25233">
        <g
           id="g25231">
          <path
             d="M 0,0 H 609.449 V 793.701 H 0 Z"
             id="path25229" />
        </g>
      </g>
    </clipPath>
    <clipPath
       clipPathUnits="userSpaceOnUse"
       id="clipPath25272">
      <g
         id="g25278">
        <g
           id="g25276">
          <path
             d="M 0,0 H 609.449 V 793.701 H 0 Z"
             id="path25274" />
        </g>
      </g>
    </clipPath>
    <clipPath
       clipPathUnits="userSpaceOnUse"
       id="clipPath25212">
      <g
         id="g25218">
        <g
           id="g25216">
          <path
             d="M 0,0 H 609.449 V 793.701 H 0 Z"
             id="path25214" />
        </g>
      </g>
    </clipPath>
    <clipPath
       clipPathUnits="userSpaceOnUse"
       id="clipPath25512">
      <g
         id="g25518">
        <g
           id="g25516">
          <path
             d="M 0,0 H 609.449 V 793.701 H 0 Z"
             id="path25514" />
        </g>
      </g>
    </clipPath>
    <clipPath
       clipPathUnits="userSpaceOnUse"
       id="clipPath25242">
      <g
         id="g25248">
        <g
           id="g25246">
          <path
             d="M 0,0 H 609.449 V 793.701 H 0 Z"
             id="path25244" />
        </g>
      </g>
    </clipPath>
    <clipPath
       clipPathUnits="userSpaceOnUse"
       id="clipPath25542">
      <g
         id="g25548">
        <g
           id="g25546">
          <path
             d="M 0,0 H 609.449 V 793.701 H 0 Z"
             id="path25544" />
        </g>
      </g>
    </clipPath>
    <clipPath
       clipPathUnits="userSpaceOnUse"
       id="clipPath25317">
      <g
         id="g25323">
        <g
           id="g25321">
          <path
             d="M 0,0 H 609.449 V 793.701 H 0 Z"
             id="path25319" />
        </g>
      </g>
    </clipPath>
    <clipPath
       clipPathUnits="userSpaceOnUse"
       id="clipPath25257">
      <g
         id="g25263">
        <g
           id="g25261">
          <path
             d="M 0,0 H 609.449 V 793.701 H 0 Z"
             id="path25259" />
        </g>
      </g>
    </clipPath>
    <clipPath
       clipPathUnits="userSpaceOnUse"
       id="clipPath25392">
      <g
         id="g25398">
        <g
           id="g25396">
          <path
             d="M 0,0 H 609.449 V 793.701 H 0 Z"
             id="path25394" />
        </g>
      </g>
    </clipPath>
    <clipPath
       clipPathUnits="userSpaceOnUse"
       id="clipPath25347">
      <g
         id="g25353">
        <g
           id="g25351">
          <path
             d="M 0,0 H 609.449 V 793.701 H 0 Z"
             id="path25349" />
        </g>
      </g>
    </clipPath>
    <clipPath
       clipPathUnits="userSpaceOnUse"
       id="clipPath25422">
      <g
         id="g25428">
        <g
           id="g25426">
          <path
             d="M 0,0 H 609.449 V 793.701 H 0 Z"
             id="path25424" />
        </g>
      </g>
    </clipPath>
    <clipPath
       clipPathUnits="userSpaceOnUse"
       id="clipPath25377">
      <g
         id="g25383">
        <g
           id="g25381">
          <path
             d="M 0,0 H 609.449 V 793.701 H 0 Z"
             id="path25379" />
        </g>
      </g>
    </clipPath>
    <clipPath
       clipPathUnits="userSpaceOnUse"
       id="clipPath25287">
      <g
         id="g25293">
        <g
           id="g25291">
          <path
             d="M 0,0 H 609.449 V 793.701 H 0 Z"
             id="path25289" />
        </g>
      </g>
    </clipPath>
    <clipPath
       clipPathUnits="userSpaceOnUse"
       id="clipPath25332">
      <g
         id="g25338">
        <g
           id="g25336">
          <path
             d="M 0,0 H 609.449 V 793.701 H 0 Z"
             id="path25334" />
        </g>
      </g>
    </clipPath>
    <clipPath
       clipPathUnits="userSpaceOnUse"
       id="clipPath25527">
      <g
         id="g25533">
        <g
           id="g25531">
          <path
             d="M 0,0 H 609.449 V 793.701 H 0 Z"
             id="path25529" />
        </g>
      </g>
    </clipPath>
    <clipPath
       clipPathUnits="userSpaceOnUse"
       id="clipPath816">
      <path
         d="M 0,0 H 609.449 V 793.701 H 0 Z"
         id="path814" />
    </clipPath>
    <clipPath
       clipPathUnits="userSpaceOnUse"
       id="clipPath18089">
      <g
         id="g18093"
         transform="translate(-332.5598,-350.9826)">
        <path
           d="M 0,0 H 609.449 V 793.701 H 0 Z"
           id="path18091" />
      </g>
    </clipPath>
    <clipPath
       clipPathUnits="userSpaceOnUse"
       id="clipPath22087">
      <g
         id="g22093">
        <g
           id="g22091">
          <path
             d="M 0,0 H 609.449 V 793.701 H 0 Z"
             id="path22089" />
        </g>
      </g>
    </clipPath>
  </defs>
  <g
     inkscape:label="Layer 1"
     inkscape:groupmode="layer"
     id="layer1"
     transform="translate(-106.13099,-156.32622)">
    <path
       d="m 329.3542,566.7899 2.551,-4.274 4.841,-1.036 -3.125,-3.819 0.344,-4.948 -4.611,1.84 -4.614,-1.84 0.346,4.948 -3.124,3.819 4.838,1.036 z m 0,0.3 c -0.105,0 -0.203,-0.055 -0.258,-0.146 l -2.486,-4.162 -4.71,-1.009 c -0.103,-0.022 -0.187,-0.095 -0.221,-0.194 -0.034,-0.099 -0.015,-0.209 0.051,-0.29 l 3.049,-3.726 -0.338,-4.83 c -0.008,-0.102 0.038,-0.202 0.122,-0.262 0.052,-0.038 0.114,-0.058 0.177,-0.058 0.037,0 0.075,0.007 0.111,0.022 l 4.503,1.795 4.5,-1.795 c 0.036,-0.015 0.074,-0.022 0.111,-0.022 0.063,0 0.125,0.02 0.177,0.058 0.083,0.06 0.13,0.16 0.122,0.262 l -0.336,4.83 3.05,3.726 c 0.066,0.081 0.085,0.191 0.051,0.29 -0.034,0.099 -0.118,0.172 -0.221,0.194 l -4.713,1.009 -2.483,4.162 c -0.055,0.091 -0.153,0.146 -0.258,0.146"
       style="fill:#000000;fill-opacity:1;fill-rule:nonzero;stroke:none"
       id="path956"
       clip-path="url(#clipPath22087)"
       transform="matrix(0.35277777,0,0,-0.35277777,-7.3444352,356.38293)" />
    <g
       id="g958"
       transform="matrix(0.35277777,0,0,-0.35277777,108.84441,157.16068)"
       style="fill:#000000;fill-opacity:1">
      <path
         d="M 0,0 1.789,-2.999 1.856,-3.111 1.984,-3.139 5.397,-3.867 3.207,-6.548 3.132,-6.64 3.141,-6.758 3.385,-10.269 0.111,-8.963 0,-8.918 l -0.111,-0.045 -3.275,-1.306 0.244,3.511 0.009,0.118 -0.075,0.092 -2.191,2.681 3.411,0.728 0.128,0.027 0.067,0.112 z m 0,0.585 -2.051,-3.431 -3.892,-0.831 2.503,-3.06 -0.278,-3.988 3.718,1.484 3.718,-1.484 -0.278,3.988 2.5,3.06 -3.893,0.831 z"
         style="fill:#000000;fill-opacity:1;fill-rule:nonzero;stroke:none"
         id="path960" />
    </g>
  </g>
</svg>
