<?xml version="1.0" encoding="UTF-8" standalone="no"?>
<!-- Created with Inkscape (http://www.inkscape.org/) -->

<svg
   width="6.8047304mm"
   height="6.8043776mm"
   viewBox="0 0 6.8047304 6.8043775"
   version="1.1"
   id="svg1422"
   inkscape:version="1.2.2 (b0a8486541, 2022-12-01)"
   sodipodi:docname="link-shard.svg"
   xmlns:inkscape="http://www.inkscape.org/namespaces/inkscape"
   xmlns:sodipodi="http://sodipodi.sourceforge.net/DTD/sodipodi-0.dtd"
   xmlns="http://www.w3.org/2000/svg"
   xmlns:svg="http://www.w3.org/2000/svg">
  <sodipodi:namedview
     id="namedview1424"
     pagecolor="#ffffff"
     bordercolor="#666666"
     borderopacity="1.0"
     inkscape:showpageshadow="2"
     inkscape:pageopacity="0.0"
     inkscape:pagecheckerboard="0"
     inkscape:deskcolor="#d1d1d1"
     inkscape:document-units="mm"
     showgrid="false"
     inkscape:zoom="10.808347"
     inkscape:cx="-4.1171883"
     inkscape:cy="13.461818"
     inkscape:window-width="1920"
     inkscape:window-height="1020"
     inkscape:window-x="0"
     inkscape:window-y="32"
     inkscape:window-maximized="1"
     inkscape:current-layer="layer1" />
  <defs
     id="defs1419">
    <clipPath
       clipPathUnits="userSpaceOnUse"
       id="clipPath1585">
      <g
         id="g1589"
         transform="translate(-334.9748,-688.4194)">
        <path
           d="M 0,0 H 609.449 V 793.701 H 0 Z"
           id="path1587" />
      </g>
    </clipPath>
    <clipPath
       clipPathUnits="userSpaceOnUse"
       id="clipPath664">
      <path
         d="M 0,0 H 609.449 V 793.701 H 0 Z"
         id="path662" />
    </clipPath>
    <clipPath
       clipPathUnits="userSpaceOnUse"
       id="clipPath8157">
      <g
         id="g8161"
         transform="translate(-35.6922,-487.1561)">
        <path
           d="M 0,0 H 609.449 V 793.701 H 0 Z"
           id="path8159" />
      </g>
    </clipPath>
    <clipPath
       clipPathUnits="userSpaceOnUse"
       id="clipPath8151">
      <g
         id="g8155"
         transform="translate(-49.3377,-487.6971)">
        <path
           d="M 0,0 H 609.449 V 793.701 H 0 Z"
           id="path8153" />
      </g>
    </clipPath>
    <clipPath
       clipPathUnits="userSpaceOnUse"
       id="clipPath8145">
      <g
         id="g8149"
         transform="translate(-48.1717,-487.4276)">
        <path
           d="M 0,0 H 609.449 V 793.701 H 0 Z"
           id="path8147" />
      </g>
    </clipPath>
    <clipPath
       clipPathUnits="userSpaceOnUse"
       id="clipPath8139">
      <g
         id="g8143"
         transform="translate(-44.366,-492.3475)">
        <path
           d="M 0,0 H 609.449 V 793.701 H 0 Z"
           id="path8141" />
      </g>
    </clipPath>
    <clipPath
       clipPathUnits="userSpaceOnUse"
       id="clipPath8133">
      <g
         id="g8137"
         transform="translate(-46.6092,-491.7586)">
        <path
           d="M 0,0 H 609.449 V 793.701 H 0 Z"
           id="path8135" />
      </g>
    </clipPath>
    <clipPath
       clipPathUnits="userSpaceOnUse"
       id="clipPath8205">
      <g
         id="g8209"
         transform="translate(-45.1531,-464.5486)">
        <path
           d="M 0,0 H 609.449 V 793.701 H 0 Z"
           id="path8207" />
      </g>
    </clipPath>
    <clipPath
       clipPathUnits="userSpaceOnUse"
       id="clipPath8199">
      <g
         id="g8203"
         transform="translate(-42.3514,-462.9236)">
        <path
           d="M 0,0 H 609.449 V 793.701 H 0 Z"
           id="path8201" />
      </g>
    </clipPath>
    <clipPath
       clipPathUnits="userSpaceOnUse"
       id="clipPath8193">
      <g
         id="g8197"
         transform="translate(-49.6453,-468.3768)">
        <path
           d="M 0,0 H 609.449 V 793.701 H 0 Z"
           id="path8195" />
      </g>
    </clipPath>
    <clipPath
       clipPathUnits="userSpaceOnUse"
       id="clipPath8187">
      <g
         id="g8191"
         transform="translate(-45.8172,-467.1014)">
        <path
           d="M 0,0 H 609.449 V 793.701 H 0 Z"
           id="path8189" />
      </g>
    </clipPath>
    <clipPath
       clipPathUnits="userSpaceOnUse"
       id="clipPath8181">
      <g
         id="g8185"
         transform="translate(-45.9627,-464.6209)">
        <path
           d="M 0,0 H 609.449 V 793.701 H 0 Z"
           id="path8183" />
      </g>
    </clipPath>
    <clipPath
       clipPathUnits="userSpaceOnUse"
       id="clipPath8175">
      <g
         id="g8179"
         transform="translate(-44.1717,-464.3133)">
        <path
           d="M 0,0 H 609.449 V 793.701 H 0 Z"
           id="path8177" />
      </g>
    </clipPath>
    <clipPath
       clipPathUnits="userSpaceOnUse"
       id="clipPath8169">
      <g
         id="g8173"
         transform="translate(-41.0057,-463.2869)">
        <path
           d="M 0,0 H 609.449 V 793.701 H 0 Z"
           id="path8171" />
      </g>
    </clipPath>
    <clipPath
       clipPathUnits="userSpaceOnUse"
       id="clipPath8163">
      <g
         id="g8167"
         transform="translate(-40.7899,-456.6121)">
        <path
           d="M 0,0 H 609.449 V 793.701 H 0 Z"
           id="path8165" />
      </g>
    </clipPath>
    <clipPath
       clipPathUnits="userSpaceOnUse"
       id="clipPath8157-3">
      <g
         id="g8161-6"
         transform="translate(-35.6922,-487.1561)">
        <path
           d="M 0,0 H 609.449 V 793.701 H 0 Z"
           id="path8159-7" />
      </g>
    </clipPath>
    <clipPath
       clipPathUnits="userSpaceOnUse"
       id="clipPath8151-5">
      <g
         id="g8155-3"
         transform="translate(-49.3377,-487.6971)">
        <path
           d="M 0,0 H 609.449 V 793.701 H 0 Z"
           id="path8153-5" />
      </g>
    </clipPath>
    <clipPath
       clipPathUnits="userSpaceOnUse"
       id="clipPath8145-6">
      <g
         id="g8149-2"
         transform="translate(-48.1717,-487.4276)">
        <path
           d="M 0,0 H 609.449 V 793.701 H 0 Z"
           id="path8147-9" />
      </g>
    </clipPath>
    <clipPath
       clipPathUnits="userSpaceOnUse"
       id="clipPath8139-1">
      <g
         id="g8143-2"
         transform="translate(-44.366,-492.3475)">
        <path
           d="M 0,0 H 609.449 V 793.701 H 0 Z"
           id="path8141-7" />
      </g>
    </clipPath>
    <clipPath
       clipPathUnits="userSpaceOnUse"
       id="clipPath8133-0">
      <g
         id="g8137-9"
         transform="translate(-46.6092,-491.7586)">
        <path
           d="M 0,0 H 609.449 V 793.701 H 0 Z"
           id="path8135-3" />
      </g>
    </clipPath>
    <clipPath
       clipPathUnits="userSpaceOnUse"
       id="clipPath13791">
      <g
         id="g13797">
        <g
           id="g13795">
          <path
             d="M 0,0 H 609.449 V 793.701 H 0 Z"
             id="path13793" />
        </g>
      </g>
    </clipPath>
    <clipPath
       clipPathUnits="userSpaceOnUse"
       id="clipPath13896">
      <g
         id="g13902">
        <g
           id="g13900">
          <path
             d="M 0,0 H 609.449 V 793.701 H 0 Z"
             id="path13898" />
        </g>
      </g>
    </clipPath>
    <clipPath
       clipPathUnits="userSpaceOnUse"
       id="clipPath13881">
      <g
         id="g13887">
        <g
           id="g13885">
          <path
             d="M 0,0 H 609.449 V 793.701 H 0 Z"
             id="path13883" />
        </g>
      </g>
    </clipPath>
    <clipPath
       clipPathUnits="userSpaceOnUse"
       id="clipPath13806">
      <g
         id="g13812">
        <g
           id="g13810">
          <path
             d="M 0,0 H 609.449 V 793.701 H 0 Z"
             id="path13808" />
        </g>
      </g>
    </clipPath>
    <clipPath
       clipPathUnits="userSpaceOnUse"
       id="clipPath13821">
      <g
         id="g13827">
        <g
           id="g13825">
          <path
             d="M 0,0 H 609.449 V 793.701 H 0 Z"
             id="path13823" />
        </g>
      </g>
    </clipPath>
    <clipPath
       clipPathUnits="userSpaceOnUse"
       id="clipPath13911">
      <g
         id="g13917">
        <g
           id="g13915">
          <path
             d="M 0,0 H 609.449 V 793.701 H 0 Z"
             id="path13913" />
        </g>
      </g>
    </clipPath>
    <clipPath
       clipPathUnits="userSpaceOnUse"
       id="clipPath13866">
      <g
         id="g13872">
        <g
           id="g13870">
          <path
             d="M 0,0 H 609.449 V 793.701 H 0 Z"
             id="path13868" />
        </g>
      </g>
    </clipPath>
    <clipPath
       clipPathUnits="userSpaceOnUse"
       id="clipPath13836">
      <g
         id="g13842">
        <g
           id="g13840">
          <path
             d="M 0,0 H 609.449 V 793.701 H 0 Z"
             id="path13838" />
        </g>
      </g>
    </clipPath>
    <clipPath
       clipPathUnits="userSpaceOnUse"
       id="clipPath13851">
      <g
         id="g13857">
        <g
           id="g13855">
          <path
             d="M 0,0 H 609.449 V 793.701 H 0 Z"
             id="path13853" />
        </g>
      </g>
    </clipPath>
    <clipPath
       clipPathUnits="userSpaceOnUse"
       id="clipPath14939">
      <g
         id="g14943"
         transform="translate(-47.6111,-413.5244)">
        <path
           d="M 0,0 H 609.449 V 793.701 H 0 Z"
           id="path14941" />
      </g>
    </clipPath>
    <clipPath
       clipPathUnits="userSpaceOnUse"
       id="clipPath14933">
      <g
         id="g14937"
         transform="translate(-44.3924,-420.7109)">
        <path
           d="M 0,0 H 609.449 V 793.701 H 0 Z"
           id="path14935" />
      </g>
    </clipPath>
    <clipPath
       clipPathUnits="userSpaceOnUse"
       id="clipPath14927">
      <g
         id="g14931"
         transform="translate(-35.4949,-416.7852)">
        <path
           d="M 0,0 H 609.449 V 793.701 H 0 Z"
           id="path14929" />
      </g>
    </clipPath>
    <clipPath
       clipPathUnits="userSpaceOnUse"
       id="clipPath14921">
      <g
         id="g14925"
         transform="translate(-46.6404,-393.3848)">
        <path
           d="M 0,0 H 609.449 V 793.701 H 0 Z"
           id="path14923" />
      </g>
    </clipPath>
    <clipPath
       clipPathUnits="userSpaceOnUse"
       id="clipPath14915">
      <g
         id="g14919"
         transform="translate(-46.9734,-397.8965)">
        <path
           d="M 0,0 H 609.449 V 793.701 H 0 Z"
           id="path14917" />
      </g>
    </clipPath>
    <clipPath
       clipPathUnits="userSpaceOnUse"
       id="clipPath14909">
      <g
         id="g14913"
         transform="translate(-35.5633,-393.3027)">
        <path
           d="M 0,0 H 609.449 V 793.701 H 0 Z"
           id="path14911" />
      </g>
    </clipPath>
    <clipPath
       clipPathUnits="userSpaceOnUse"
       id="clipPath18083">
      <g
         id="g18087"
         transform="translate(-331.1849,-337.1262)">
        <path
           d="M 0,0 H 609.449 V 793.701 H 0 Z"
           id="path18085" />
      </g>
    </clipPath>
    <clipPath
       clipPathUnits="userSpaceOnUse"
       id="clipPath18077">
      <g
         id="g18081"
         transform="translate(-336.5472,-331.2395)">
        <path
           d="M 0,0 H 609.449 V 793.701 H 0 Z"
           id="path18079" />
      </g>
    </clipPath>
    <clipPath
       clipPathUnits="userSpaceOnUse"
       id="clipPath18071">
      <g
         id="g18075"
         transform="translate(-323.4349,-325.679)">
        <path
           d="M 0,0 H 609.449 V 793.701 H 0 Z"
           id="path18073" />
      </g>
    </clipPath>
    <clipPath
       clipPathUnits="userSpaceOnUse"
       id="clipPath19921">
      <g
         id="g19925"
         transform="translate(-331.0823,-311.4268)">
        <path
           d="M 0,0 H 609.449 V 793.701 H 0 Z"
           id="path19923" />
      </g>
    </clipPath>
  </defs>
  <g
     inkscape:label="Layer 1"
     inkscape:groupmode="layer"
     id="layer1"
     transform="translate(-96.11549,-149.55964)">
    <g
       id="g854"
       transform="matrix(0.35277777,0,0,-0.35277777,99.472559,153.83121)"
       style="fill:#000000;fill-opacity:1">
      <path
         d="M 0,0 V -0.681 L 0.502,-0.492 0.398,0.14 Z"
         style="fill:#000000;fill-opacity:1;fill-rule:nonzero;stroke:none"
         id="path856" />
    </g>
    <g
       id="g858"
       transform="matrix(0.35277777,0,0,-0.35277777,100.1028,152.01702)"
       style="fill:#000000;fill-opacity:1">
      <path
         d="M 0,0 0.221,-0.222 0.643,0.069 0.24,0.398 Z"
         style="fill:#000000;fill-opacity:1;fill-rule:nonzero;stroke:none"
         id="path860" />
    </g>
    <g
       id="g862"
       transform="matrix(0.35277777,0,0,-0.35277777,100.10195,152.19411)"
       style="fill:#000000;fill-opacity:1">
      <path
         d="m 0,0 -0.263,0.261 -2.694,-1.169 -0.354,-1.205 1.422,-2.183 0.5,0.173 z"
         style="fill:#000000;fill-opacity:1;fill-rule:nonzero;stroke:none"
         id="path864" />
    </g>
    <g
       id="g866"
       transform="matrix(0.35277777,0,0,-0.35277777,99.980348,151.97708)"
       style="fill:#000000;fill-opacity:1">
      <path
         d="M 0,0 0.248,0.412 H -0.93 l -2.282,-1.507 0.439,-0.111 z"
         style="fill:#000000;fill-opacity:1;fill-rule:nonzero;stroke:none"
         id="path868" />
    </g>
    <g
       id="g870"
       transform="matrix(0.35277777,0,0,-0.35277777,100.22705,152.21651)"
       style="fill:#000000;fill-opacity:1">
      <path
         d="m 0,0 -1.418,-4.217 0.114,-0.677 1.518,1.289 0.53,1.291 -0.28,2.634 z"
         style="fill:#000000;fill-opacity:1;fill-rule:nonzero;stroke:none"
         id="path872" />
    </g>
    <g
       id="g874"
       transform="matrix(0.35277777,0,0,-0.35277777,98.696378,152.95548)"
       style="fill:#000000;fill-opacity:1">
      <path
         d="m 0,0 0.235,-2.603 0.608,-0.62 h 1 v 0.817 l -1.481,2.275 z"
         style="fill:#000000;fill-opacity:1;fill-rule:nonzero;stroke:none"
         id="path876" />
    </g>
    <g
       id="g878"
       transform="matrix(0.35277777,0,0,-0.35277777,98.704844,152.82569)"
       style="fill:#000000;fill-opacity:1">
      <path
         d="M 0,0 0.338,-0.12 0.634,0.884 0.201,0.997 Z"
         style="fill:#000000;fill-opacity:1;fill-rule:nonzero;stroke:none"
         id="path880" />
    </g>
    <g
       id="g890"
       transform="matrix(0.35277777,0,0,-0.35277777,99.518032,149.55964)"
       clip-path="url(#clipPath19921)"
       style="fill:#000000;fill-opacity:1">
      <path
         d="m 0,0 c -5.327,0 -9.645,-4.316 -9.645,-9.645 0,-5.327 4.318,-9.643 9.645,-9.643 5.328,0 9.644,4.316 9.644,9.643 C 9.644,-4.316 5.328,0 0,0 m -6.529,-16.174 c -1.673,1.673 -2.709,3.982 -2.709,6.529 0,2.548 1.035,4.857 2.709,6.531 l 2.793,-2.792 c -0.957,-0.958 -1.551,-2.281 -1.551,-3.74 0,-1.457 0.594,-2.779 1.552,-3.736 z M 0,-14.525 c -1.663,0 -3.133,0.837 -4.016,2.11 -0.009,0.015 -0.021,0.028 -0.03,0.043 -0.047,0.068 -0.088,0.142 -0.131,0.215 -0.038,0.062 -0.079,0.123 -0.114,0.187 -0.008,0.014 -0.014,0.03 -0.021,0.043 -0.363,0.682 -0.57,1.458 -0.57,2.281 0,1.177 0.418,2.257 1.113,3.1 0.001,0.002 0.002,0.004 0.003,0.005 0.082,0.1 0.17,0.193 0.261,0.286 0.019,0.02 0.036,0.041 0.055,0.061 h 0.001 v 0.001 c 0.884,0.883 2.103,1.43 3.449,1.43 1.348,0 2.568,-0.549 3.453,-1.433 0.057,-0.057 0.107,-0.119 0.161,-0.178 0.051,-0.057 0.105,-0.11 0.153,-0.168 0.03,-0.037 0.055,-0.076 0.084,-0.113 0.067,-0.086 0.135,-0.172 0.197,-0.264 0.012,-0.018 0.021,-0.037 0.033,-0.055 0.074,-0.113 0.146,-0.228 0.212,-0.347 10e-4,-0.004 0.003,-0.008 0.006,-0.012 0.146,-0.273 0.269,-0.562 0.363,-0.862 0.013,-0.042 0.022,-0.087 0.033,-0.13 0.032,-0.112 0.064,-0.223 0.087,-0.338 0.03,-0.144 0.051,-0.291 0.068,-0.44 0.002,-0.014 0.004,-0.029 0.006,-0.043 0.017,-0.165 0.026,-0.331 0.026,-0.5 0,-0.167 -0.009,-0.334 -0.026,-0.498 C 4.854,-10.158 4.852,-10.173 4.85,-10.188 4.833,-10.335 4.812,-10.482 4.782,-10.626 4.326,-12.849 2.355,-14.525 0,-14.525 m 6.531,-1.646 -2.793,2.791 c 0.957,0.958 1.549,2.279 1.549,3.734 0,1.458 -0.592,2.779 -1.549,3.737 l 2.794,2.792 c 1.671,-1.673 2.706,-3.982 2.706,-6.528 0,-2.545 -1.035,-4.854 -2.707,-6.526"
         style="fill:#000000;fill-opacity:1;fill-rule:nonzero;stroke:none"
         id="path892" />
    </g>
  </g>
</svg>
