<?xml version="1.0" encoding="UTF-8" standalone="no"?>
<!-- Created with Inkscape (http://www.inkscape.org/) -->

<svg
   width="10.160448mm"
   height="8.7167616mm"
   viewBox="0 0 10.160448 8.7167616"
   version="1.1"
   id="svg1242"
   inkscape:version="1.2.2 (b0a8486541, 2022-12-01)"
   sodipodi:docname="magician.svg"
   xmlns:inkscape="http://www.inkscape.org/namespaces/inkscape"
   xmlns:sodipodi="http://sodipodi.sourceforge.net/DTD/sodipodi-0.dtd"
   xmlns="http://www.w3.org/2000/svg"
   xmlns:svg="http://www.w3.org/2000/svg">
  <sodipodi:namedview
     id="namedview1244"
     pagecolor="#ffffff"
     bordercolor="#666666"
     borderopacity="1.0"
     inkscape:showpageshadow="2"
     inkscape:pageopacity="0.0"
     inkscape:pagecheckerboard="0"
     inkscape:deskcolor="#d1d1d1"
     inkscape:document-units="mm"
     showgrid="false"
     inkscape:zoom="0.74742565"
     inkscape:cx="-141.15116"
     inkscape:cy="142.48909"
     inkscape:window-width="1920"
     inkscape:window-height="1020"
     inkscape:window-x="0"
     inkscape:window-y="32"
     inkscape:window-maximized="1"
     inkscape:current-layer="layer1" />
  <defs
     id="defs1239">
    <clipPath
       clipPathUnits="userSpaceOnUse"
       id="clipPath1169">
      <g
         id="g1173"
         transform="translate(-140.028,-137.591)">
        <path
           d="m 129.628,145.06 c -14.09,-0.11 -25.421,-11.621 -25.312,-25.711 v 0 c 0.111,-14.089 11.622,-25.421 25.711,-25.311 v 0 c 14.09,0.11 25.422,11.622 25.312,25.711 v 0 c -0.11,14.021 -11.51,25.313 -25.506,25.312 v 0 c -0.068,0 -0.137,0 -0.205,-0.001"
           id="path1171" />
      </g>
    </clipPath>
    <clipPath
       clipPathUnits="userSpaceOnUse"
       id="clipPath1163">
      <g
         id="g1167"
         transform="translate(-119.6525,-135.208)">
        <path
           d="m 129.628,145.06 c -14.09,-0.11 -25.421,-11.621 -25.312,-25.711 v 0 c 0.111,-14.089 11.622,-25.421 25.711,-25.311 v 0 c 14.09,0.11 25.422,11.622 25.312,25.711 v 0 c -0.11,14.021 -11.51,25.313 -25.506,25.312 v 0 c -0.068,0 -0.137,0 -0.205,-0.001"
           id="path1165" />
      </g>
    </clipPath>
    <clipPath
       clipPathUnits="userSpaceOnUse"
       id="clipPath1157">
      <g
         id="g1161"
         transform="translate(-121.7819,-121.608)">
        <path
           d="m 129.628,145.06 c -14.09,-0.11 -25.421,-11.621 -25.312,-25.711 v 0 c 0.111,-14.089 11.622,-25.421 25.711,-25.311 v 0 c 14.09,0.11 25.422,11.622 25.312,25.711 v 0 c -0.11,14.021 -11.51,25.313 -25.506,25.312 v 0 c -0.068,0 -0.137,0 -0.205,-0.001"
           id="path1159" />
      </g>
    </clipPath>
    <clipPath
       clipPathUnits="userSpaceOnUse"
       id="clipPath1151">
      <g
         id="g1155"
         transform="translate(-126.8349,-114.9845)">
        <path
           d="m 129.628,145.06 c -14.09,-0.11 -25.421,-11.621 -25.312,-25.711 v 0 c 0.111,-14.089 11.622,-25.421 25.711,-25.311 v 0 c 14.09,0.11 25.422,11.622 25.312,25.711 v 0 c -0.11,14.021 -11.51,25.313 -25.506,25.312 v 0 c -0.068,0 -0.137,0 -0.205,-0.001"
           id="path1153" />
      </g>
    </clipPath>
  </defs>
  <g
     inkscape:label="Layer 1"
     inkscape:groupmode="layer"
     id="layer1"
     transform="translate(-142.5348,-110.6893)">
    <g
       id="g1183"
       transform="matrix(0.35277777,0,0,-0.35277777,101.3234,159.68338)">
      <g
         id="g278"
         transform="translate(140.028,137.591)"
         clip-path="url(#clipPath1169)">
        <path
           d="m 0,0 c 0.033,-0.897 -4.557,-1.794 -10.252,-2.002 -5.694,-0.209 -10.337,0.349 -10.37,1.246 -0.033,0.897 4.557,1.793 10.251,2.002 C -4.676,1.455 -0.033,0.897 0,0"
           style="fill:#211815;fill-opacity:1;fill-rule:nonzero;stroke:none"
           id="path280" />
      </g>
      <g
         id="g282"
         transform="translate(119.6525,135.208)"
         clip-path="url(#clipPath1163)">
        <path
           d="m 0,0 c 0.454,-6.824 0.365,-11.064 1.941,-11.047 1.271,-0.635 12.363,-0.794 17.4,0.706 1.306,0.635 0.967,6.782 1.059,11.859 C 15.411,-1.679 8.547,-1.928 0,0"
           style="fill:#211815;fill-opacity:1;fill-rule:nonzero;stroke:none"
           id="path284" />
      </g>
      <g
         id="g286"
         transform="translate(121.7819,121.608)"
         clip-path="url(#clipPath1157)">
        <path
           d="m 0,0 c -0.482,-0.072 -1.137,-0.228 -1.835,-0.588 -1.332,-0.688 -3.556,-2.505 -3.055,-4.415 0.332,-1.264 1.766,-2.221 3.502,-2.432 3.893,-0.06 8.411,2.417 13.459,5.035 1.046,0.496 2.043,0.92 2.977,1.253 2.037,0.728 5.938,1.037 6.965,-0.627 0.572,-0.926 0.07,-2.188 0.563,-2.355 0.313,-0.106 0.793,0.303 1.024,0.717 0.638,1.147 -0.074,3.321 -1.271,4.165 C 19.807,2.531 16.44,2.289 8.965,-1.694 4.149,-4.26 1.47,-3.883 0.4,-3.012 0.161,-2.817 -0.403,-1.914 0,0"
           style="fill:#211815;fill-opacity:1;fill-rule:nonzero;stroke:none"
           id="path288" />
      </g>
      <g
         id="g290"
         transform="translate(126.8349,114.9845)"
         clip-path="url(#clipPath1151)">
        <path
           d="m 0,0 c -0.169,0.302 3.722,2.143 4.241,2.388 2.692,1.273 4.984,2.158 6.577,2.73 4.665,1.391 7.213,-1.451 6.105,-2.447 C 16.951,2.065 14.657,1.783 11.859,2.329 9.649,2.761 7.018,1.605 4.833,0.978 1.451,0.007 -0.161,-0.225 0,0"
           style="fill:#211815;fill-opacity:1;fill-rule:nonzero;stroke:none"
           id="path292" />
      </g>
    </g>
  </g>
</svg>
