<?xml version="1.0" encoding="UTF-8" standalone="no"?>
<!-- Created with Inkscape (http://www.inkscape.org/) -->

<svg
   version="1.1"
   id="svg671"
   width="80"
   height="69"
   viewBox="0 0 80 69"
   sodipodi:docname="mechanical.svg"
   inkscape:version="1.2.2 (b0a8486541, 2022-12-01)"
   xmlns:inkscape="http://www.inkscape.org/namespaces/inkscape"
   xmlns:sodipodi="http://sodipodi.sourceforge.net/DTD/sodipodi-0.dtd"
   xmlns="http://www.w3.org/2000/svg"
   xmlns:svg="http://www.w3.org/2000/svg">
  <defs
     id="defs675" />
  <sodipodi:namedview
     id="namedview673"
     pagecolor="#ffffff"
     bordercolor="#666666"
     borderopacity="1.0"
     inkscape:showpageshadow="2"
     inkscape:pageopacity="0.0"
     inkscape:pagecheckerboard="0"
     inkscape:deskcolor="#d1d1d1"
     showgrid="false"
     inkscape:zoom="3.0354692"
     inkscape:cx="10.377308"
     inkscape:cy="5.435733"
     inkscape:window-width="1920"
     inkscape:window-height="1020"
     inkscape:window-x="0"
     inkscape:window-y="32"
     inkscape:window-maximized="1"
     inkscape:current-layer="g677" />
  <g
     inkscape:groupmode="layer"
     inkscape:label="Image"
     id="g677">
    <path
       style="fill:#000000"
       d="m 34.5,64 c -0.249789,-1.084514 -0.666986,-2.349599 -1.783365,-2.807369 -1.138183,-0.385226 -2.279511,0.289494 -3.177497,0.940188 -1.169833,0.907937 -2.194847,1.983425 -3.287833,2.979721 -0.168231,0.152858 -0.366377,-0.202667 -0.547669,-0.271777 -1.289668,-0.977949 -2.637631,-1.883305 -3.8603,-2.945715 -0.713274,-0.613772 -1.281241,-1.508598 -1.149711,-2.486657 0.115697,-1.173168 0.717155,-2.31236 0.443457,-3.511184 -0.316554,-1.42476 -1.433609,-2.474734 -2.426208,-3.46865 -0.430905,-0.314305 -0.971439,-1.08502 -1.521496,-0.803024 -0.0079,0.589817 0.215743,1.362422 -0.399076,1.756198 -0.870444,0.527305 -1.963661,0.211197 -2.840166,-0.142693 -1.420332,-0.601736 -2.60115,-1.734745 -3.230965,-3.146976 -0.382235,-0.761182 -0.9470558,-1.69554 -0.442455,-2.536067 0.715421,-1.058166 1.844413,-1.732906 2.782665,-2.572914 0.621951,-0.573392 1.39563,-1.129486 1.606718,-1.994499 0.0744,-0.795167 -0.570092,-1.447352 -1.152277,-1.8967 C 12.357863,40.27123 10.96221,39.856505 9.5622891,39.723494 8.7835773,39.626529 7.9531861,39.245881 7.6910405,38.446166 7.2257228,37.103475 7.2469033,35.65675 7.1240128,34.255812 7.1064215,33.368727 6.9415608,32.389024 7.408287,31.58448 c 0.5801204,-0.766775 1.6353007,-0.825289 2.4978992,-1.037481 1.2774518,-0.25067 2.6969478,-0.47548 3.6391678,-1.459085 0.614127,-0.651834 0.400756,-1.661492 -0.08512,-2.319797 -0.763756,-1.191394 -2.033952,-1.895355 -2.983047,-2.910553 -0.5931762,-0.580532 -0.461571,-1.47244 -0.166843,-2.162899 0.575296,-1.363685 1.184424,-2.723964 1.954761,-3.990174 0.458168,-0.775147 1.25193,-1.356694 2.165434,-1.424723 1.658201,-0.20348 3.330531,0.235004 4.984138,-0.0053 0.721948,-0.08619 1.007255,-0.842087 1.03175,-1.476819 0.175303,-1.761994 -0.203747,-3.638272 0.559434,-5.3000489 0.71243,-1.3962154 2.177126,-2.1127265 3.44976,-2.9146674 0.780029,-0.4764333 1.560059,-0.9528665 2.340088,-1.4292998 0.980194,1.0183124 1.907058,2.0901556 2.935917,3.0598314 0.763655,0.67355 1.820688,1.3699473 2.874271,0.972326 1.137178,-0.5032665 1.666893,-1.7380699 2.109867,-2.8222784 0.409973,-1.0692093 0.727433,-2.3709547 1.827598,-2.945249 1.152465,-0.5274806 2.467225,-0.3996476 3.700027,-0.4049898 1.050823,0.021085 2.240291,0.2068894 2.921281,1.0993488 1.237963,1.5901038 1.505403,3.7462628 2.881135,5.2482879 0.444952,0.5223949 1.233493,0.6244303 1.811237,0.2656657 1.38615,-0.7401605 2.191504,-2.1776107 3.471339,-3.0504685 0.93921,-0.6385374 2.093031,-0.1967154 3.041357,0.169313 1.264669,0.5424714 2.625992,0.9853874 3.677093,1.906411 0.678659,0.5890124 0.6864,1.578304 0.443376,2.376037 -0.329766,1.359762 -1.181381,2.658592 -0.939603,4.107229 0.27656,1.259174 1.581617,1.911737 2.741956,2.14779 1.486892,0.304021 3.117772,0.184865 4.444093,-0.598175 0.667295,-0.09767 1.169612,0.504967 1.58368,0.941314 0.959498,1.138083 1.595206,2.502822 2.247557,3.828731 0.296282,0.615084 0.474108,1.426241 -0.04764,1.980172 -0.928256,1.101179 -2.362216,1.732116 -3.067723,3.025249 -0.405478,0.899494 0.159872,1.845317 0.608691,2.611385 0.79101,1.11288 2.00862,1.992136 3.385718,2.163187 0.909028,0.130485 1.593465,0.873318 1.821605,1.735679 0.386308,1.341356 0.478185,2.751333 0.524666,4.140065 0.01853,0.760264 -0.16644,1.660214 -0.928761,2.01216 -0.995346,0.483444 -2.131654,0.57257 -3.130292,1.056338 -1.00929,0.435575 -2.131668,1.181399 -2.21244,2.384364 -0.03962,1.302582 0.910632,2.327795 1.73591,3.224706 0.922218,1.016617 1.598636,2.411084 1.280336,3.808733 -0.346174,1.557095 -1.307439,2.887093 -2.293721,4.105625 -0.502521,0.648394 -1.354679,0.984981 -2.159655,0.77933 -1.443149,-0.294533 -2.773043,-1.114169 -4.282131,-1.08078 -0.802285,-0.03398 -1.652686,0.421817 -1.866146,1.235812 -0.370559,1.378777 0.07545,2.806421 0.482876,4.124795 0.368461,1.116741 0.816115,2.248762 0.827705,3.439455 -0.09807,0.64557 -0.888836,-0.129727 -1.323997,0.189925 -1.394068,0.249655 -2.537213,1.120139 -3.721554,1.829669 -0.608699,0.375285 -1.420531,0.613965 -2.057688,0.158835 -1.191417,-0.784514 -2.073527,-1.965697 -3.323627,-2.675183 -0.90023,-0.561422 -2.15458,-0.981026 -3.109352,-0.306797 -1.075497,0.793316 -1.270808,2.209641 -1.540997,3.424489 -0.167456,0.790908 -0.551003,1.676411 -1.403992,1.910628 -1.302533,0.362275 -2.675775,0.23948 -4.012735,0.26409 -1.016098,-0.04181 -2.108663,0.03532 -3.032842,-0.459639 C 34.864744,66.003199 34.728172,64.890756 34.5,64 Z m 12.701929,-8.178645 c 2.71453,-0.860507 5.013107,-2.663874 7.024295,-4.629585 2.578686,-2.595143 4.774396,-5.643198 6.073821,-9.08162 0.658027,-1.816809 0.954008,-3.742152 1.205047,-5.650371 0.341796,-2.765655 0.06592,-5.619712 -0.957923,-8.221323 -1.028585,-2.699302 -2.500323,-5.253877 -4.517679,-7.337405 -3.806776,-3.976743 -8.993025,-6.62652 -14.453092,-7.348221 -3.221231,-0.429829 -6.561284,-0.04581 -9.553411,1.245562 -4.486824,1.908036 -8.318053,5.233154 -11.050421,9.251636 -1.680269,2.520286 -2.977417,5.401992 -3.172566,8.458467 0.04817,2.392065 -0.103399,4.794264 0.152501,7.178015 0.221785,1.562605 0.615428,3.106586 1.171718,4.583617 0.721633,1.744545 1.692884,3.424413 3.088587,4.717793 1.186872,1.256259 2.437818,2.453512 3.799054,3.520084 2.80056,2.411573 6.43283,3.643619 10.048305,4.151108 3.716423,0.501774 7.545091,0.233113 11.141764,-0.837757 z m -14.37383,-2.348508 c -4.044218,-1.303811 -7.292009,-4.379619 -9.561424,-7.893651 -0.810406,-1.286744 -1.564114,-2.626524 -2.110665,-4.047242 -0.915856,-3.042083 -0.926289,-6.274565 -0.525159,-9.402656 0.155388,-1.021337 0.216011,-2.069704 0.519031,-3.060027 1.720558,-4.914465 5.631237,-8.919029 10.327556,-11.090625 4.779327,-2.231352 10.515041,-2.661933 15.429671,-0.602121 1.404375,0.573525 2.689574,1.398497 3.884782,2.323011 2.976992,1.831053 5.400454,4.59193 6.659943,7.867167 0.606481,1.56688 1.018786,3.209946 1.271469,4.86945 0.304325,3.049285 -0.135565,6.1487 -1.045225,9.064194 -0.768658,2.479818 -2.08972,4.77621 -3.845271,6.688345 -3.007216,3.385725 -7.252596,5.643824 -11.751577,6.194285 -3.102375,0.401633 -6.280002,0.04024 -9.253131,-0.91013 z m 11.615756,-8.808134 c 0.452907,-0.374852 1.074245,-0.67513 1.256902,-1.272773 0.02812,-0.620027 -0.555544,-1.030651 -0.930281,-1.448402 -1.065612,-1.110361 -2.36243,-2.062025 -3.883736,-2.416625 -2.176937,-0.570845 -4.602779,0.137876 -6.163896,1.75024 -0.524281,0.583213 -1.22527,1.084408 -1.484888,1.850925 -0.0569,0.646767 0.637272,0.986824 1.062273,1.348403 1.538736,1.191013 3.564697,1.485565 5.459514,1.472243 1.622035,-0.05061 3.327523,-0.336666 4.684112,-1.284011 z m -8.86432,-9.328688 C 35.342456,33.790911 34.532856,32.384596 33.571075,31.175661 32.92624,30.466713 32.254489,29.745294 31.423179,29.254549 30.810189,28.873716 30.247789,29.500325 29.982392,30 c -0.773399,1.3718 -0.886296,2.994536 -0.931023,4.537112 0.007,1.864705 0.177897,3.792222 0.972566,5.503583 0.325911,0.537229 0.532683,1.212049 1.076995,1.571724 0.631535,0.167445 1.099742,-0.485178 1.551107,-0.824676 1.137171,-0.984583 2.238558,-2.119814 2.703945,-3.587539 0.197449,-0.597851 0.290638,-1.235818 0.223553,-1.864179 z m 14.172081,-0.569206 c -0.18718,-1.581298 -0.256373,-3.213062 -0.826152,-4.716035 -0.174585,-0.622956 -0.898482,-0.982261 -1.463192,-0.607312 -0.93752,0.532531 -1.741992,1.288375 -2.441995,2.103182 -1.330724,1.600043 -1.771566,3.888153 -1.077252,5.856755 0.514351,1.47575 1.501658,2.815523 2.817045,3.670111 0.625234,0.427068 1.572284,0.474 2.083337,-0.157713 0.840774,-1.032315 0.939219,-2.436127 1.0036,-3.713217 0.02249,-0.812897 -0.01806,-1.626596 -0.09539,-2.435771 z m -8.426959,1.57519 c 0.408442,-0.556432 0.02932,-1.296083 -0.303048,-1.799176 -0.39735,-0.550567 -1.031153,-1.241036 -1.786621,-0.96838 -0.86067,0.364725 -1.67682,1.132133 -1.77072,2.105748 0.03855,0.840722 1.016054,1.204597 1.732043,1.279833 0.746022,0.07062 1.573516,-0.08012 2.128346,-0.618025 z m 2.653751,-6.822469 c 0.754958,-0.722583 1.542976,-1.478957 1.980331,-2.444593 0.165703,-0.782164 -0.829796,-1.093492 -1.38713,-1.345444 -1.993441,-0.701378 -4.137071,-0.943515 -6.242522,-0.855933 -1.401642,0.06363 -2.746847,0.528695 -4.046775,1.021887 -0.574447,0.210037 -1.321416,0.736677 -0.980413,1.441334 0.429132,0.902857 1.17614,1.606475 1.864468,2.314515 1.506387,1.445702 3.75772,2.090347 5.786244,1.538214 1.129797,-0.287675 2.165532,-0.889277 3.025797,-1.66998 z"
       id="path798"
       sodipodi:nodetypes="sscssssssssssssssscsssssssssssssssssssssssssssssccccsscccccsssssssssssssssssssssssssss" />
  </g>
</svg>
