<?xml version="1.0" encoding="UTF-8" standalone="no"?>
<!-- Created with Inkscape (http://www.inkscape.org/) -->

<svg
   version="1.1"
   id="svg2"
   width="80"
   height="69"
   viewBox="0 0 80 69"
   sodipodi:docname="optical.svg"
   inkscape:version="1.2.2 (b0a8486541, 2022-12-01)"
   xmlns:inkscape="http://www.inkscape.org/namespaces/inkscape"
   xmlns:sodipodi="http://sodipodi.sourceforge.net/DTD/sodipodi-0.dtd"
   xmlns="http://www.w3.org/2000/svg"
   xmlns:svg="http://www.w3.org/2000/svg">
  <defs
     id="defs6" />
  <sodipodi:namedview
     id="namedview4"
     pagecolor="#ffffff"
     bordercolor="#666666"
     borderopacity="1.0"
     inkscape:showpageshadow="2"
     inkscape:pageopacity="0.0"
     inkscape:pagecheckerboard="0"
     inkscape:deskcolor="#d1d1d1"
     showgrid="false"
     inkscape:zoom="3.597352"
     inkscape:cx="-45.450097"
     inkscape:cy="58.793245"
     inkscape:window-width="1920"
     inkscape:window-height="1020"
     inkscape:window-x="0"
     inkscape:window-y="32"
     inkscape:window-maximized="1"
     inkscape:current-layer="g8" />
  <g
     inkscape:groupmode="layer"
     inkscape:label="Image"
     id="g8">
    <path
       style="fill:#000000"
       d="M 27.430884,55.869952 C 21.051342,53.206389 15.490178,48.881461 10.731597,43.917559 8.8478441,41.864309 7.0403883,39.62472 6.1397308,36.948744 5.7340757,35.279922 6.4620441,33.608645 7.3003927,32.198315 10.178225,27.334334 14.270532,23.277085 18.829052,19.97953 c 6.074309,-4.294297 13.418336,-6.944836 20.896172,-6.946178 5.734761,-0.02519 11.421961,1.46916 16.531547,4.03857 3.54575,1.794999 6.869494,4.045046 9.817166,6.713185 2.599071,2.382117 4.901999,5.143683 6.48621,8.307821 0.795834,1.629042 1.249156,3.553801 0.64647,5.32213 -0.838486,2.771253 -2.668458,5.092869 -4.545919,7.241629 -3.773828,4.219934 -8.432944,7.605742 -13.487841,10.12982 -4.479599,2.146773 -9.460449,3.105829 -14.409371,3.162298 -4.517521,0.09964 -9.086777,-0.488607 -13.332602,-2.078853 z m 23.79123,-5.454233 c 3.775138,-2.283219 6.433851,-6.345394 6.92347,-10.740269 0.711188,-4.502966 0.08192,-9.343055 -2.37997,-13.243956 -2.355123,-3.842511 -6.32865,-6.485248 -10.593356,-7.775732 -2.482194,-0.787249 -5.165801,-0.678294 -7.671605,-0.05971 -3.383492,0.695254 -6.74246,2.056149 -9.23703,4.511933 -3.100233,2.929657 -4.958725,7.085558 -5.19418,11.334817 -0.225185,3.039736 0.123509,6.149096 1.20946,9.006649 1.437084,3.056109 3.933606,5.448793 6.553649,7.506444 2.08903,1.573436 4.652546,2.629849 7.298722,2.564806 4.430475,0.120268 8.957658,-0.762349 12.841516,-2.950506 0.08364,-0.05062 0.166834,-0.102068 0.249324,-0.154477 z M 33.206433,45.520248 c -1.995088,-1.850687 -3.860016,-4.034115 -4.584906,-6.713929 -0.723383,-2.805225 -0.07586,-5.82711 1.308225,-8.326192 1.527317,-2.727002 3.949175,-5.076094 6.971183,-6.038189 1.199149,-0.396576 2.476336,-0.524783 3.73174,-0.439858 0.726746,-0.06756 1.671918,0.08775 1.987736,0.841251 0.15987,0.535482 -0.127174,1.078272 -0.228301,1.602497 -0.405528,1.623116 -0.05385,3.534905 1.246224,4.670458 1.292497,1.125841 3.366653,1.139296 4.692416,0.06233 0.67835,-0.47262 0.973526,-1.376133 1.76241,-1.698671 0.636026,-0.203718 1.103913,0.414601 1.446204,0.85249 0.77331,1.128984 1.277139,2.44406 1.411901,3.808872 0.310498,2.850232 -0.573663,5.705423 -1.929177,8.186662 -1.545789,2.723975 -4.223176,4.927815 -7.368434,5.427707 -3.508163,0.648051 -7.355351,0.06581 -10.262042,-2.089287 -0.06433,-0.04537 -0.123731,-0.09707 -0.185179,-0.146137 z m 5.962208,-12.445213 c -0.492886,-0.6283 -1.225321,-1.31326 -2.091354,-1.149849 -0.524891,0.161497 -0.906453,0.597411 -1.350755,0.903443 -0.442834,0.408473 -1.072733,0.772847 -1.153177,1.425248 -0.07485,0.792975 0.592552,1.345261 1.047447,1.898505 0.421258,0.441958 0.853318,0.903171 1.379948,1.214373 0.805672,0.269975 1.513666,-0.381633 2.038531,-0.907109 0.520015,-0.464995 1.243766,-0.936238 1.236283,-1.71915 -0.02028,-0.650614 -0.524225,-1.104778 -0.971118,-1.510117 l -0.06972,-0.07611 z M 21.354486,44.305979 C 19.406528,39.25093 19.47297,33.529261 21.171026,28.415832 c 0.591018,-1.613235 1.518332,-3.10159 1.899986,-4.790045 -0.159221,-0.648379 -0.945471,-0.431765 -1.302163,-0.0866 -2.823471,2.347144 -5.434131,4.950661 -7.791701,7.766233 -1.060009,1.231063 -2.170302,2.464841 -2.865727,3.947953 -0.202831,0.862998 0.483773,1.570339 0.948334,2.210527 2.798401,3.635118 5.915135,7.037257 9.401637,10.024277 0.35598,0.778135 1.433503,-0.09385 0.903449,-0.673392 -0.315237,-0.391296 -0.382396,-0.933546 -0.572127,-1.395475 -0.127863,-0.377844 -0.263141,-0.754356 -0.438228,-1.113326 z m 46.014521,-5.460271 c 0.538853,-1.16147 1.532442,-2.19364 1.527003,-3.544417 -0.01135,-0.664489 -0.463481,-1.219134 -0.807601,-1.755345 -1.487748,-2.022267 -3.121214,-3.939569 -4.877025,-5.734317 -1.164674,-1.168165 -2.405371,-2.272327 -3.778706,-3.188702 -0.442687,-0.374291 -1.286448,0.02126 -0.793261,0.594809 0.626184,1.508898 1.536623,2.891377 2.02914,4.458318 1.363675,3.945833 1.262682,8.316783 -0.0089,12.272374 -0.40083,1.384273 -0.896953,2.740249 -1.468366,4.063011 0.303214,0.601053 1.023856,0.217825 1.352974,-0.150914 0.678598,-0.667554 1.482367,-1.19297 2.179164,-1.843029 1.743496,-1.534104 3.321769,-3.26182 4.645604,-5.171788 z"
       id="path293" />
  </g>
</svg>
