<?xml version="1.0" encoding="UTF-8" standalone="no"?>
<!-- Created with Inkscape (http://www.inkscape.org/) -->

<svg
   width="5.018158mm"
   height="4.9917827mm"
   viewBox="0 0 5.0181579 4.9917826"
   version="1.1"
   id="svg1422"
   inkscape:version="1.2.2 (b0a8486541, 2022-12-01)"
   sodipodi:docname="other-players.svg"
   xmlns:inkscape="http://www.inkscape.org/namespaces/inkscape"
   xmlns:sodipodi="http://sodipodi.sourceforge.net/DTD/sodipodi-0.dtd"
   xmlns="http://www.w3.org/2000/svg"
   xmlns:svg="http://www.w3.org/2000/svg">
  <sodipodi:namedview
     id="namedview1424"
     pagecolor="#ffffff"
     bordercolor="#666666"
     borderopacity="1.0"
     inkscape:showpageshadow="2"
     inkscape:pageopacity="0.0"
     inkscape:pagecheckerboard="0"
     inkscape:deskcolor="#d1d1d1"
     inkscape:document-units="mm"
     showgrid="false"
     inkscape:zoom="17.910385"
     inkscape:cx="3.9920973"
     inkscape:cy="-0.92125323"
     inkscape:window-width="1920"
     inkscape:window-height="1020"
     inkscape:window-x="0"
     inkscape:window-y="32"
     inkscape:window-maximized="1"
     inkscape:current-layer="layer1" />
  <defs
     id="defs1419">
    <clipPath
       clipPathUnits="userSpaceOnUse"
       id="clipPath1585">
      <g
         id="g1589"
         transform="translate(-334.9748,-688.4194)">
        <path
           d="M 0,0 H 609.449 V 793.701 H 0 Z"
           id="path1587" />
      </g>
    </clipPath>
    <clipPath
       clipPathUnits="userSpaceOnUse"
       id="clipPath664">
      <path
         d="M 0,0 H 609.449 V 793.701 H 0 Z"
         id="path662" />
    </clipPath>
    <clipPath
       clipPathUnits="userSpaceOnUse"
       id="clipPath8157">
      <g
         id="g8161"
         transform="translate(-35.6922,-487.1561)">
        <path
           d="M 0,0 H 609.449 V 793.701 H 0 Z"
           id="path8159" />
      </g>
    </clipPath>
    <clipPath
       clipPathUnits="userSpaceOnUse"
       id="clipPath8151">
      <g
         id="g8155"
         transform="translate(-49.3377,-487.6971)">
        <path
           d="M 0,0 H 609.449 V 793.701 H 0 Z"
           id="path8153" />
      </g>
    </clipPath>
    <clipPath
       clipPathUnits="userSpaceOnUse"
       id="clipPath8145">
      <g
         id="g8149"
         transform="translate(-48.1717,-487.4276)">
        <path
           d="M 0,0 H 609.449 V 793.701 H 0 Z"
           id="path8147" />
      </g>
    </clipPath>
    <clipPath
       clipPathUnits="userSpaceOnUse"
       id="clipPath8139">
      <g
         id="g8143"
         transform="translate(-44.366,-492.3475)">
        <path
           d="M 0,0 H 609.449 V 793.701 H 0 Z"
           id="path8141" />
      </g>
    </clipPath>
    <clipPath
       clipPathUnits="userSpaceOnUse"
       id="clipPath8133">
      <g
         id="g8137"
         transform="translate(-46.6092,-491.7586)">
        <path
           d="M 0,0 H 609.449 V 793.701 H 0 Z"
           id="path8135" />
      </g>
    </clipPath>
    <clipPath
       clipPathUnits="userSpaceOnUse"
       id="clipPath8205">
      <g
         id="g8209"
         transform="translate(-45.1531,-464.5486)">
        <path
           d="M 0,0 H 609.449 V 793.701 H 0 Z"
           id="path8207" />
      </g>
    </clipPath>
    <clipPath
       clipPathUnits="userSpaceOnUse"
       id="clipPath8199">
      <g
         id="g8203"
         transform="translate(-42.3514,-462.9236)">
        <path
           d="M 0,0 H 609.449 V 793.701 H 0 Z"
           id="path8201" />
      </g>
    </clipPath>
    <clipPath
       clipPathUnits="userSpaceOnUse"
       id="clipPath8193">
      <g
         id="g8197"
         transform="translate(-49.6453,-468.3768)">
        <path
           d="M 0,0 H 609.449 V 793.701 H 0 Z"
           id="path8195" />
      </g>
    </clipPath>
    <clipPath
       clipPathUnits="userSpaceOnUse"
       id="clipPath8187">
      <g
         id="g8191"
         transform="translate(-45.8172,-467.1014)">
        <path
           d="M 0,0 H 609.449 V 793.701 H 0 Z"
           id="path8189" />
      </g>
    </clipPath>
    <clipPath
       clipPathUnits="userSpaceOnUse"
       id="clipPath8181">
      <g
         id="g8185"
         transform="translate(-45.9627,-464.6209)">
        <path
           d="M 0,0 H 609.449 V 793.701 H 0 Z"
           id="path8183" />
      </g>
    </clipPath>
    <clipPath
       clipPathUnits="userSpaceOnUse"
       id="clipPath8175">
      <g
         id="g8179"
         transform="translate(-44.1717,-464.3133)">
        <path
           d="M 0,0 H 609.449 V 793.701 H 0 Z"
           id="path8177" />
      </g>
    </clipPath>
    <clipPath
       clipPathUnits="userSpaceOnUse"
       id="clipPath8169">
      <g
         id="g8173"
         transform="translate(-41.0057,-463.2869)">
        <path
           d="M 0,0 H 609.449 V 793.701 H 0 Z"
           id="path8171" />
      </g>
    </clipPath>
    <clipPath
       clipPathUnits="userSpaceOnUse"
       id="clipPath8163">
      <g
         id="g8167"
         transform="translate(-40.7899,-456.6121)">
        <path
           d="M 0,0 H 609.449 V 793.701 H 0 Z"
           id="path8165" />
      </g>
    </clipPath>
    <clipPath
       clipPathUnits="userSpaceOnUse"
       id="clipPath8157-3">
      <g
         id="g8161-6"
         transform="translate(-35.6922,-487.1561)">
        <path
           d="M 0,0 H 609.449 V 793.701 H 0 Z"
           id="path8159-7" />
      </g>
    </clipPath>
    <clipPath
       clipPathUnits="userSpaceOnUse"
       id="clipPath8151-5">
      <g
         id="g8155-3"
         transform="translate(-49.3377,-487.6971)">
        <path
           d="M 0,0 H 609.449 V 793.701 H 0 Z"
           id="path8153-5" />
      </g>
    </clipPath>
    <clipPath
       clipPathUnits="userSpaceOnUse"
       id="clipPath8145-6">
      <g
         id="g8149-2"
         transform="translate(-48.1717,-487.4276)">
        <path
           d="M 0,0 H 609.449 V 793.701 H 0 Z"
           id="path8147-9" />
      </g>
    </clipPath>
    <clipPath
       clipPathUnits="userSpaceOnUse"
       id="clipPath8139-1">
      <g
         id="g8143-2"
         transform="translate(-44.366,-492.3475)">
        <path
           d="M 0,0 H 609.449 V 793.701 H 0 Z"
           id="path8141-7" />
      </g>
    </clipPath>
    <clipPath
       clipPathUnits="userSpaceOnUse"
       id="clipPath8133-0">
      <g
         id="g8137-9"
         transform="translate(-46.6092,-491.7586)">
        <path
           d="M 0,0 H 609.449 V 793.701 H 0 Z"
           id="path8135-3" />
      </g>
    </clipPath>
    <clipPath
       clipPathUnits="userSpaceOnUse"
       id="clipPath13791">
      <g
         id="g13797">
        <g
           id="g13795">
          <path
             d="M 0,0 H 609.449 V 793.701 H 0 Z"
             id="path13793" />
        </g>
      </g>
    </clipPath>
    <clipPath
       clipPathUnits="userSpaceOnUse"
       id="clipPath13896">
      <g
         id="g13902">
        <g
           id="g13900">
          <path
             d="M 0,0 H 609.449 V 793.701 H 0 Z"
             id="path13898" />
        </g>
      </g>
    </clipPath>
    <clipPath
       clipPathUnits="userSpaceOnUse"
       id="clipPath13881">
      <g
         id="g13887">
        <g
           id="g13885">
          <path
             d="M 0,0 H 609.449 V 793.701 H 0 Z"
             id="path13883" />
        </g>
      </g>
    </clipPath>
    <clipPath
       clipPathUnits="userSpaceOnUse"
       id="clipPath13806">
      <g
         id="g13812">
        <g
           id="g13810">
          <path
             d="M 0,0 H 609.449 V 793.701 H 0 Z"
             id="path13808" />
        </g>
      </g>
    </clipPath>
    <clipPath
       clipPathUnits="userSpaceOnUse"
       id="clipPath13821">
      <g
         id="g13827">
        <g
           id="g13825">
          <path
             d="M 0,0 H 609.449 V 793.701 H 0 Z"
             id="path13823" />
        </g>
      </g>
    </clipPath>
    <clipPath
       clipPathUnits="userSpaceOnUse"
       id="clipPath13911">
      <g
         id="g13917">
        <g
           id="g13915">
          <path
             d="M 0,0 H 609.449 V 793.701 H 0 Z"
             id="path13913" />
        </g>
      </g>
    </clipPath>
    <clipPath
       clipPathUnits="userSpaceOnUse"
       id="clipPath13866">
      <g
         id="g13872">
        <g
           id="g13870">
          <path
             d="M 0,0 H 609.449 V 793.701 H 0 Z"
             id="path13868" />
        </g>
      </g>
    </clipPath>
    <clipPath
       clipPathUnits="userSpaceOnUse"
       id="clipPath13836">
      <g
         id="g13842">
        <g
           id="g13840">
          <path
             d="M 0,0 H 609.449 V 793.701 H 0 Z"
             id="path13838" />
        </g>
      </g>
    </clipPath>
    <clipPath
       clipPathUnits="userSpaceOnUse"
       id="clipPath13851">
      <g
         id="g13857">
        <g
           id="g13855">
          <path
             d="M 0,0 H 609.449 V 793.701 H 0 Z"
             id="path13853" />
        </g>
      </g>
    </clipPath>
    <clipPath
       clipPathUnits="userSpaceOnUse"
       id="clipPath14939">
      <g
         id="g14943"
         transform="translate(-47.6111,-413.5244)">
        <path
           d="M 0,0 H 609.449 V 793.701 H 0 Z"
           id="path14941" />
      </g>
    </clipPath>
    <clipPath
       clipPathUnits="userSpaceOnUse"
       id="clipPath14933">
      <g
         id="g14937"
         transform="translate(-44.3924,-420.7109)">
        <path
           d="M 0,0 H 609.449 V 793.701 H 0 Z"
           id="path14935" />
      </g>
    </clipPath>
    <clipPath
       clipPathUnits="userSpaceOnUse"
       id="clipPath14927">
      <g
         id="g14931"
         transform="translate(-35.4949,-416.7852)">
        <path
           d="M 0,0 H 609.449 V 793.701 H 0 Z"
           id="path14929" />
      </g>
    </clipPath>
    <clipPath
       clipPathUnits="userSpaceOnUse"
       id="clipPath14921">
      <g
         id="g14925"
         transform="translate(-46.6404,-393.3848)">
        <path
           d="M 0,0 H 609.449 V 793.701 H 0 Z"
           id="path14923" />
      </g>
    </clipPath>
    <clipPath
       clipPathUnits="userSpaceOnUse"
       id="clipPath14915">
      <g
         id="g14919"
         transform="translate(-46.9734,-397.8965)">
        <path
           d="M 0,0 H 609.449 V 793.701 H 0 Z"
           id="path14917" />
      </g>
    </clipPath>
    <clipPath
       clipPathUnits="userSpaceOnUse"
       id="clipPath14909">
      <g
         id="g14913"
         transform="translate(-35.5633,-393.3027)">
        <path
           d="M 0,0 H 609.449 V 793.701 H 0 Z"
           id="path14911" />
      </g>
    </clipPath>
    <clipPath
       clipPathUnits="userSpaceOnUse"
       id="clipPath18083">
      <g
         id="g18087"
         transform="translate(-331.1849,-337.1262)">
        <path
           d="M 0,0 H 609.449 V 793.701 H 0 Z"
           id="path18085" />
      </g>
    </clipPath>
    <clipPath
       clipPathUnits="userSpaceOnUse"
       id="clipPath18077">
      <g
         id="g18081"
         transform="translate(-336.5472,-331.2395)">
        <path
           d="M 0,0 H 609.449 V 793.701 H 0 Z"
           id="path18079" />
      </g>
    </clipPath>
    <clipPath
       clipPathUnits="userSpaceOnUse"
       id="clipPath18071">
      <g
         id="g18075"
         transform="translate(-323.4349,-325.679)">
        <path
           d="M 0,0 H 609.449 V 793.701 H 0 Z"
           id="path18073" />
      </g>
    </clipPath>
    <clipPath
       clipPathUnits="userSpaceOnUse"
       id="clipPath19921">
      <g
         id="g19925"
         transform="translate(-331.0823,-311.4268)">
        <path
           d="M 0,0 H 609.449 V 793.701 H 0 Z"
           id="path19923" />
      </g>
    </clipPath>
    <clipPath
       clipPathUnits="userSpaceOnUse"
       id="clipPath19915">
      <g
         id="g19919"
         transform="translate(-342.5949,-277.9559)">
        <path
           d="M 0,0 H 609.449 V 793.701 H 0 Z"
           id="path19917" />
      </g>
    </clipPath>
    <clipPath
       clipPathUnits="userSpaceOnUse"
       id="clipPath22117">
      <g
         id="g22123">
        <g
           id="g22121">
          <path
             d="M 0,0 H 609.449 V 793.701 H 0 Z"
             id="path22119" />
        </g>
      </g>
    </clipPath>
    <clipPath
       clipPathUnits="userSpaceOnUse"
       id="clipPath22072">
      <g
         id="g22078">
        <g
           id="g22076">
          <path
             d="M 0,0 H 609.449 V 793.701 H 0 Z"
             id="path22074" />
        </g>
      </g>
    </clipPath>
    <clipPath
       clipPathUnits="userSpaceOnUse"
       id="clipPath21997">
      <g
         id="g22003">
        <g
           id="g22001">
          <path
             d="M 0,0 H 609.449 V 793.701 H 0 Z"
             id="path21999" />
        </g>
      </g>
    </clipPath>
    <clipPath
       clipPathUnits="userSpaceOnUse"
       id="clipPath22057">
      <g
         id="g22063">
        <g
           id="g22061">
          <path
             d="M 0,0 H 609.449 V 793.701 H 0 Z"
             id="path22059" />
        </g>
      </g>
    </clipPath>
    <clipPath
       clipPathUnits="userSpaceOnUse"
       id="clipPath22042">
      <g
         id="g22048">
        <g
           id="g22046">
          <path
             d="M 0,0 H 609.449 V 793.701 H 0 Z"
             id="path22044" />
        </g>
      </g>
    </clipPath>
    <clipPath
       clipPathUnits="userSpaceOnUse"
       id="clipPath22027">
      <g
         id="g22033">
        <g
           id="g22031">
          <path
             d="M 0,0 H 609.449 V 793.701 H 0 Z"
             id="path22029" />
        </g>
      </g>
    </clipPath>
    <clipPath
       clipPathUnits="userSpaceOnUse"
       id="clipPath22012">
      <g
         id="g22018">
        <g
           id="g22016">
          <path
             d="M 0,0 H 609.449 V 793.701 H 0 Z"
             id="path22014" />
        </g>
      </g>
    </clipPath>
    <clipPath
       clipPathUnits="userSpaceOnUse"
       id="clipPath21982">
      <g
         id="g21988">
        <g
           id="g21986">
          <path
             d="M 0,0 H 609.449 V 793.701 H 0 Z"
             id="path21984" />
        </g>
      </g>
    </clipPath>
    <clipPath
       clipPathUnits="userSpaceOnUse"
       id="clipPath22102">
      <g
         id="g22108">
        <g
           id="g22106">
          <path
             d="M 0,0 H 609.449 V 793.701 H 0 Z"
             id="path22104" />
        </g>
      </g>
    </clipPath>
    <clipPath
       clipPathUnits="userSpaceOnUse"
       id="clipPath25467">
      <g
         id="g25473">
        <g
           id="g25471">
          <path
             d="M 0,0 H 609.449 V 793.701 H 0 Z"
             id="path25469" />
        </g>
      </g>
    </clipPath>
    <clipPath
       clipPathUnits="userSpaceOnUse"
       id="clipPath25482">
      <g
         id="g25488">
        <g
           id="g25486">
          <path
             d="M 0,0 H 609.449 V 793.701 H 0 Z"
             id="path25484" />
        </g>
      </g>
    </clipPath>
    <clipPath
       clipPathUnits="userSpaceOnUse"
       id="clipPath25497">
      <g
         id="g25503">
        <g
           id="g25501">
          <path
             d="M 0,0 H 609.449 V 793.701 H 0 Z"
             id="path25499" />
        </g>
      </g>
    </clipPath>
    <clipPath
       clipPathUnits="userSpaceOnUse"
       id="clipPath25437">
      <g
         id="g25443">
        <g
           id="g25441">
          <path
             d="M 0,0 H 609.449 V 793.701 H 0 Z"
             id="path25439" />
        </g>
      </g>
    </clipPath>
    <clipPath
       clipPathUnits="userSpaceOnUse"
       id="clipPath25227">
      <g
         id="g25233">
        <g
           id="g25231">
          <path
             d="M 0,0 H 609.449 V 793.701 H 0 Z"
             id="path25229" />
        </g>
      </g>
    </clipPath>
    <clipPath
       clipPathUnits="userSpaceOnUse"
       id="clipPath25272">
      <g
         id="g25278">
        <g
           id="g25276">
          <path
             d="M 0,0 H 609.449 V 793.701 H 0 Z"
             id="path25274" />
        </g>
      </g>
    </clipPath>
    <clipPath
       clipPathUnits="userSpaceOnUse"
       id="clipPath25212">
      <g
         id="g25218">
        <g
           id="g25216">
          <path
             d="M 0,0 H 609.449 V 793.701 H 0 Z"
             id="path25214" />
        </g>
      </g>
    </clipPath>
    <clipPath
       clipPathUnits="userSpaceOnUse"
       id="clipPath25512">
      <g
         id="g25518">
        <g
           id="g25516">
          <path
             d="M 0,0 H 609.449 V 793.701 H 0 Z"
             id="path25514" />
        </g>
      </g>
    </clipPath>
    <clipPath
       clipPathUnits="userSpaceOnUse"
       id="clipPath25242">
      <g
         id="g25248">
        <g
           id="g25246">
          <path
             d="M 0,0 H 609.449 V 793.701 H 0 Z"
             id="path25244" />
        </g>
      </g>
    </clipPath>
    <clipPath
       clipPathUnits="userSpaceOnUse"
       id="clipPath25542">
      <g
         id="g25548">
        <g
           id="g25546">
          <path
             d="M 0,0 H 609.449 V 793.701 H 0 Z"
             id="path25544" />
        </g>
      </g>
    </clipPath>
    <clipPath
       clipPathUnits="userSpaceOnUse"
       id="clipPath25317">
      <g
         id="g25323">
        <g
           id="g25321">
          <path
             d="M 0,0 H 609.449 V 793.701 H 0 Z"
             id="path25319" />
        </g>
      </g>
    </clipPath>
    <clipPath
       clipPathUnits="userSpaceOnUse"
       id="clipPath25257">
      <g
         id="g25263">
        <g
           id="g25261">
          <path
             d="M 0,0 H 609.449 V 793.701 H 0 Z"
             id="path25259" />
        </g>
      </g>
    </clipPath>
    <clipPath
       clipPathUnits="userSpaceOnUse"
       id="clipPath25392">
      <g
         id="g25398">
        <g
           id="g25396">
          <path
             d="M 0,0 H 609.449 V 793.701 H 0 Z"
             id="path25394" />
        </g>
      </g>
    </clipPath>
    <clipPath
       clipPathUnits="userSpaceOnUse"
       id="clipPath25347">
      <g
         id="g25353">
        <g
           id="g25351">
          <path
             d="M 0,0 H 609.449 V 793.701 H 0 Z"
             id="path25349" />
        </g>
      </g>
    </clipPath>
    <clipPath
       clipPathUnits="userSpaceOnUse"
       id="clipPath25422">
      <g
         id="g25428">
        <g
           id="g25426">
          <path
             d="M 0,0 H 609.449 V 793.701 H 0 Z"
             id="path25424" />
        </g>
      </g>
    </clipPath>
    <clipPath
       clipPathUnits="userSpaceOnUse"
       id="clipPath25377">
      <g
         id="g25383">
        <g
           id="g25381">
          <path
             d="M 0,0 H 609.449 V 793.701 H 0 Z"
             id="path25379" />
        </g>
      </g>
    </clipPath>
    <clipPath
       clipPathUnits="userSpaceOnUse"
       id="clipPath25287">
      <g
         id="g25293">
        <g
           id="g25291">
          <path
             d="M 0,0 H 609.449 V 793.701 H 0 Z"
             id="path25289" />
        </g>
      </g>
    </clipPath>
    <clipPath
       clipPathUnits="userSpaceOnUse"
       id="clipPath25332">
      <g
         id="g25338">
        <g
           id="g25336">
          <path
             d="M 0,0 H 609.449 V 793.701 H 0 Z"
             id="path25334" />
        </g>
      </g>
    </clipPath>
    <clipPath
       clipPathUnits="userSpaceOnUse"
       id="clipPath25527">
      <g
         id="g25533">
        <g
           id="g25531">
          <path
             d="M 0,0 H 609.449 V 793.701 H 0 Z"
             id="path25529" />
        </g>
      </g>
    </clipPath>
    <clipPath
       clipPathUnits="userSpaceOnUse"
       id="clipPath816">
      <path
         d="M 0,0 H 609.449 V 793.701 H 0 Z"
         id="path814" />
    </clipPath>
    <clipPath
       clipPathUnits="userSpaceOnUse"
       id="clipPath18089">
      <g
         id="g18093"
         transform="translate(-332.5598,-350.9826)">
        <path
           d="M 0,0 H 609.449 V 793.701 H 0 Z"
           id="path18091" />
      </g>
    </clipPath>
  </defs>
  <g
     inkscape:label="Layer 1"
     inkscape:groupmode="layer"
     id="layer1"
     transform="translate(-105.49102,-155.87192)">
    <path
       style="color:#000000;fill:#000000;stroke-linecap:round;stroke-miterlimit:10;-inkscape-stroke:none;stroke:none;fill-opacity:1"
       d="m 333.82617,348.57031 a 0.2085,0.2085 0 0 0 -0.20898,0.20899 0.2085,0.2085 0 0 0 0.20898,0.20703 h 2.65625 c 0.0354,0 0.0601,0.0138 0.0859,0.043 l 0.006,0.006 0.008,0.008 c 0.002,0.002 0.0431,0.11262 0.0469,0.12305 v 0.35156 0.28125 c -3.8e-4,0.002 -0.003,0.006 -0.002,0.004 l -0.002,0.002 v 0.004 c -0.0722,0.23341 -0.24866,0.59646 -1.04297,0.95508 -0.0176,0.005 -0.66943,0.20695 -1.75,0.58594 l -0.13086,0.0449 -0.008,0.14063 c -0.003,0.0482 -0.0297,0.12594 -0.0684,0.17578 -0.0387,0.0498 -0.0723,0.0723 -0.12695,0.0723 h -0.57813 l 0.0742,1.10352 0.11133,0.0527 c 0.49075,0.22962 0.67825,0.54457 0.77344,1.03711 0.021,0.11021 0.0526,0.42525 0.0781,0.75977 0.0255,0.33452 0.0485,0.70011 0.0645,0.95508 a 0.2085,0.2085 0 0 0 0.22071,0.19336 0.2085,0.2085 0 0 0 0.19531,-0.22071 c -0.016,-0.25503 -0.0406,-0.6205 -0.0664,-0.95898 -0.0258,-0.33848 -0.05,-0.63885 -0.082,-0.80664 -0.0979,-0.50648 -0.42068,-0.8917 -0.88867,-1.17969 l -0.0332,-0.51953 h 0.13086 c 0.19638,0 0.35947,-0.10676 0.45703,-0.23242 0.0594,-0.0766 0.0686,-0.16456 0.0937,-0.25 1.0047,-0.3501 1.67969,-0.5625 1.67969,-0.5625 l 0.0137,-0.004 0.0117,-0.006 c 0.87569,-0.39537 1.16973,-0.8903 1.26953,-1.21289 0.008,-0.0243 0.0122,-0.0442 0.0156,-0.0625 0.004,-0.0206 0.008,-0.0269 0.008,-0.0703 v -0.28125 -0.38477 l -0.002,-0.0137 c 0,0 -0.007,-0.20508 -0.17383,-0.37109 -0.0961,-0.10453 -0.23386,-0.17774 -0.38867,-0.17774 z m -4.20898,2.35352 a 0.2085,0.2085 0 0 0 -0.26367,0.13476 0.2085,0.2085 0 0 0 0.13476,0.26172 c 0.29331,0.0941 0.66967,0.22526 1.07031,0.375 0.0246,0.0877 0.036,0.17634 0.0957,0.25781 0.095,0.12963 0.25721,0.2461 0.45898,0.2461 h 0.13086 l -0.0332,0.48047 c -0.3199,0.16673 -0.58897,0.38851 -0.71875,0.66797 a 0.2085,0.2085 0 0 0 0.10156,0.27734 0.2085,0.2085 0 0 0 0.27734,-0.10156 c 0.11991,-0.25819 0.29765,-0.46502 0.61328,-0.57617 l 0.12891,-0.0449 0.0781,-1.11914 h -0.57813 c -0.0512,0 -0.0828,-0.0213 -0.12305,-0.0762 -0.0402,-0.0549 -0.0684,-0.14269 -0.0723,-0.19531 l -0.01,-0.13281 -0.125,-0.0469 c -0.44269,-0.1674 -0.84473,-0.30515 -1.16601,-0.4082 z"
       id="path768"
       transform="matrix(0.35277777,0,0,-0.35277777,-8.3931915,283.24277)" />
    <path
       d="m 332.1019,359.6789 c 1.087,0.019 2.275,0.188 2.273,0.377 -0.003,0.187 -1.198,0.318 -2.285,0.299 -0.307,-0.005 -0.621,-0.024 -0.916,-0.051 l -0.035,-0.604 c 0.309,-0.018 0.64,-0.027 0.963,-0.021"
       style="fill:#000000;fill-opacity:1;fill-rule:nonzero;stroke:none"
       id="path772"
       clip-path="url(#clipPath25317)"
       transform="matrix(0.35277777,0,0,-0.35277777,-8.3931915,283.24277)" />
    <path
       d="m 332.1439,357.0139 c 1.008,0.019 1.954,0.165 2.07,0.335 l 0.153,2.481 c -0.006,-0.002 -0.024,-0.004 -0.045,-0.007 -0.128,-0.057 -0.333,-0.11 -0.653,-0.163 -0.449,-0.07 -1.023,-0.117 -1.565,-0.126 -0.328,-0.005 -0.657,0.005 -0.973,0.025 l -0.144,-2.503 c 0.338,-0.033 0.738,-0.05 1.157,-0.042"
       style="fill:#000000;fill-opacity:1;fill-rule:nonzero;stroke:none"
       id="path776"
       clip-path="url(#clipPath25257)"
       transform="matrix(0.35277777,0,0,-0.35277777,-8.3931915,283.24277)" />
    <path
       d="m 335.2034,356.3596 c -0.364,0.314 -0.94,0.271 -1.089,0.255 -0.009,0 -0.018,0 -0.02,-0.002 -0.488,-0.065 -0.942,-0.281 -1.384,-0.494 -0.098,-0.047 -0.195,-0.089 -0.292,-0.135 0.019,-0.053 0.044,-0.101 0.058,-0.16 10e-4,-0.008 0,-0.015 10e-4,-0.023 0.615,0.307 1.192,0.58 1.627,0.626 0.074,0.009 0.141,0.014 0.206,0.015 0.476,0.009 0.713,-0.153 0.832,-0.289 0.115,-0.135 0.163,-0.307 0.13,-0.482 -0.005,-0.04 -0.016,-0.073 -0.032,-0.102 0.02,-0.009 0.039,-0.012 0.062,-0.013 0.099,0.002 0.177,0.082 0.176,0.184 -0.004,0.253 -0.099,0.467 -0.275,0.62"
       style="fill:#000000;fill-opacity:1;fill-rule:nonzero;stroke:none"
       id="path780"
       clip-path="url(#clipPath25392)"
       transform="matrix(0.35277777,0,0,-0.35277777,-8.3931915,283.24277)" />
    <path
       d="m 335.0305,356.0578 c -0.136,0.161 -0.392,0.245 -0.717,0.241 -0.063,-0.003 -0.127,-0.005 -0.195,-0.013 -0.419,-0.046 -1.025,-0.337 -1.627,-0.639 0.007,-0.099 0.004,-0.193 -0.012,-0.283 0.343,0.087 0.688,0.167 1.021,0.198 0.29,0.029 0.588,-0.008 0.845,-0.037 0.167,-0.019 0.324,-0.038 0.451,-0.036 0.251,0.006 0.313,0.085 0.333,0.205 0.024,0.135 -0.011,0.263 -0.099,0.364"
       style="fill:#000000;fill-opacity:1;fill-rule:nonzero;stroke:none"
       id="path784"
       clip-path="url(#clipPath25347)"
       transform="matrix(0.35277777,0,0,-0.35277777,-8.3931915,283.24277)" />
    <path
       d="m 332.0131,356.259 c -0.437,0.378 -1.127,0.325 -1.306,0.306 -0.009,10e-4 -0.019,0 -0.023,-0.002 -0.584,-0.076 -1.13,-0.337 -1.658,-0.592 -0.224,-0.108 -0.447,-0.215 -0.667,-0.308 l -0.003,0.002 c -0.663,-0.274 -1.332,-0.416 -2.101,-0.081 l -0.001,10e-4 c -0.029,0.012 -0.037,0.019 -0.068,0.032 -0.048,0.025 -0.097,0.048 -0.144,0.076 -0.006,0.004 -0.013,0.005 -0.018,0.01 l -0.08,0.81 c -0.298,-0.109 -2.059,-1.094 -0.531,-1.841 0.308,-0.151 0.763,-0.156 1.475,0.067 0.494,0.17 1.061,0.453 1.62,0.732 0.826,0.417 1.609,0.808 2.189,0.87 0.087,0.011 0.168,0.017 0.247,0.018 0.57,0.01 0.854,-0.184 0.995,-0.347 0.138,-0.161 0.195,-0.367 0.157,-0.579 -0.007,-0.047 -0.02,-0.086 -0.038,-0.121 0.023,-0.011 0.047,-0.015 0.073,-0.016 0.12,0.003 0.213,0.099 0.212,0.221 -0.005,0.303 -0.119,0.559 -0.33,0.742"
       style="fill:#000000;fill-opacity:1;fill-rule:nonzero;stroke:none"
       id="path788"
       clip-path="url(#clipPath25422)"
       transform="matrix(0.35277777,0,0,-0.35277777,-8.3931915,283.24277)" />
    <path
       d="m 330.9467,356.1867 c -0.075,-0.003 -0.151,-0.006 -0.233,-0.016 -0.545,-0.06 -1.352,-0.463 -2.13,-0.856 -0.442,-0.219 -0.891,-0.443 -1.309,-0.615 0.34,0.067 0.687,0.161 1.028,0.253 0.552,0.147 1.125,0.299 1.669,0.35 0.348,0.035 0.705,-0.009 1.012,-0.044 0.201,-0.022 0.39,-0.047 0.542,-0.044 0.3,0.007 0.376,0.103 0.4,0.247 0.028,0.161 -0.014,0.316 -0.12,0.437 -0.162,0.192 -0.468,0.293 -0.859,0.288"
       style="fill:#000000;fill-opacity:1;fill-rule:nonzero;stroke:none"
       id="path792"
       clip-path="url(#clipPath25377)"
       transform="matrix(0.35277777,0,0,-0.35277777,-8.3931915,283.24277)" />
    <path
       d="m 328.2816,361.049 c -1.302,-0.022 -2.729,-0.227 -2.726,-0.452 0.004,-0.225 1.438,-0.381 2.74,-0.358 1.303,0.022 2.728,0.226 2.725,0.453 -0.004,0.223 -1.436,0.38 -2.739,0.357"
       style="fill:#000000;fill-opacity:1;fill-rule:nonzero;stroke:none"
       id="path796"
       clip-path="url(#clipPath25287)"
       transform="matrix(0.35277777,0,0,-0.35277777,-8.3931915,283.24277)" />
    <path
       d="m 330.1752,360.217 c -0.54,-0.085 -1.228,-0.141 -1.877,-0.151 -0.652,-0.013 -1.337,0.019 -1.882,0.088 -0.428,0.054 -0.686,0.116 -0.835,0.187 l 0.282,-2.95 c 0.059,-0.214 1.21,-0.369 2.483,-0.347 1.207,0.023 2.343,0.197 2.481,0.402 l 0.183,2.975 c -0.007,-0.003 -0.028,-0.007 -0.054,-0.01 -0.153,-0.068 -0.399,-0.132 -0.781,-0.194"
       style="fill:#000000;fill-opacity:1;fill-rule:nonzero;stroke:none"
       id="path800"
       clip-path="url(#clipPath25332)"
       transform="matrix(0.35277777,0,0,-0.35277777,-8.3931915,283.24277)" />
    <path
       style="color:#000000;fill:#000000;stroke-linecap:round;stroke-miterlimit:10;-inkscape-stroke:none;stroke:none;fill-opacity:1"
       d="m 323.48633,346.90039 c -0.0823,0 -0.14003,0.0222 -0.16602,0.0293 -0.13043,0.0347 -0.25626,0.11092 -0.3457,0.22851 -0.0494,0.0655 -0.10169,0.14846 -0.12891,0.25391 l -0.002,0.0137 -0.0215,0.15039 v 0.8457 0.008 c 0.0166,0.2863 0.1205,0.58461 0.35156,0.84179 0.23106,0.25719 0.57537,0.47441 1.07422,0.66797 l 0.0137,0.006 0.0117,0.004 c 0,0 0.97307,0.27303 2.1582,0.71484 0.0297,0.10585 0.0449,0.2143 0.11719,0.3125 0.11465,0.15585 0.31007,0.29492 0.55273,0.29492 h 0.15821 l -0.0391,0.55274 c -0.65031,0.3259 -0.96873,0.94134 -1.07226,1.49414 v 0.002 c -0.0235,0.12997 -0.0384,0.3369 -0.0566,0.58008 -0.0182,0.24318 -0.0357,0.50933 -0.0527,0.69727 a 0.25,0.25 0 0 0 0.22656,0.27148 0.25,0.25 0 0 0 0.27149,-0.22656 c 0.018,-0.19807 0.0347,-0.46426 0.0527,-0.70508 0.018,-0.23994 0.0403,-0.46633 0.0508,-0.52539 v -0.002 c 0.0982,-0.52294 0.31701,-1.03366 0.90625,-1.24024 l 0.15625,-0.0547 0.0918,-1.34375 h -0.69336 c -0.0623,0 -0.10154,-0.0254 -0.15039,-0.0918 -0.0488,-0.0664 -0.0832,-0.1729 -0.0879,-0.23633 l -0.0117,-0.1582 -0.15039,-0.0566 c -1.26952,-0.48206 -2.24957,-0.74794 -2.27148,-0.75391 -0.45215,-0.17544 -0.72658,-0.36104 -0.88477,-0.53711 -0.157,-0.17475 -0.21072,-0.33944 -0.22265,-0.5332 v -0.79297 l 0.01,-0.0801 c 0.005,-0.0179 0.019,-0.0408 0.041,-0.0703 0.018,-0.0236 0.0395,-0.0392 0.0762,-0.0488 h 0.002 0.002 c 0.04,-0.0109 0.0435,-0.0117 0.0332,-0.0117 h 10.07812 c 0.046,0 0.0729,0.0138 0.10547,0.0508 l 0.01,0.01 0.008,0.008 c 0.003,0.003 0.0528,0.13985 0.0566,0.15039 v 0.42383 0.33789 c 0,-0.0693 -0.008,0.0165 -0.004,0.006 v 0.004 l -0.002,0.004 c -0.0864,0.28189 -0.29875,0.71841 -1.25586,1.14844 -0.022,0.007 -0.80668,0.2471 -2.10742,0.70508 l -0.1582,0.0566 -0.008,0.16601 c -0.003,0.058 -0.0351,0.15455 -0.082,0.21485 -0.0469,0.0603 -0.0891,0.0859 -0.15429,0.0859 h -0.69336 l 0.0879,1.32618 0.13476,0.0625 c 0.59072,0.27645 0.81605,0.65881 0.92969,1.25195 0.0255,0.13108 0.0633,0.51114 0.0937,0.91406 0.0304,0.40292 0.0572,0.84291 0.0762,1.15039 a 0.25,0.25 0 0 0 0.26563,0.23438 0.25,0.25 0 0 0 0.23437,-0.26563 c -0.019,-0.30751 -0.0473,-0.74842 -0.0781,-1.15625 -0.0308,-0.40783 -0.0621,-0.76778 -0.10157,-0.9707 h 0.002 c -0.12125,-0.63284 -0.46685,-1.15211 -1.07227,-1.49805 l -0.0391,-0.54883 h 0.16016 c 0.23577,0 0.43146,-0.12834 0.54882,-0.27929 0.0719,-0.0925 0.0849,-0.19925 0.11524,-0.30274 1.20803,-0.4224 2.02148,-0.67968 2.02148,-0.67968 l 0.0156,-0.004 0.0137,-0.006 c 1.04922,-0.47142 1.40393,-1.06098 1.52539,-1.45117 v -0.002 c 0.0231,-0.0665 0.0312,-0.0698 0.0312,-0.16601 v -0.33789 -0.46485 l -0.002,-0.0156 c 0,0 -0.007,-0.24732 -0.20703,-0.44727 -0.11541,-0.1257 -0.28536,-0.21484 -0.47071,-0.21484 z"
       id="path804"
       transform="matrix(0.35277777,0,0,-0.35277777,-8.3931915,283.24277)" />
    <g
       id="g806"
       transform="matrix(0.35277777,0,0,-0.35277777,107.51815,159.61304)"
       style="stroke:none;fill:#000000;fill-opacity:1">
      <path
         style="color:#000000;fill:#000000;stroke:none;stroke-miterlimit:10;-inkscape-stroke:none;fill-opacity:1"
         d="M -0.70703125,-3.4199219 -1.15625,0.8046875 0,0.14453125 1.15625,0.8046875 0.70507812,-3.4199219 H 0 Z m 0.22460937,0.25 H 0 0.48046875 l 0.375,3.5136719 L 0,-0.14453125 -0.0625,-0.109375 -0.85546875,0.34375 Z"
         id="path808" />
    </g>
    <g
       id="g810"
       transform="matrix(0.35277777,0,0,-0.35277777,-8.3931915,283.24277)"
       style="fill:#000000;fill-opacity:1;stroke:none">
      <g
         id="g812"
         clip-path="url(#clipPath816)"
         style="fill:#000000;fill-opacity:1;stroke:none">
        <g
           id="g818"
           transform="translate(328.8655,349.8108)"
           style="fill:#000000;fill-opacity:1;stroke:none">
          <path
             d="m 0,0 c 0,-0.166 -0.134,-0.299 -0.298,-0.299 -0.166,0 -0.298,0.133 -0.298,0.299 0,0.165 0.132,0.298 0.298,0.298 C -0.134,0.298 0,0.165 0,0"
             style="fill:#000000;fill-opacity:1;fill-rule:nonzero;stroke:none"
             id="path820" />
        </g>
        <g
           id="g822"
           transform="translate(328.8655,348.2795)"
           style="fill:#000000;fill-opacity:1;stroke:none">
          <path
             d="m 0,0 c 0,-0.167 -0.134,-0.299 -0.298,-0.299 -0.166,0 -0.298,0.132 -0.298,0.299 0,0.164 0.132,0.298 0.298,0.298 C -0.134,0.298 0,0.164 0,0"
             style="fill:#000000;fill-opacity:1;fill-rule:nonzero;stroke:none"
             id="path824" />
        </g>
      </g>
    </g>
    <g
       id="g826"
       transform="matrix(0.35277777,0,0,-0.35277777,109.04505,159.90517)"
       style="stroke:none;fill:#000000;fill-opacity:1">
      <path
         style="color:#000000;fill:#000000;stroke:none;stroke-miterlimit:10;-inkscape-stroke:none;fill-opacity:1"
         d="M 0.125,-0.01367188 -0.125,0.01367188 0.10351562,2.1425781 -0.58398437,1.75 -1.2714844,2.1425781 -1.09375,0.45898438 -1.3417969,0.43359375 -1.5722656,2.6035156 -0.58398437,2.0371094 0.40429688,2.6035156 Z"
         id="path828" />
    </g>
    <g
       id="g838"
       transform="matrix(0.35277777,0,0,-0.35277777,108.92651,159.42391)"
       clip-path="url(#clipPath18089)"
       style="fill:#000000;fill-opacity:1;stroke:none">
      <path
         d="m 0,0 c 0,-0.139 -0.111,-0.249 -0.248,-0.249 -0.139,0 -0.248,0.11 -0.248,0.249 0,0.137 0.109,0.248 0.248,0.248 C -0.111,0.248 0,0.137 0,0"
         style="fill:#000000;fill-opacity:1;fill-rule:nonzero;stroke:none"
         id="path840" />
    </g>
  </g>
</svg>
