<?xml version="1.0" encoding="UTF-8" standalone="no"?>
<!-- Created with Inkscape (http://www.inkscape.org/) -->

<svg
   width="7.9001055mm"
   height="12.046656mm"
   viewBox="0 0 7.9001053 12.046655"
   version="1.1"
   id="svg1422"
   inkscape:version="1.2.2 (b0a8486541, 2022-12-01)"
   sodipodi:docname="performance.svg"
   xmlns:inkscape="http://www.inkscape.org/namespaces/inkscape"
   xmlns:sodipodi="http://sodipodi.sourceforge.net/DTD/sodipodi-0.dtd"
   xmlns="http://www.w3.org/2000/svg"
   xmlns:svg="http://www.w3.org/2000/svg">
  <sodipodi:namedview
     id="namedview1424"
     pagecolor="#ffffff"
     bordercolor="#666666"
     borderopacity="1.0"
     inkscape:showpageshadow="2"
     inkscape:pageopacity="0.0"
     inkscape:pagecheckerboard="0"
     inkscape:deskcolor="#d1d1d1"
     inkscape:document-units="mm"
     showgrid="false"
     inkscape:zoom="10.003351"
     inkscape:cx="1.9493468"
     inkscape:cy="26.940973"
     inkscape:window-width="1920"
     inkscape:window-height="1020"
     inkscape:window-x="0"
     inkscape:window-y="32"
     inkscape:window-maximized="1"
     inkscape:current-layer="layer1" />
  <defs
     id="defs1419">
    <clipPath
       clipPathUnits="userSpaceOnUse"
       id="clipPath1585">
      <g
         id="g1589"
         transform="translate(-334.9748,-688.4194)">
        <path
           d="M 0,0 H 609.449 V 793.701 H 0 Z"
           id="path1587" />
      </g>
    </clipPath>
    <clipPath
       clipPathUnits="userSpaceOnUse"
       id="clipPath664">
      <path
         d="M 0,0 H 609.449 V 793.701 H 0 Z"
         id="path662" />
    </clipPath>
    <clipPath
       clipPathUnits="userSpaceOnUse"
       id="clipPath8157">
      <g
         id="g8161"
         transform="translate(-35.6922,-487.1561)">
        <path
           d="M 0,0 H 609.449 V 793.701 H 0 Z"
           id="path8159" />
      </g>
    </clipPath>
    <clipPath
       clipPathUnits="userSpaceOnUse"
       id="clipPath8151">
      <g
         id="g8155"
         transform="translate(-49.3377,-487.6971)">
        <path
           d="M 0,0 H 609.449 V 793.701 H 0 Z"
           id="path8153" />
      </g>
    </clipPath>
    <clipPath
       clipPathUnits="userSpaceOnUse"
       id="clipPath8145">
      <g
         id="g8149"
         transform="translate(-48.1717,-487.4276)">
        <path
           d="M 0,0 H 609.449 V 793.701 H 0 Z"
           id="path8147" />
      </g>
    </clipPath>
    <clipPath
       clipPathUnits="userSpaceOnUse"
       id="clipPath8139">
      <g
         id="g8143"
         transform="translate(-44.366,-492.3475)">
        <path
           d="M 0,0 H 609.449 V 793.701 H 0 Z"
           id="path8141" />
      </g>
    </clipPath>
    <clipPath
       clipPathUnits="userSpaceOnUse"
       id="clipPath8133">
      <g
         id="g8137"
         transform="translate(-46.6092,-491.7586)">
        <path
           d="M 0,0 H 609.449 V 793.701 H 0 Z"
           id="path8135" />
      </g>
    </clipPath>
    <clipPath
       clipPathUnits="userSpaceOnUse"
       id="clipPath8205">
      <g
         id="g8209"
         transform="translate(-45.1531,-464.5486)">
        <path
           d="M 0,0 H 609.449 V 793.701 H 0 Z"
           id="path8207" />
      </g>
    </clipPath>
    <clipPath
       clipPathUnits="userSpaceOnUse"
       id="clipPath8199">
      <g
         id="g8203"
         transform="translate(-42.3514,-462.9236)">
        <path
           d="M 0,0 H 609.449 V 793.701 H 0 Z"
           id="path8201" />
      </g>
    </clipPath>
    <clipPath
       clipPathUnits="userSpaceOnUse"
       id="clipPath8193">
      <g
         id="g8197"
         transform="translate(-49.6453,-468.3768)">
        <path
           d="M 0,0 H 609.449 V 793.701 H 0 Z"
           id="path8195" />
      </g>
    </clipPath>
    <clipPath
       clipPathUnits="userSpaceOnUse"
       id="clipPath8187">
      <g
         id="g8191"
         transform="translate(-45.8172,-467.1014)">
        <path
           d="M 0,0 H 609.449 V 793.701 H 0 Z"
           id="path8189" />
      </g>
    </clipPath>
    <clipPath
       clipPathUnits="userSpaceOnUse"
       id="clipPath8181">
      <g
         id="g8185"
         transform="translate(-45.9627,-464.6209)">
        <path
           d="M 0,0 H 609.449 V 793.701 H 0 Z"
           id="path8183" />
      </g>
    </clipPath>
    <clipPath
       clipPathUnits="userSpaceOnUse"
       id="clipPath8175">
      <g
         id="g8179"
         transform="translate(-44.1717,-464.3133)">
        <path
           d="M 0,0 H 609.449 V 793.701 H 0 Z"
           id="path8177" />
      </g>
    </clipPath>
    <clipPath
       clipPathUnits="userSpaceOnUse"
       id="clipPath8169">
      <g
         id="g8173"
         transform="translate(-41.0057,-463.2869)">
        <path
           d="M 0,0 H 609.449 V 793.701 H 0 Z"
           id="path8171" />
      </g>
    </clipPath>
    <clipPath
       clipPathUnits="userSpaceOnUse"
       id="clipPath8163">
      <g
         id="g8167"
         transform="translate(-40.7899,-456.6121)">
        <path
           d="M 0,0 H 609.449 V 793.701 H 0 Z"
           id="path8165" />
      </g>
    </clipPath>
    <clipPath
       clipPathUnits="userSpaceOnUse"
       id="clipPath8157-3">
      <g
         id="g8161-6"
         transform="translate(-35.6922,-487.1561)">
        <path
           d="M 0,0 H 609.449 V 793.701 H 0 Z"
           id="path8159-7" />
      </g>
    </clipPath>
    <clipPath
       clipPathUnits="userSpaceOnUse"
       id="clipPath8151-5">
      <g
         id="g8155-3"
         transform="translate(-49.3377,-487.6971)">
        <path
           d="M 0,0 H 609.449 V 793.701 H 0 Z"
           id="path8153-5" />
      </g>
    </clipPath>
    <clipPath
       clipPathUnits="userSpaceOnUse"
       id="clipPath8145-6">
      <g
         id="g8149-2"
         transform="translate(-48.1717,-487.4276)">
        <path
           d="M 0,0 H 609.449 V 793.701 H 0 Z"
           id="path8147-9" />
      </g>
    </clipPath>
    <clipPath
       clipPathUnits="userSpaceOnUse"
       id="clipPath8139-1">
      <g
         id="g8143-2"
         transform="translate(-44.366,-492.3475)">
        <path
           d="M 0,0 H 609.449 V 793.701 H 0 Z"
           id="path8141-7" />
      </g>
    </clipPath>
    <clipPath
       clipPathUnits="userSpaceOnUse"
       id="clipPath8133-0">
      <g
         id="g8137-9"
         transform="translate(-46.6092,-491.7586)">
        <path
           d="M 0,0 H 609.449 V 793.701 H 0 Z"
           id="path8135-3" />
      </g>
    </clipPath>
    <clipPath
       clipPathUnits="userSpaceOnUse"
       id="clipPath13791">
      <g
         id="g13797">
        <g
           id="g13795">
          <path
             d="M 0,0 H 609.449 V 793.701 H 0 Z"
             id="path13793" />
        </g>
      </g>
    </clipPath>
    <clipPath
       clipPathUnits="userSpaceOnUse"
       id="clipPath13896">
      <g
         id="g13902">
        <g
           id="g13900">
          <path
             d="M 0,0 H 609.449 V 793.701 H 0 Z"
             id="path13898" />
        </g>
      </g>
    </clipPath>
    <clipPath
       clipPathUnits="userSpaceOnUse"
       id="clipPath13881">
      <g
         id="g13887">
        <g
           id="g13885">
          <path
             d="M 0,0 H 609.449 V 793.701 H 0 Z"
             id="path13883" />
        </g>
      </g>
    </clipPath>
    <clipPath
       clipPathUnits="userSpaceOnUse"
       id="clipPath13806">
      <g
         id="g13812">
        <g
           id="g13810">
          <path
             d="M 0,0 H 609.449 V 793.701 H 0 Z"
             id="path13808" />
        </g>
      </g>
    </clipPath>
    <clipPath
       clipPathUnits="userSpaceOnUse"
       id="clipPath13821">
      <g
         id="g13827">
        <g
           id="g13825">
          <path
             d="M 0,0 H 609.449 V 793.701 H 0 Z"
             id="path13823" />
        </g>
      </g>
    </clipPath>
    <clipPath
       clipPathUnits="userSpaceOnUse"
       id="clipPath13911">
      <g
         id="g13917">
        <g
           id="g13915">
          <path
             d="M 0,0 H 609.449 V 793.701 H 0 Z"
             id="path13913" />
        </g>
      </g>
    </clipPath>
    <clipPath
       clipPathUnits="userSpaceOnUse"
       id="clipPath13866">
      <g
         id="g13872">
        <g
           id="g13870">
          <path
             d="M 0,0 H 609.449 V 793.701 H 0 Z"
             id="path13868" />
        </g>
      </g>
    </clipPath>
    <clipPath
       clipPathUnits="userSpaceOnUse"
       id="clipPath13836">
      <g
         id="g13842">
        <g
           id="g13840">
          <path
             d="M 0,0 H 609.449 V 793.701 H 0 Z"
             id="path13838" />
        </g>
      </g>
    </clipPath>
    <clipPath
       clipPathUnits="userSpaceOnUse"
       id="clipPath13851">
      <g
         id="g13857">
        <g
           id="g13855">
          <path
             d="M 0,0 H 609.449 V 793.701 H 0 Z"
             id="path13853" />
        </g>
      </g>
    </clipPath>
    <clipPath
       clipPathUnits="userSpaceOnUse"
       id="clipPath14939">
      <g
         id="g14943"
         transform="translate(-47.6111,-413.5244)">
        <path
           d="M 0,0 H 609.449 V 793.701 H 0 Z"
           id="path14941" />
      </g>
    </clipPath>
    <clipPath
       clipPathUnits="userSpaceOnUse"
       id="clipPath14933">
      <g
         id="g14937"
         transform="translate(-44.3924,-420.7109)">
        <path
           d="M 0,0 H 609.449 V 793.701 H 0 Z"
           id="path14935" />
      </g>
    </clipPath>
    <clipPath
       clipPathUnits="userSpaceOnUse"
       id="clipPath14927">
      <g
         id="g14931"
         transform="translate(-35.4949,-416.7852)">
        <path
           d="M 0,0 H 609.449 V 793.701 H 0 Z"
           id="path14929" />
      </g>
    </clipPath>
    <clipPath
       clipPathUnits="userSpaceOnUse"
       id="clipPath14921">
      <g
         id="g14925"
         transform="translate(-46.6404,-393.3848)">
        <path
           d="M 0,0 H 609.449 V 793.701 H 0 Z"
           id="path14923" />
      </g>
    </clipPath>
    <clipPath
       clipPathUnits="userSpaceOnUse"
       id="clipPath14915">
      <g
         id="g14919"
         transform="translate(-46.9734,-397.8965)">
        <path
           d="M 0,0 H 609.449 V 793.701 H 0 Z"
           id="path14917" />
      </g>
    </clipPath>
    <clipPath
       clipPathUnits="userSpaceOnUse"
       id="clipPath14909">
      <g
         id="g14913"
         transform="translate(-35.5633,-393.3027)">
        <path
           d="M 0,0 H 609.449 V 793.701 H 0 Z"
           id="path14911" />
      </g>
    </clipPath>
    <clipPath
       clipPathUnits="userSpaceOnUse"
       id="clipPath18083">
      <g
         id="g18087"
         transform="translate(-331.1849,-337.1262)">
        <path
           d="M 0,0 H 609.449 V 793.701 H 0 Z"
           id="path18085" />
      </g>
    </clipPath>
    <clipPath
       clipPathUnits="userSpaceOnUse"
       id="clipPath18077">
      <g
         id="g18081"
         transform="translate(-336.5472,-331.2395)">
        <path
           d="M 0,0 H 609.449 V 793.701 H 0 Z"
           id="path18079" />
      </g>
    </clipPath>
    <clipPath
       clipPathUnits="userSpaceOnUse"
       id="clipPath18071">
      <g
         id="g18075"
         transform="translate(-323.4349,-325.679)">
        <path
           d="M 0,0 H 609.449 V 793.701 H 0 Z"
           id="path18073" />
      </g>
    </clipPath>
    <clipPath
       clipPathUnits="userSpaceOnUse"
       id="clipPath19921">
      <g
         id="g19925"
         transform="translate(-331.0823,-311.4268)">
        <path
           d="M 0,0 H 609.449 V 793.701 H 0 Z"
           id="path19923" />
      </g>
    </clipPath>
    <clipPath
       clipPathUnits="userSpaceOnUse"
       id="clipPath19915">
      <g
         id="g19919"
         transform="translate(-342.5949,-277.9559)">
        <path
           d="M 0,0 H 609.449 V 793.701 H 0 Z"
           id="path19917" />
      </g>
    </clipPath>
    <clipPath
       clipPathUnits="userSpaceOnUse"
       id="clipPath22117">
      <g
         id="g22123">
        <g
           id="g22121">
          <path
             d="M 0,0 H 609.449 V 793.701 H 0 Z"
             id="path22119" />
        </g>
      </g>
    </clipPath>
    <clipPath
       clipPathUnits="userSpaceOnUse"
       id="clipPath22072">
      <g
         id="g22078">
        <g
           id="g22076">
          <path
             d="M 0,0 H 609.449 V 793.701 H 0 Z"
             id="path22074" />
        </g>
      </g>
    </clipPath>
    <clipPath
       clipPathUnits="userSpaceOnUse"
       id="clipPath21997">
      <g
         id="g22003">
        <g
           id="g22001">
          <path
             d="M 0,0 H 609.449 V 793.701 H 0 Z"
             id="path21999" />
        </g>
      </g>
    </clipPath>
    <clipPath
       clipPathUnits="userSpaceOnUse"
       id="clipPath22057">
      <g
         id="g22063">
        <g
           id="g22061">
          <path
             d="M 0,0 H 609.449 V 793.701 H 0 Z"
             id="path22059" />
        </g>
      </g>
    </clipPath>
    <clipPath
       clipPathUnits="userSpaceOnUse"
       id="clipPath22042">
      <g
         id="g22048">
        <g
           id="g22046">
          <path
             d="M 0,0 H 609.449 V 793.701 H 0 Z"
             id="path22044" />
        </g>
      </g>
    </clipPath>
    <clipPath
       clipPathUnits="userSpaceOnUse"
       id="clipPath22027">
      <g
         id="g22033">
        <g
           id="g22031">
          <path
             d="M 0,0 H 609.449 V 793.701 H 0 Z"
             id="path22029" />
        </g>
      </g>
    </clipPath>
    <clipPath
       clipPathUnits="userSpaceOnUse"
       id="clipPath22012">
      <g
         id="g22018">
        <g
           id="g22016">
          <path
             d="M 0,0 H 609.449 V 793.701 H 0 Z"
             id="path22014" />
        </g>
      </g>
    </clipPath>
    <clipPath
       clipPathUnits="userSpaceOnUse"
       id="clipPath21982">
      <g
         id="g21988">
        <g
           id="g21986">
          <path
             d="M 0,0 H 609.449 V 793.701 H 0 Z"
             id="path21984" />
        </g>
      </g>
    </clipPath>
    <clipPath
       clipPathUnits="userSpaceOnUse"
       id="clipPath22102">
      <g
         id="g22108">
        <g
           id="g22106">
          <path
             d="M 0,0 H 609.449 V 793.701 H 0 Z"
             id="path22104" />
        </g>
      </g>
    </clipPath>
    <clipPath
       clipPathUnits="userSpaceOnUse"
       id="clipPath25467">
      <g
         id="g25473">
        <g
           id="g25471">
          <path
             d="M 0,0 H 609.449 V 793.701 H 0 Z"
             id="path25469" />
        </g>
      </g>
    </clipPath>
    <clipPath
       clipPathUnits="userSpaceOnUse"
       id="clipPath25482">
      <g
         id="g25488">
        <g
           id="g25486">
          <path
             d="M 0,0 H 609.449 V 793.701 H 0 Z"
             id="path25484" />
        </g>
      </g>
    </clipPath>
    <clipPath
       clipPathUnits="userSpaceOnUse"
       id="clipPath25497">
      <g
         id="g25503">
        <g
           id="g25501">
          <path
             d="M 0,0 H 609.449 V 793.701 H 0 Z"
             id="path25499" />
        </g>
      </g>
    </clipPath>
    <clipPath
       clipPathUnits="userSpaceOnUse"
       id="clipPath25437">
      <g
         id="g25443">
        <g
           id="g25441">
          <path
             d="M 0,0 H 609.449 V 793.701 H 0 Z"
             id="path25439" />
        </g>
      </g>
    </clipPath>
    <clipPath
       clipPathUnits="userSpaceOnUse"
       id="clipPath25227">
      <g
         id="g25233">
        <g
           id="g25231">
          <path
             d="M 0,0 H 609.449 V 793.701 H 0 Z"
             id="path25229" />
        </g>
      </g>
    </clipPath>
    <clipPath
       clipPathUnits="userSpaceOnUse"
       id="clipPath25272">
      <g
         id="g25278">
        <g
           id="g25276">
          <path
             d="M 0,0 H 609.449 V 793.701 H 0 Z"
             id="path25274" />
        </g>
      </g>
    </clipPath>
    <clipPath
       clipPathUnits="userSpaceOnUse"
       id="clipPath25212">
      <g
         id="g25218">
        <g
           id="g25216">
          <path
             d="M 0,0 H 609.449 V 793.701 H 0 Z"
             id="path25214" />
        </g>
      </g>
    </clipPath>
    <clipPath
       clipPathUnits="userSpaceOnUse"
       id="clipPath25512">
      <g
         id="g25518">
        <g
           id="g25516">
          <path
             d="M 0,0 H 609.449 V 793.701 H 0 Z"
             id="path25514" />
        </g>
      </g>
    </clipPath>
    <clipPath
       clipPathUnits="userSpaceOnUse"
       id="clipPath25242">
      <g
         id="g25248">
        <g
           id="g25246">
          <path
             d="M 0,0 H 609.449 V 793.701 H 0 Z"
             id="path25244" />
        </g>
      </g>
    </clipPath>
    <clipPath
       clipPathUnits="userSpaceOnUse"
       id="clipPath25542">
      <g
         id="g25548">
        <g
           id="g25546">
          <path
             d="M 0,0 H 609.449 V 793.701 H 0 Z"
             id="path25544" />
        </g>
      </g>
    </clipPath>
    <clipPath
       clipPathUnits="userSpaceOnUse"
       id="clipPath25317">
      <g
         id="g25323">
        <g
           id="g25321">
          <path
             d="M 0,0 H 609.449 V 793.701 H 0 Z"
             id="path25319" />
        </g>
      </g>
    </clipPath>
    <clipPath
       clipPathUnits="userSpaceOnUse"
       id="clipPath25257">
      <g
         id="g25263">
        <g
           id="g25261">
          <path
             d="M 0,0 H 609.449 V 793.701 H 0 Z"
             id="path25259" />
        </g>
      </g>
    </clipPath>
    <clipPath
       clipPathUnits="userSpaceOnUse"
       id="clipPath25392">
      <g
         id="g25398">
        <g
           id="g25396">
          <path
             d="M 0,0 H 609.449 V 793.701 H 0 Z"
             id="path25394" />
        </g>
      </g>
    </clipPath>
    <clipPath
       clipPathUnits="userSpaceOnUse"
       id="clipPath25347">
      <g
         id="g25353">
        <g
           id="g25351">
          <path
             d="M 0,0 H 609.449 V 793.701 H 0 Z"
             id="path25349" />
        </g>
      </g>
    </clipPath>
    <clipPath
       clipPathUnits="userSpaceOnUse"
       id="clipPath25422">
      <g
         id="g25428">
        <g
           id="g25426">
          <path
             d="M 0,0 H 609.449 V 793.701 H 0 Z"
             id="path25424" />
        </g>
      </g>
    </clipPath>
    <clipPath
       clipPathUnits="userSpaceOnUse"
       id="clipPath25377">
      <g
         id="g25383">
        <g
           id="g25381">
          <path
             d="M 0,0 H 609.449 V 793.701 H 0 Z"
             id="path25379" />
        </g>
      </g>
    </clipPath>
    <clipPath
       clipPathUnits="userSpaceOnUse"
       id="clipPath25287">
      <g
         id="g25293">
        <g
           id="g25291">
          <path
             d="M 0,0 H 609.449 V 793.701 H 0 Z"
             id="path25289" />
        </g>
      </g>
    </clipPath>
    <clipPath
       clipPathUnits="userSpaceOnUse"
       id="clipPath25332">
      <g
         id="g25338">
        <g
           id="g25336">
          <path
             d="M 0,0 H 609.449 V 793.701 H 0 Z"
             id="path25334" />
        </g>
      </g>
    </clipPath>
    <clipPath
       clipPathUnits="userSpaceOnUse"
       id="clipPath25527">
      <g
         id="g25533">
        <g
           id="g25531">
          <path
             d="M 0,0 H 609.449 V 793.701 H 0 Z"
             id="path25529" />
        </g>
      </g>
    </clipPath>
    <clipPath
       clipPathUnits="userSpaceOnUse"
       id="clipPath816">
      <path
         d="M 0,0 H 609.449 V 793.701 H 0 Z"
         id="path814" />
    </clipPath>
    <clipPath
       clipPathUnits="userSpaceOnUse"
       id="clipPath18089">
      <g
         id="g18093"
         transform="translate(-332.5598,-350.9826)">
        <path
           d="M 0,0 H 609.449 V 793.701 H 0 Z"
           id="path18091" />
      </g>
    </clipPath>
    <clipPath
       clipPathUnits="userSpaceOnUse"
       id="clipPath22087">
      <g
         id="g22093">
        <g
           id="g22091">
          <path
             d="M 0,0 H 609.449 V 793.701 H 0 Z"
             id="path22089" />
        </g>
      </g>
    </clipPath>
    <clipPath
       clipPathUnits="userSpaceOnUse"
       id="clipPath972">
      <path
         d="M 0,0 H 609.449 V 793.701 H 0 Z"
         id="path970" />
    </clipPath>
    <clipPath
       clipPathUnits="userSpaceOnUse"
       id="clipPath972-6">
      <path
         d="M 0,0 H 609.449 V 793.701 H 0 Z"
         id="path970-0" />
    </clipPath>
    <clipPath
       clipPathUnits="userSpaceOnUse"
       id="clipPath33892">
      <g
         id="g33896"
         transform="translate(-44.8674,-673.6147)">
        <path
           d="M 0,0 H 609.449 V 793.701 H 0 Z"
           id="path33894" />
      </g>
    </clipPath>
    <clipPath
       clipPathUnits="userSpaceOnUse"
       id="clipPath33886">
      <g
         id="g33890"
         transform="translate(-54.8474,-657.4348)">
        <path
           d="M 0,0 H 609.449 V 793.701 H 0 Z"
           id="path33888" />
      </g>
    </clipPath>
    <clipPath
       clipPathUnits="userSpaceOnUse"
       id="clipPath35021">
      <g
         id="g35025"
         transform="translate(-51.8972,-651.6633)">
        <path
           d="M 0,0 H 609.449 V 793.701 H 0 Z"
           id="path35023" />
      </g>
    </clipPath>
  </defs>
  <g
     inkscape:label="Layer 1"
     inkscape:groupmode="layer"
     id="layer1"
     transform="translate(-106.51511,-151.20593)">
    <g
       id="g994"
       transform="matrix(0.35277777,0,0,-0.35277777,113.92238,151.20593)"
       clip-path="url(#clipPath33886)"
       style="fill:#000000;fill-opacity:1">
      <path
         d="m 0,0 h -19.6 c -0.77,0 -1.397,-0.627 -1.397,-1.396 V -32.75 c 0,-0.771 0.627,-1.398 1.397,-1.398 H 0 c 0.771,0 1.397,0.627 1.397,1.398 V -1.396 C 1.397,-0.627 0.771,0 0,0 m 0.897,-32.75 c 0,-0.495 -0.402,-0.898 -0.897,-0.898 h -19.6 c -0.495,0 -0.897,0.403 -0.897,0.898 v 31.354 c 0,0.494 0.402,0.896 0.897,0.896 H 0 c 0.495,0 0.897,-0.402 0.897,-0.896 z"
         style="fill:#000000;fill-opacity:1;fill-rule:nonzero;stroke:none"
         id="path996" />
    </g>
    <path
       d="m 106.91995,162.84752 h 7.09084 v -11.23738 h -7.09084 z m 0.17639,-11.06064 h 6.73806 v 10.88461 h -6.73806 z"
       style="fill:#000000;fill-opacity:1;fill-rule:nonzero;stroke:none;stroke-width:0.352778"
       id="path998" />
    <g
       id="g1008"
       transform="matrix(0.35277777,0,0,-0.35277777,112.88161,153.24198)"
       clip-path="url(#clipPath35021)"
       style="fill:#000000;fill-opacity:1">
      <path
         d="M 0,0 -2.4,2.4 -4.626,0.176 -4.803,0 -4.979,-0.178 -6.85,-2.049 -8.898,0 -11.299,2.4 -13.524,0.176 -13.701,0 l -0.177,-0.178 -2.223,-2.224 2.223,-2.226 v -10e-4 l 2.226,-2.225 -1.872,-1.871 -0.177,-0.175 -0.177,-0.178 -2.223,-2.225 2.223,-2.223 v -10e-4 l 2.226,-2.225 -1.872,-1.871 -0.177,-0.176 -0.177,-0.178 -2.223,-2.224 2.223,-2.226 v -0.001 l 2.579,-2.578 2.577,2.578 1.872,1.873 1.871,-1.872 v -0.001 l 2.579,-2.578 2.577,2.578 2.225,2.227 -2.402,2.402 -2.047,2.047 2.047,2.049 2.402,2.4 L 0,-8.9 l -2.047,2.046 2.224,2.225 2.225,2.227 z m -4.626,-17.623 v 0 l -0.177,-0.176 -0.176,-0.178 -1.871,-1.871 -2.048,2.049 -2.047,2.047 2.047,2.049 2.048,2.047 1.871,-1.87 v -10e-4 l 2.225,-2.225 z m -4.441,4.457 c -0.904,1.074 -0.904,2.654 0,3.728 l 1.864,-1.865 z m -0.906,0.539 c -0.415,0.177 -0.863,0.272 -1.327,0.272 -0.461,0 -0.907,-0.094 -1.319,-0.268 0.174,0.413 0.267,0.859 0.267,1.32 0,0.462 -0.094,0.908 -0.268,1.322 0.412,-0.175 0.859,-0.268 1.32,-0.268 0.464,0 0.912,0.095 1.327,0.27 -0.357,-0.844 -0.357,-1.802 0,-2.648 m 5.339,3.189 c 0.441,-0.521 0.68,-1.175 0.68,-1.865 0,-0.689 -0.239,-1.342 -0.679,-1.863 l -1.863,1.863 z m 0.912,-0.543 c 0.413,-0.175 0.86,-0.268 1.321,-0.268 0.464,0 0.912,0.095 1.327,0.27 -0.358,-0.844 -0.358,-1.802 0,-2.648 -0.415,0.177 -0.863,0.272 -1.327,0.272 -0.461,0 -0.907,-0.094 -1.32,-0.268 0.174,0.413 0.267,0.859 0.267,1.32 0,0.462 -0.094,0.908 -0.268,1.322 m -0.904,1.256 v 0 L -4.803,-8.9 -4.979,-9.078 -6.85,-10.949 -8.898,-8.9 l -2.047,2.046 2.223,2.225 1.872,1.873 1.871,-1.872 v -10e-4 l 2.225,-2.225 z m 4.457,8.186 1.864,-1.863 -1.864,-1.866 c -0.902,1.075 -0.902,2.656 0,3.729 m -0.904,-3.19 c -0.415,0.177 -0.864,0.273 -1.329,0.273 -0.463,0 -0.911,-0.095 -1.325,-0.271 0.356,0.845 0.355,1.803 -0.001,2.649 0.414,-0.176 0.862,-0.272 1.326,-0.272 0.465,0 0.914,0.096 1.329,0.273 -0.357,-0.847 -0.357,-1.806 0,-2.652 M -2.4,1.693 -0.538,-0.17 c -1.041,-0.879 -2.684,-0.881 -3.727,0 z m -2.234,-2.232 c 0.904,-1.073 0.904,-2.654 0.001,-3.729 l -1.863,1.866 z m -4.433,-3.729 c -0.903,1.075 -0.903,2.656 0,3.729 l 1.864,-1.863 z m -0.905,0.539 c -0.415,0.177 -0.864,0.273 -1.329,0.273 -0.463,0 -0.911,-0.095 -1.325,-0.271 0.356,0.845 0.356,1.803 -0.001,2.649 0.414,-0.176 0.862,-0.272 1.326,-0.272 0.465,0 0.914,0.096 1.329,0.273 -0.356,-0.847 -0.356,-1.806 0,-2.652 m -1.327,5.422 1.863,-1.863 c -1.041,-0.879 -2.684,-0.881 -3.727,0 z m -2.233,-2.232 c 0.903,-1.073 0.903,-2.654 10e-4,-3.729 l -1.864,1.866 z m 0.369,-4.097 c 1.043,0.882 2.686,0.878 3.727,0 L -11.299,-6.5 Z m 1.864,-2.571 1.863,-1.863 c -1.041,-0.879 -2.684,-0.879 -3.727,0 z m -2.233,-2.231 c 0.44,-0.521 0.68,-1.175 0.68,-1.865 0,-0.689 -0.24,-1.342 -0.679,-1.863 l -1.864,1.863 z m 0.369,-4.096 c 1.043,0.879 2.686,0.879 3.727,0 l -1.863,-1.864 z m 1.864,-2.571 1.863,-1.864 c -1.041,-0.879 -2.684,-0.881 -3.727,0 z m 1.327,-2.771 c -0.356,-0.847 -0.356,-1.806 0,-2.651 -0.415,0.176 -0.864,0.272 -1.329,0.272 -0.463,0 -0.911,-0.095 -1.325,-0.27 0.356,0.844 0.356,1.802 -0.001,2.648 0.414,-0.176 0.862,-0.271 1.326,-0.271 0.465,0 0.914,0.095 1.329,0.272 m -3.56,0.538 c 0.903,-1.073 0.903,-2.654 10e-4,-3.728 l -1.864,1.865 z m 2.233,-5.961 -1.864,1.864 c 1.043,0.881 2.686,0.879 3.727,0 z m 2.232,2.233 c -0.903,1.074 -0.903,2.655 0,3.728 l 1.864,-1.863 z m 4.433,3.728 c 0.904,-1.073 0.904,-2.654 0.001,-3.728 l -1.863,1.865 z m 0.906,-0.539 c 0.414,-0.176 0.862,-0.271 1.326,-0.271 0.465,0 0.914,0.095 1.329,0.272 -0.357,-0.847 -0.357,-1.806 0,-2.651 -0.415,0.176 -0.864,0.272 -1.329,0.272 -0.463,0 -0.911,-0.095 -1.325,-0.27 0.356,0.844 0.355,1.802 -0.001,2.648 m 1.328,-5.422 -1.865,1.864 c 1.043,0.881 2.686,0.879 3.727,0 z m 2.231,2.233 c -0.902,1.074 -0.902,2.655 0,3.728 l 1.864,-1.863 z m -0.369,4.097 c -1.041,-0.879 -2.684,-0.881 -3.727,0 l 1.865,1.864 z m -1.862,2.571 -1.865,1.864 c 1.043,0.879 2.686,0.879 3.727,0 z m 2.231,2.232 c -0.903,1.074 -0.903,2.654 0,3.728 l 1.864,-1.865 z m -0.369,4.096 c -1.041,-0.879 -2.684,-0.879 -3.727,0 L -2.4,-7.207 Z M -2.4,-6.5 -4.265,-4.636 c 1.043,0.882 2.686,0.878 3.727,0 z"
         style="fill:#000000;fill-opacity:1;fill-rule:nonzero;stroke:none"
         id="path1010" />
    </g>
  </g>
</svg>
