<?xml version="1.0" encoding="UTF-8" standalone="no"?>
<!-- Created with Inkscape (http://www.inkscape.org/) -->

<svg
   version="1.1"
   id="svg521"
   width="80"
   height="69"
   viewBox="0 0 80 69"
   sodipodi:docname="spiritual.svg"
   inkscape:version="1.2.2 (b0a8486541, 2022-12-01)"
   xmlns:inkscape="http://www.inkscape.org/namespaces/inkscape"
   xmlns:sodipodi="http://sodipodi.sourceforge.net/DTD/sodipodi-0.dtd"
   xmlns="http://www.w3.org/2000/svg"
   xmlns:svg="http://www.w3.org/2000/svg">
  <defs
     id="defs525" />
  <sodipodi:namedview
     id="namedview523"
     pagecolor="#ffffff"
     bordercolor="#666666"
     borderopacity="1.0"
     inkscape:showpageshadow="2"
     inkscape:pageopacity="0.0"
     inkscape:pagecheckerboard="0"
     inkscape:deskcolor="#d1d1d1"
     showgrid="false"
     inkscape:zoom="3.0182169"
     inkscape:cx="164.5011"
     inkscape:cy="90.285096"
     inkscape:window-width="1920"
     inkscape:window-height="1020"
     inkscape:window-x="0"
     inkscape:window-y="32"
     inkscape:window-maximized="1"
     inkscape:current-layer="g527" />
  <g
     inkscape:groupmode="layer"
     inkscape:label="Image"
     id="g527">
    <path
       style="fill:#000000"
       d="M 48.379122,59.563424 C 45.695193,58.356268 43.67326,56.08526 42.055655,53.687863 40.386717,51.213557 39.199077,48.456551 38.153384,45.672641 37.132843,43.359083 35.899359,41.084969 34.13312,39.251442 c -1.080127,-1.092227 -2.461157,-2.009476 -4.036758,-2.099633 -1.796206,-0.165082 -3.595635,0.07756 -5.384198,0.227191 -1.871161,0.194624 -3.842315,0.613054 -5.278357,1.914634 -1.02766,0.900002 -1.892655,1.982236 -2.608796,3.141875 -0.679915,1.238332 -0.77594,2.701583 -0.59802,4.078869 0.180941,2.028401 0.635786,4.178763 2.048357,5.728263 1.052061,1.116928 2.581681,1.661383 4.090512,1.737333 1.637675,0.138053 3.473151,-0.23131 4.584682,-1.534104 1.010627,-1.20648 1.144285,-2.933041 0.698981,-4.397476 -0.198788,-0.703346 -0.594156,-1.504534 -1.355262,-1.708454 -0.778805,-0.07855 -1.281289,0.692096 -1.480842,1.344718 -0.216322,0.638162 -0.304074,1.343942 -0.727594,1.891415 -0.646003,0.418075 -1.228873,-0.338999 -1.716354,-0.680027 -1.325588,-1.182178 -1.756272,-3.332917 -0.762488,-4.854422 1.106156,-1.791135 3.395724,-2.585248 5.420461,-2.236383 2.987485,0.463834 5.623898,2.767709 6.449377,5.680325 0.439674,1.55572 0.257828,3.268896 -0.518909,4.689072 -1.285699,2.519672 -3.342185,4.633434 -5.791597,6.040444 -1.757191,0.874968 -3.78515,0.66675 -5.671687,0.482885 -2.881694,-0.322246 -5.722287,-1.574721 -7.654719,-3.77829 -1.99908,-2.223514 -3.004267,-5.243879 -2.930091,-8.216967 0.06075,-3.817597 1.713573,-7.500276 4.238603,-10.325011 0.941413,-1.060191 1.971178,-2.072898 3.185331,-2.816502 1.720604,-0.90523 3.718285,-0.88447 5.610175,-0.985247 5.278075,-0.185578 10.563281,0.05367 15.839458,-0.19465 1.490358,-0.113252 3.114769,-0.191101 4.332818,-1.16929 0.893811,-0.736732 1.608182,-1.663635 2.31232,-2.576551 1.585599,-2.156976 2.658339,-4.824866 2.414564,-7.539141 -0.1981,-2.465983 -1.442052,-4.745815 -3.150648,-6.496629 -1.341447,-1.418638 -3.17901,-2.540841 -5.187744,-2.495217 -1.972694,0.01932 -3.78974,1.028715 -5.251841,2.284503 -1.328632,1.163302 -2.351989,2.891374 -2.148889,4.710311 0.106683,1.305699 0.901707,2.460683 1.939855,3.221219 0.707371,0.514348 1.508719,0.961127 2.37816,1.111137 0.615566,0.06039 1.241098,-0.391013 1.291439,-1.024875 0.294014,-1.336151 -0.634781,-2.658259 -0.153083,-3.984464 0.278766,-0.923632 1.321613,-1.553098 2.263232,-1.250819 1.213469,0.324721 1.970783,1.448456 2.52965,2.497566 0.689246,1.360236 0.796975,3.05333 0.05823,4.417788 -1.009304,1.998882 -2.991097,3.536252 -5.234943,3.825422 -3.253721,0.457055 -6.573945,-1.198856 -8.490343,-3.804121 -1.130991,-1.507353 -1.734986,-3.391572 -1.68228,-5.276307 0.01899,-3.557021 1.791173,-7.042908 4.635842,-9.1746521 3.044973,-2.3554206 7.233553,-3.1890488 10.92665,-2.052571 2.720154,0.8164032 5.07326,2.6013481 6.884072,4.7578391 1.975894,2.374306 3.187898,5.398006 3.252223,8.497517 0.108603,3.652764 -1.196686,7.245955 -3.281529,10.21175 -1.582815,2.304919 -3.217382,4.577749 -4.669688,6.968952 -0.782273,1.345116 -1.538712,2.770226 -1.67937,4.347289 -0.162492,1.595077 -0.04692,3.223113 0.327828,4.781667 0.674336,2.701142 2.371517,5.214219 4.855433,6.548487 2.673421,1.467411 6.052089,1.710754 8.847982,0.440666 2.5151,-1.165605 4.469634,-3.676783 4.610726,-6.493148 0.131813,-2.438622 -1.087585,-5.03884 -3.317746,-6.164512 -1.339806,-0.659058 -3.128559,-0.657995 -4.263151,0.408128 -0.751155,0.708651 -1.025656,1.768959 -1.058423,2.768659 -0.131812,0.529287 0.209272,1.321131 0.853187,1.180179 0.867818,-0.412803 1.960906,-0.524368 2.798815,0.02407 0.775811,0.444158 1.036326,1.443747 0.771081,2.262423 -0.405651,1.351395 -1.670941,2.426628 -3.101923,2.477627 -1.892849,0.13058 -3.670852,-0.928312 -4.906413,-2.289949 -1.237855,-1.393839 -2.094641,-3.216612 -2.072773,-5.104844 0.05763,-1.670864 0.958455,-3.200972 2.160236,-4.319194 1.438574,-1.388934 3.214198,-2.526348 5.205346,-2.889362 2.192806,-0.400641 4.496834,0.164283 6.335049,1.401769 3.128579,2.037358 5.195149,5.545457 5.662028,9.229264 0.342341,2.840982 -0.400101,5.839674 -2.221481,8.073659 -1.560595,1.983054 -3.539199,3.66963 -5.818248,4.769762 -2.582957,1.239536 -5.571693,1.637795 -8.37747,1.024198 -1.02444,-0.211287 -2.024633,-0.53584 -2.983046,-0.954084 z"
       id="path648" />
  </g>
</svg>
