<?xml version="1.0" encoding="UTF-8" standalone="no"?>
<!-- Created with Inkscape (http://www.inkscape.org/) -->

<svg
   width="6.5179219mm"
   height="9.8347387mm"
   viewBox="0 0 6.5179218 9.8347385"
   version="1.1"
   id="svg1422"
   inkscape:version="1.2.2 (b0a8486541, 2022-12-01)"
   sodipodi:docname="trick.svg"
   xmlns:inkscape="http://www.inkscape.org/namespaces/inkscape"
   xmlns:sodipodi="http://sodipodi.sourceforge.net/DTD/sodipodi-0.dtd"
   xmlns="http://www.w3.org/2000/svg"
   xmlns:svg="http://www.w3.org/2000/svg">
  <sodipodi:namedview
     id="namedview1424"
     pagecolor="#ffffff"
     bordercolor="#666666"
     borderopacity="1.0"
     inkscape:showpageshadow="2"
     inkscape:pageopacity="0.0"
     inkscape:pagecheckerboard="0"
     inkscape:deskcolor="#d1d1d1"
     inkscape:document-units="mm"
     showgrid="false"
     inkscape:zoom="17.910385"
     inkscape:cx="2.4287585"
     inkscape:cy="19.234651"
     inkscape:window-width="1920"
     inkscape:window-height="1020"
     inkscape:window-x="0"
     inkscape:window-y="32"
     inkscape:window-maximized="1"
     inkscape:current-layer="layer1" />
  <defs
     id="defs1419">
    <clipPath
       clipPathUnits="userSpaceOnUse"
       id="clipPath1585">
      <g
         id="g1589"
         transform="translate(-334.9748,-688.4194)">
        <path
           d="M 0,0 H 609.449 V 793.701 H 0 Z"
           id="path1587" />
      </g>
    </clipPath>
    <clipPath
       clipPathUnits="userSpaceOnUse"
       id="clipPath664">
      <path
         d="M 0,0 H 609.449 V 793.701 H 0 Z"
         id="path662" />
    </clipPath>
    <clipPath
       clipPathUnits="userSpaceOnUse"
       id="clipPath8157">
      <g
         id="g8161"
         transform="translate(-35.6922,-487.1561)">
        <path
           d="M 0,0 H 609.449 V 793.701 H 0 Z"
           id="path8159" />
      </g>
    </clipPath>
    <clipPath
       clipPathUnits="userSpaceOnUse"
       id="clipPath8151">
      <g
         id="g8155"
         transform="translate(-49.3377,-487.6971)">
        <path
           d="M 0,0 H 609.449 V 793.701 H 0 Z"
           id="path8153" />
      </g>
    </clipPath>
    <clipPath
       clipPathUnits="userSpaceOnUse"
       id="clipPath8145">
      <g
         id="g8149"
         transform="translate(-48.1717,-487.4276)">
        <path
           d="M 0,0 H 609.449 V 793.701 H 0 Z"
           id="path8147" />
      </g>
    </clipPath>
    <clipPath
       clipPathUnits="userSpaceOnUse"
       id="clipPath8139">
      <g
         id="g8143"
         transform="translate(-44.366,-492.3475)">
        <path
           d="M 0,0 H 609.449 V 793.701 H 0 Z"
           id="path8141" />
      </g>
    </clipPath>
    <clipPath
       clipPathUnits="userSpaceOnUse"
       id="clipPath8133">
      <g
         id="g8137"
         transform="translate(-46.6092,-491.7586)">
        <path
           d="M 0,0 H 609.449 V 793.701 H 0 Z"
           id="path8135" />
      </g>
    </clipPath>
    <clipPath
       clipPathUnits="userSpaceOnUse"
       id="clipPath8205">
      <g
         id="g8209"
         transform="translate(-45.1531,-464.5486)">
        <path
           d="M 0,0 H 609.449 V 793.701 H 0 Z"
           id="path8207" />
      </g>
    </clipPath>
    <clipPath
       clipPathUnits="userSpaceOnUse"
       id="clipPath8199">
      <g
         id="g8203"
         transform="translate(-42.3514,-462.9236)">
        <path
           d="M 0,0 H 609.449 V 793.701 H 0 Z"
           id="path8201" />
      </g>
    </clipPath>
    <clipPath
       clipPathUnits="userSpaceOnUse"
       id="clipPath8193">
      <g
         id="g8197"
         transform="translate(-49.6453,-468.3768)">
        <path
           d="M 0,0 H 609.449 V 793.701 H 0 Z"
           id="path8195" />
      </g>
    </clipPath>
    <clipPath
       clipPathUnits="userSpaceOnUse"
       id="clipPath8187">
      <g
         id="g8191"
         transform="translate(-45.8172,-467.1014)">
        <path
           d="M 0,0 H 609.449 V 793.701 H 0 Z"
           id="path8189" />
      </g>
    </clipPath>
    <clipPath
       clipPathUnits="userSpaceOnUse"
       id="clipPath8181">
      <g
         id="g8185"
         transform="translate(-45.9627,-464.6209)">
        <path
           d="M 0,0 H 609.449 V 793.701 H 0 Z"
           id="path8183" />
      </g>
    </clipPath>
    <clipPath
       clipPathUnits="userSpaceOnUse"
       id="clipPath8175">
      <g
         id="g8179"
         transform="translate(-44.1717,-464.3133)">
        <path
           d="M 0,0 H 609.449 V 793.701 H 0 Z"
           id="path8177" />
      </g>
    </clipPath>
    <clipPath
       clipPathUnits="userSpaceOnUse"
       id="clipPath8169">
      <g
         id="g8173"
         transform="translate(-41.0057,-463.2869)">
        <path
           d="M 0,0 H 609.449 V 793.701 H 0 Z"
           id="path8171" />
      </g>
    </clipPath>
    <clipPath
       clipPathUnits="userSpaceOnUse"
       id="clipPath8163">
      <g
         id="g8167"
         transform="translate(-40.7899,-456.6121)">
        <path
           d="M 0,0 H 609.449 V 793.701 H 0 Z"
           id="path8165" />
      </g>
    </clipPath>
    <clipPath
       clipPathUnits="userSpaceOnUse"
       id="clipPath8157-3">
      <g
         id="g8161-6"
         transform="translate(-35.6922,-487.1561)">
        <path
           d="M 0,0 H 609.449 V 793.701 H 0 Z"
           id="path8159-7" />
      </g>
    </clipPath>
    <clipPath
       clipPathUnits="userSpaceOnUse"
       id="clipPath8151-5">
      <g
         id="g8155-3"
         transform="translate(-49.3377,-487.6971)">
        <path
           d="M 0,0 H 609.449 V 793.701 H 0 Z"
           id="path8153-5" />
      </g>
    </clipPath>
    <clipPath
       clipPathUnits="userSpaceOnUse"
       id="clipPath8145-6">
      <g
         id="g8149-2"
         transform="translate(-48.1717,-487.4276)">
        <path
           d="M 0,0 H 609.449 V 793.701 H 0 Z"
           id="path8147-9" />
      </g>
    </clipPath>
    <clipPath
       clipPathUnits="userSpaceOnUse"
       id="clipPath8139-1">
      <g
         id="g8143-2"
         transform="translate(-44.366,-492.3475)">
        <path
           d="M 0,0 H 609.449 V 793.701 H 0 Z"
           id="path8141-7" />
      </g>
    </clipPath>
    <clipPath
       clipPathUnits="userSpaceOnUse"
       id="clipPath8133-0">
      <g
         id="g8137-9"
         transform="translate(-46.6092,-491.7586)">
        <path
           d="M 0,0 H 609.449 V 793.701 H 0 Z"
           id="path8135-3" />
      </g>
    </clipPath>
    <clipPath
       clipPathUnits="userSpaceOnUse"
       id="clipPath13791">
      <g
         id="g13797">
        <g
           id="g13795">
          <path
             d="M 0,0 H 609.449 V 793.701 H 0 Z"
             id="path13793" />
        </g>
      </g>
    </clipPath>
    <clipPath
       clipPathUnits="userSpaceOnUse"
       id="clipPath13896">
      <g
         id="g13902">
        <g
           id="g13900">
          <path
             d="M 0,0 H 609.449 V 793.701 H 0 Z"
             id="path13898" />
        </g>
      </g>
    </clipPath>
    <clipPath
       clipPathUnits="userSpaceOnUse"
       id="clipPath13881">
      <g
         id="g13887">
        <g
           id="g13885">
          <path
             d="M 0,0 H 609.449 V 793.701 H 0 Z"
             id="path13883" />
        </g>
      </g>
    </clipPath>
    <clipPath
       clipPathUnits="userSpaceOnUse"
       id="clipPath13806">
      <g
         id="g13812">
        <g
           id="g13810">
          <path
             d="M 0,0 H 609.449 V 793.701 H 0 Z"
             id="path13808" />
        </g>
      </g>
    </clipPath>
    <clipPath
       clipPathUnits="userSpaceOnUse"
       id="clipPath13821">
      <g
         id="g13827">
        <g
           id="g13825">
          <path
             d="M 0,0 H 609.449 V 793.701 H 0 Z"
             id="path13823" />
        </g>
      </g>
    </clipPath>
    <clipPath
       clipPathUnits="userSpaceOnUse"
       id="clipPath13911">
      <g
         id="g13917">
        <g
           id="g13915">
          <path
             d="M 0,0 H 609.449 V 793.701 H 0 Z"
             id="path13913" />
        </g>
      </g>
    </clipPath>
    <clipPath
       clipPathUnits="userSpaceOnUse"
       id="clipPath13866">
      <g
         id="g13872">
        <g
           id="g13870">
          <path
             d="M 0,0 H 609.449 V 793.701 H 0 Z"
             id="path13868" />
        </g>
      </g>
    </clipPath>
    <clipPath
       clipPathUnits="userSpaceOnUse"
       id="clipPath13836">
      <g
         id="g13842">
        <g
           id="g13840">
          <path
             d="M 0,0 H 609.449 V 793.701 H 0 Z"
             id="path13838" />
        </g>
      </g>
    </clipPath>
    <clipPath
       clipPathUnits="userSpaceOnUse"
       id="clipPath13851">
      <g
         id="g13857">
        <g
           id="g13855">
          <path
             d="M 0,0 H 609.449 V 793.701 H 0 Z"
             id="path13853" />
        </g>
      </g>
    </clipPath>
    <clipPath
       clipPathUnits="userSpaceOnUse"
       id="clipPath14939">
      <g
         id="g14943"
         transform="translate(-47.6111,-413.5244)">
        <path
           d="M 0,0 H 609.449 V 793.701 H 0 Z"
           id="path14941" />
      </g>
    </clipPath>
    <clipPath
       clipPathUnits="userSpaceOnUse"
       id="clipPath14933">
      <g
         id="g14937"
         transform="translate(-44.3924,-420.7109)">
        <path
           d="M 0,0 H 609.449 V 793.701 H 0 Z"
           id="path14935" />
      </g>
    </clipPath>
    <clipPath
       clipPathUnits="userSpaceOnUse"
       id="clipPath14927">
      <g
         id="g14931"
         transform="translate(-35.4949,-416.7852)">
        <path
           d="M 0,0 H 609.449 V 793.701 H 0 Z"
           id="path14929" />
      </g>
    </clipPath>
    <clipPath
       clipPathUnits="userSpaceOnUse"
       id="clipPath14921">
      <g
         id="g14925"
         transform="translate(-46.6404,-393.3848)">
        <path
           d="M 0,0 H 609.449 V 793.701 H 0 Z"
           id="path14923" />
      </g>
    </clipPath>
    <clipPath
       clipPathUnits="userSpaceOnUse"
       id="clipPath14915">
      <g
         id="g14919"
         transform="translate(-46.9734,-397.8965)">
        <path
           d="M 0,0 H 609.449 V 793.701 H 0 Z"
           id="path14917" />
      </g>
    </clipPath>
    <clipPath
       clipPathUnits="userSpaceOnUse"
       id="clipPath14909">
      <g
         id="g14913"
         transform="translate(-35.5633,-393.3027)">
        <path
           d="M 0,0 H 609.449 V 793.701 H 0 Z"
           id="path14911" />
      </g>
    </clipPath>
    <clipPath
       clipPathUnits="userSpaceOnUse"
       id="clipPath18083">
      <g
         id="g18087"
         transform="translate(-331.1849,-337.1262)">
        <path
           d="M 0,0 H 609.449 V 793.701 H 0 Z"
           id="path18085" />
      </g>
    </clipPath>
    <clipPath
       clipPathUnits="userSpaceOnUse"
       id="clipPath18077">
      <g
         id="g18081"
         transform="translate(-336.5472,-331.2395)">
        <path
           d="M 0,0 H 609.449 V 793.701 H 0 Z"
           id="path18079" />
      </g>
    </clipPath>
    <clipPath
       clipPathUnits="userSpaceOnUse"
       id="clipPath18071">
      <g
         id="g18075"
         transform="translate(-323.4349,-325.679)">
        <path
           d="M 0,0 H 609.449 V 793.701 H 0 Z"
           id="path18073" />
      </g>
    </clipPath>
    <clipPath
       clipPathUnits="userSpaceOnUse"
       id="clipPath19921">
      <g
         id="g19925"
         transform="translate(-331.0823,-311.4268)">
        <path
           d="M 0,0 H 609.449 V 793.701 H 0 Z"
           id="path19923" />
      </g>
    </clipPath>
    <clipPath
       clipPathUnits="userSpaceOnUse"
       id="clipPath19915">
      <g
         id="g19919"
         transform="translate(-342.5949,-277.9559)">
        <path
           d="M 0,0 H 609.449 V 793.701 H 0 Z"
           id="path19917" />
      </g>
    </clipPath>
    <clipPath
       clipPathUnits="userSpaceOnUse"
       id="clipPath22117">
      <g
         id="g22123">
        <g
           id="g22121">
          <path
             d="M 0,0 H 609.449 V 793.701 H 0 Z"
             id="path22119" />
        </g>
      </g>
    </clipPath>
    <clipPath
       clipPathUnits="userSpaceOnUse"
       id="clipPath22072">
      <g
         id="g22078">
        <g
           id="g22076">
          <path
             d="M 0,0 H 609.449 V 793.701 H 0 Z"
             id="path22074" />
        </g>
      </g>
    </clipPath>
    <clipPath
       clipPathUnits="userSpaceOnUse"
       id="clipPath21997">
      <g
         id="g22003">
        <g
           id="g22001">
          <path
             d="M 0,0 H 609.449 V 793.701 H 0 Z"
             id="path21999" />
        </g>
      </g>
    </clipPath>
    <clipPath
       clipPathUnits="userSpaceOnUse"
       id="clipPath22057">
      <g
         id="g22063">
        <g
           id="g22061">
          <path
             d="M 0,0 H 609.449 V 793.701 H 0 Z"
             id="path22059" />
        </g>
      </g>
    </clipPath>
    <clipPath
       clipPathUnits="userSpaceOnUse"
       id="clipPath22042">
      <g
         id="g22048">
        <g
           id="g22046">
          <path
             d="M 0,0 H 609.449 V 793.701 H 0 Z"
             id="path22044" />
        </g>
      </g>
    </clipPath>
    <clipPath
       clipPathUnits="userSpaceOnUse"
       id="clipPath22027">
      <g
         id="g22033">
        <g
           id="g22031">
          <path
             d="M 0,0 H 609.449 V 793.701 H 0 Z"
             id="path22029" />
        </g>
      </g>
    </clipPath>
    <clipPath
       clipPathUnits="userSpaceOnUse"
       id="clipPath22012">
      <g
         id="g22018">
        <g
           id="g22016">
          <path
             d="M 0,0 H 609.449 V 793.701 H 0 Z"
             id="path22014" />
        </g>
      </g>
    </clipPath>
    <clipPath
       clipPathUnits="userSpaceOnUse"
       id="clipPath21982">
      <g
         id="g21988">
        <g
           id="g21986">
          <path
             d="M 0,0 H 609.449 V 793.701 H 0 Z"
             id="path21984" />
        </g>
      </g>
    </clipPath>
    <clipPath
       clipPathUnits="userSpaceOnUse"
       id="clipPath22102">
      <g
         id="g22108">
        <g
           id="g22106">
          <path
             d="M 0,0 H 609.449 V 793.701 H 0 Z"
             id="path22104" />
        </g>
      </g>
    </clipPath>
    <clipPath
       clipPathUnits="userSpaceOnUse"
       id="clipPath25467">
      <g
         id="g25473">
        <g
           id="g25471">
          <path
             d="M 0,0 H 609.449 V 793.701 H 0 Z"
             id="path25469" />
        </g>
      </g>
    </clipPath>
    <clipPath
       clipPathUnits="userSpaceOnUse"
       id="clipPath25482">
      <g
         id="g25488">
        <g
           id="g25486">
          <path
             d="M 0,0 H 609.449 V 793.701 H 0 Z"
             id="path25484" />
        </g>
      </g>
    </clipPath>
    <clipPath
       clipPathUnits="userSpaceOnUse"
       id="clipPath25497">
      <g
         id="g25503">
        <g
           id="g25501">
          <path
             d="M 0,0 H 609.449 V 793.701 H 0 Z"
             id="path25499" />
        </g>
      </g>
    </clipPath>
    <clipPath
       clipPathUnits="userSpaceOnUse"
       id="clipPath25437">
      <g
         id="g25443">
        <g
           id="g25441">
          <path
             d="M 0,0 H 609.449 V 793.701 H 0 Z"
             id="path25439" />
        </g>
      </g>
    </clipPath>
    <clipPath
       clipPathUnits="userSpaceOnUse"
       id="clipPath25227">
      <g
         id="g25233">
        <g
           id="g25231">
          <path
             d="M 0,0 H 609.449 V 793.701 H 0 Z"
             id="path25229" />
        </g>
      </g>
    </clipPath>
    <clipPath
       clipPathUnits="userSpaceOnUse"
       id="clipPath25272">
      <g
         id="g25278">
        <g
           id="g25276">
          <path
             d="M 0,0 H 609.449 V 793.701 H 0 Z"
             id="path25274" />
        </g>
      </g>
    </clipPath>
    <clipPath
       clipPathUnits="userSpaceOnUse"
       id="clipPath25212">
      <g
         id="g25218">
        <g
           id="g25216">
          <path
             d="M 0,0 H 609.449 V 793.701 H 0 Z"
             id="path25214" />
        </g>
      </g>
    </clipPath>
    <clipPath
       clipPathUnits="userSpaceOnUse"
       id="clipPath25512">
      <g
         id="g25518">
        <g
           id="g25516">
          <path
             d="M 0,0 H 609.449 V 793.701 H 0 Z"
             id="path25514" />
        </g>
      </g>
    </clipPath>
    <clipPath
       clipPathUnits="userSpaceOnUse"
       id="clipPath25242">
      <g
         id="g25248">
        <g
           id="g25246">
          <path
             d="M 0,0 H 609.449 V 793.701 H 0 Z"
             id="path25244" />
        </g>
      </g>
    </clipPath>
    <clipPath
       clipPathUnits="userSpaceOnUse"
       id="clipPath25542">
      <g
         id="g25548">
        <g
           id="g25546">
          <path
             d="M 0,0 H 609.449 V 793.701 H 0 Z"
             id="path25544" />
        </g>
      </g>
    </clipPath>
    <clipPath
       clipPathUnits="userSpaceOnUse"
       id="clipPath25317">
      <g
         id="g25323">
        <g
           id="g25321">
          <path
             d="M 0,0 H 609.449 V 793.701 H 0 Z"
             id="path25319" />
        </g>
      </g>
    </clipPath>
    <clipPath
       clipPathUnits="userSpaceOnUse"
       id="clipPath25257">
      <g
         id="g25263">
        <g
           id="g25261">
          <path
             d="M 0,0 H 609.449 V 793.701 H 0 Z"
             id="path25259" />
        </g>
      </g>
    </clipPath>
    <clipPath
       clipPathUnits="userSpaceOnUse"
       id="clipPath25392">
      <g
         id="g25398">
        <g
           id="g25396">
          <path
             d="M 0,0 H 609.449 V 793.701 H 0 Z"
             id="path25394" />
        </g>
      </g>
    </clipPath>
    <clipPath
       clipPathUnits="userSpaceOnUse"
       id="clipPath25347">
      <g
         id="g25353">
        <g
           id="g25351">
          <path
             d="M 0,0 H 609.449 V 793.701 H 0 Z"
             id="path25349" />
        </g>
      </g>
    </clipPath>
    <clipPath
       clipPathUnits="userSpaceOnUse"
       id="clipPath25422">
      <g
         id="g25428">
        <g
           id="g25426">
          <path
             d="M 0,0 H 609.449 V 793.701 H 0 Z"
             id="path25424" />
        </g>
      </g>
    </clipPath>
    <clipPath
       clipPathUnits="userSpaceOnUse"
       id="clipPath25377">
      <g
         id="g25383">
        <g
           id="g25381">
          <path
             d="M 0,0 H 609.449 V 793.701 H 0 Z"
             id="path25379" />
        </g>
      </g>
    </clipPath>
    <clipPath
       clipPathUnits="userSpaceOnUse"
       id="clipPath25287">
      <g
         id="g25293">
        <g
           id="g25291">
          <path
             d="M 0,0 H 609.449 V 793.701 H 0 Z"
             id="path25289" />
        </g>
      </g>
    </clipPath>
    <clipPath
       clipPathUnits="userSpaceOnUse"
       id="clipPath25332">
      <g
         id="g25338">
        <g
           id="g25336">
          <path
             d="M 0,0 H 609.449 V 793.701 H 0 Z"
             id="path25334" />
        </g>
      </g>
    </clipPath>
    <clipPath
       clipPathUnits="userSpaceOnUse"
       id="clipPath25527">
      <g
         id="g25533">
        <g
           id="g25531">
          <path
             d="M 0,0 H 609.449 V 793.701 H 0 Z"
             id="path25529" />
        </g>
      </g>
    </clipPath>
    <clipPath
       clipPathUnits="userSpaceOnUse"
       id="clipPath816">
      <path
         d="M 0,0 H 609.449 V 793.701 H 0 Z"
         id="path814" />
    </clipPath>
    <clipPath
       clipPathUnits="userSpaceOnUse"
       id="clipPath18089">
      <g
         id="g18093"
         transform="translate(-332.5598,-350.9826)">
        <path
           d="M 0,0 H 609.449 V 793.701 H 0 Z"
           id="path18091" />
      </g>
    </clipPath>
    <clipPath
       clipPathUnits="userSpaceOnUse"
       id="clipPath22087">
      <g
         id="g22093">
        <g
           id="g22091">
          <path
             d="M 0,0 H 609.449 V 793.701 H 0 Z"
             id="path22089" />
        </g>
      </g>
    </clipPath>
    <clipPath
       clipPathUnits="userSpaceOnUse"
       id="clipPath972">
      <path
         d="M 0,0 H 609.449 V 793.701 H 0 Z"
         id="path970" />
    </clipPath>
    <clipPath
       clipPathUnits="userSpaceOnUse"
       id="clipPath972-6">
      <path
         d="M 0,0 H 609.449 V 793.701 H 0 Z"
         id="path970-0" />
    </clipPath>
    <clipPath
       clipPathUnits="userSpaceOnUse"
       id="clipPath33892">
      <g
         id="g33896"
         transform="translate(-44.8674,-673.6147)">
        <path
           d="M 0,0 H 609.449 V 793.701 H 0 Z"
           id="path33894" />
      </g>
    </clipPath>
  </defs>
  <g
     inkscape:label="Layer 1"
     inkscape:groupmode="layer"
     id="layer1"
     transform="translate(-107.43677,-152.90088)">
    <g
       id="g966"
       transform="matrix(0.35277777,0,0,-0.35277777,94.804009,396.29532)"
       style="fill:#000000;fill-opacity:1">
      <g
         id="g968"
         clip-path="url(#clipPath972-6)"
         style="fill:#000000;fill-opacity:1">
        <g
           id="g974"
           transform="translate(52.6184,689.937)"
           style="fill:#000000;fill-opacity:1">
          <path
             d="m 0,0 h -15.142 c -0.919,0 -1.667,-0.748 -1.667,-1.667 v -24.544 c 0,-0.919 0.748,-1.667 1.667,-1.667 H 0 c 0.919,0 1.667,0.748 1.667,1.667 V -1.667 C 1.667,-0.748 0.919,0 0,0 m 1.167,-26.211 c 0,-0.643 -0.523,-1.167 -1.167,-1.167 h -15.142 c -0.643,0 -1.167,0.524 -1.167,1.167 v 24.544 c 0,0.644 0.524,1.167 1.167,1.167 L 0,-0.5 c 0.644,0 1.167,-0.523 1.167,-1.167 z"
             style="fill:#000000;fill-opacity:1;fill-rule:nonzero;stroke:none"
             id="path976" />
        </g>
      </g>
    </g>
    <path
       d="m 107.84162,162.33063 h 5.70794 v -9.02476 h -5.70794 z m 0.17639,-4.15466 h 5.35516 v 3.97827 h -5.35516 z m 5.35516,-3.54965 h -5.35516 v -1.14371 h 5.35516 z"
       style="fill:#000000;fill-opacity:1;fill-rule:nonzero;stroke:none;stroke-width:0.352778"
       id="path978" />
    <path
       d="m 110.75944,161.08286 h 2.42394 v -2.42394 h -2.42394 z m 0.17639,-2.24755 h 2.07116 v 2.07116 h -2.07116 z"
       style="fill:#000000;fill-opacity:1;fill-rule:nonzero;stroke:none;stroke-width:0.352778"
       id="path980" />
    <g
       id="g990"
       transform="matrix(0.35277777,0,0,-0.35277777,110.63223,158.65903)"
       clip-path="url(#clipPath33892)"
       style="fill:#000000;fill-opacity:1">
      <path
         d="m 0,0 h -3.185 -0.5 -3.185 l -0.002,-3.186 v -0.25 -0.25 l 0.002,-3.183 3.186,-0.002 H 0.002 L 0,-3.187 Z m -0.5,-0.5 v -2.676 c -1.418,0.121 -2.553,1.257 -2.675,2.676 z m -1.025,-2.934 c -0.427,-0.171 -0.821,-0.425 -1.156,-0.76 -0.333,-0.334 -0.586,-0.725 -0.755,-1.151 -0.351,0.869 -1.045,1.561 -1.916,1.909 0.874,0.35 1.568,1.044 1.917,1.917 0.349,-0.871 1.04,-1.564 1.91,-1.915 M -6.37,-0.5 h 2.674 c -0.12,-1.419 -1.256,-2.555 -2.676,-2.675 z m 0,-5.869 -0.002,2.673 c 1.42,-0.12 2.556,-1.256 2.678,-2.675 z m 3.196,-0.002 c 0.058,0.689 0.353,1.329 0.847,1.824 0.495,0.496 1.137,0.792 1.827,0.85 l 0.002,-2.674 z"
         style="fill:#000000;fill-opacity:1;fill-rule:nonzero;stroke:none"
         id="path992" />
    </g>
  </g>
</svg>
